<svg width="158" height="176" viewBox="0 0 158 176" fill="none" xmlns="http://www.w3.org/2000/svg">
<g filter="url(#filter0_d_537_232)">
<path d="M104.962 118.278V98.0859H53.0391V118.278L79.0005 141.355L104.962 118.278Z" fill="#D99F71"/>
<path d="M145.105 127.724L109.41 119.325C108.871 119.198 108.375 118.983 107.911 118.722L79.0001 135.587L51.2168 117.906C50.4975 118.583 49.6047 119.087 48.5907 119.326L12.8959 127.724C7.68357 128.951 4 133.602 4 138.956V161.548C4 164.735 6.58294 167.317 9.76914 167.317H148.23C151.417 167.317 154 164.734 154 161.548V138.956C154 133.601 150.317 128.95 145.105 127.724Z" fill="#252525"/>
<path d="M53.0391 98.0863V119.391C85.7435 131.174 104.962 101.684 104.962 101.684V98.0859H53.0391V98.0863Z" fill="#CF9262"/>
<path d="M41.5 31.7402L44.0137 87.0421C44.2483 92.2083 46.7816 96.9994 50.9187 100.102L62.8459 109.048C65.8419 111.294 69.4856 112.509 73.2306 112.509H84.7692C88.5142 112.509 92.1579 111.295 95.1539 109.048L107.081 100.102C111.218 96.9991 113.751 92.2087 113.986 87.0421L116.5 31.7402H41.5Z" fill="#EABF9D"/>
<path d="M70.3463 43.2788C81.8849 43.2788 99.1924 40.3943 103.297 31.7402H41.5L44.0137 87.0421C44.2483 92.2083 46.7816 96.999 50.9191 100.102L62.8462 109.048C65.8422 111.294 69.4859 112.509 73.2309 112.509H79C73.2309 112.509 61.6923 100.971 61.6923 86.548C61.6923 79.4939 61.6923 60.5866 61.6923 51.9325C61.6923 49.048 64.5769 43.2788 70.3463 43.2788Z" fill="#D99F71"/>
<path d="M25.1785 148.598L6.48653 131.807C4.92023 133.79 4.00195 136.286 4.00195 138.957V161.55C4.00195 164.736 6.5849 167.319 9.77109 167.319H29.9634V159.328C29.9631 155.234 28.2236 151.333 25.1785 148.598Z" fill="#171717"/>
<path d="M132.824 148.598L151.516 131.807C153.082 133.79 154.001 136.286 154.001 138.957V161.55C154.001 164.736 151.418 167.319 148.231 167.319H128.039V159.328C128.039 155.234 129.779 151.333 132.824 148.598Z" fill="#171717"/>
<path d="M52.6333 111.856L78.9999 135.586C78.9999 135.586 71.6158 139.313 62.5036 146.827C60.6239 148.376 57.7805 147.748 56.7724 145.531L44.3848 118.278L48.3036 112.4C49.2788 110.936 51.3258 110.679 52.6333 111.856Z" fill="#171717"/>
<path d="M105.367 111.856L79 135.586C79 135.586 86.3841 139.313 95.4963 146.827C97.376 148.376 100.219 147.748 101.228 145.531L113.615 118.278L109.696 112.4C108.721 110.936 106.674 110.679 105.367 111.856Z" fill="#171717"/>
<path d="M96.4883 12.628L99.1925 31.7386C111.537 34.2075 113.316 53.5802 113.572 59.1134C113.619 60.1177 113.939 61.0872 114.484 61.932L119.194 69.2383C119.194 69.2383 117.582 57.1589 124.963 49.046C124.963 49.046 127.498 1.0894 96.4883 12.628Z" fill="#785550"/>
<path d="M122.088 68.0099L118.831 81.0361C118.445 82.5802 117.058 83.6628 115.467 83.6628C113.717 83.6628 112.242 82.3606 112.025 80.625L110.36 67.3018C109.914 63.7355 112.694 60.5859 116.288 60.5859H116.291C120.178 60.5863 123.03 64.2388 122.088 68.0099Z" fill="#EABF9D"/>
<path d="M44.2657 7.46063L48.5322 10.3753C29.2415 24.618 32.847 49.0472 32.847 49.0472C38.6161 54.8163 38.6161 69.2395 38.6161 69.2395L44.3853 63.4703C44.3853 63.4703 42.1589 46.8047 53.039 40.3935C63.1351 34.4439 71.9692 37.5089 80.9837 37.5089C105.142 37.5089 111.903 28.4042 110.731 17.3166C110.125 11.5795 101.353 -0.371201 79.0008 0.00885459C69.9801 0.162119 53.0396 2.89342 44.2657 7.46063Z" fill="#694B4B"/>
<path d="M42.5827 34.9861C42.5827 34.9861 39.5178 22.9067 48.5322 10.377C29.2415 24.6197 32.847 49.0489 32.847 49.0489C38.6161 54.818 38.6161 69.2412 38.6161 69.2412L44.3853 63.472C44.3853 63.472 42.1589 46.8064 53.039 40.3952C63.1351 34.4456 71.9692 37.5106 80.9837 37.5106C84.9127 37.5106 88.3365 37.2475 91.3861 36.7966C72.7813 37.4201 61.8139 23.3273 42.5827 34.9861Z" fill="#5A4146"/>
<path d="M35.9138 68.0099L39.1702 81.0361C39.5562 82.5802 40.9431 83.6628 42.5348 83.6628C44.2841 83.6628 45.7593 82.3606 45.9763 80.625L47.6419 67.3018C48.0876 63.7355 45.3073 60.5859 41.7133 60.5859H41.7107C37.8232 60.5863 34.971 64.2388 35.9138 68.0099Z" fill="#D99F71"/>
<path d="M116.501 161.547H96.3084C94.7153 161.547 93.4238 162.838 93.4238 164.431V167.316H119.385V164.431C119.385 162.839 118.093 161.547 116.501 161.547Z" fill="#171717"/>
<path d="M117.449 55.4814C103.026 50.4278 83.2922 55.8707 83.2922 55.8707C81.4111 56.3333 80.1522 56.422 79.5007 56.4277C79.4975 56.4277 78.9761 56.4277 78.9761 56.4277H78.4516C77.8001 56.422 76.5411 56.3333 74.6569 55.8707C74.6569 55.8707 54.9234 50.431 40.5 55.4814C40.5 55.4814 40.0693 57.5099 40.5 60.2754C40.5 60.2754 40.5351 60.694 41.0015 60.8708C41.0015 60.8708 42.5757 61.366 42.9828 62.9701C42.9828 62.9701 43.885 66.5849 44.1767 68.2446C44.1767 68.2446 44.6661 71.4434 46.4202 73.23C46.4202 73.23 47.9504 75.1877 51.872 76.0574C51.872 76.0574 56.9728 77.3693 63.3263 76.6119C63.3263 76.6119 67.8638 76.0548 70.196 73.8642C70.196 73.8642 72.77 71.6589 74.1968 67.3927C74.1968 67.3927 74.6422 66.0807 75.5974 63.2324C75.5974 63.2324 76.0575 61.2894 78.9704 61.1625C81.8864 61.2894 82.3433 63.2324 82.3433 63.2324C83.2985 66.0807 83.7439 67.3927 83.7439 67.3927C85.1707 71.6621 87.7447 73.8642 87.7447 73.8642C90.0769 76.0548 94.6144 76.6119 94.6144 76.6119C100.968 77.3693 106.069 76.0574 106.069 76.0574C109.987 75.1877 111.521 73.23 111.521 73.23C113.278 71.4434 113.764 68.2446 113.764 68.2446C114.056 66.5817 114.958 62.9701 114.958 62.9701C115.365 61.366 116.939 60.8708 116.939 60.8708C117.405 60.6966 117.44 60.2754 117.44 60.2754C117.879 57.5099 117.449 55.4814 117.449 55.4814ZM73.1498 63.3179C73.1498 63.3179 71.4665 70.9277 68.6386 73.0003C68.6386 73.0003 65.9025 75.2559 60.5482 75.3471C60.5482 75.3471 52.5728 75.6949 48.9995 73.0328C48.9995 73.0328 46.6468 71.3641 45.8888 66.0598C45.8888 66.0598 44.8775 59.8621 46.1805 58.0932C46.1805 58.0932 47.9493 55.142 53.3009 55.2333C53.3009 55.2333 57.8588 55.142 61.5711 55.5103C61.5711 55.5103 66.1737 55.8638 70.2631 57.1878C70.2605 57.1826 74.7125 58.4148 73.1498 63.3179ZM112.059 66.0571C111.301 71.361 108.949 73.0301 108.949 73.0301C105.375 75.6954 97.3998 75.3445 97.3998 75.3445C92.0456 75.2532 89.3095 72.9976 89.3095 72.9976C86.4821 70.9219 84.7982 63.3153 84.7982 63.3153C83.2356 58.4122 87.6849 57.18 87.6849 57.18C91.7744 55.856 96.3769 55.5024 96.3769 55.5024C100.089 55.1337 104.647 55.2255 104.647 55.2255C110.001 55.1342 111.768 58.0854 111.768 58.0854C113.071 59.8568 112.059 66.0571 112.059 66.0571Z" fill="#3B3B3B"/>
</g>
<defs>
<filter id="filter0_d_537_232" x="0" y="0" width="158" height="175.318" filterUnits="userSpaceOnUse" color-interpolation-filters="sRGB">
<feFlood flood-opacity="0" result="BackgroundImageFix"/>
<feColorMatrix in="SourceAlpha" type="matrix" values="0 0 0 0 0 0 0 0 0 0 0 0 0 0 0 0 0 0 127 0" result="hardAlpha"/>
<feOffset dy="4"/>
<feGaussianBlur stdDeviation="2"/>
<feComposite in2="hardAlpha" operator="out"/>
<feColorMatrix type="matrix" values="0 0 0 0 0 0 0 0 0 0 0 0 0 0 0 0 0 0 0.25 0"/>
<feBlend mode="normal" in2="BackgroundImageFix" result="effect1_dropShadow_537_232"/>
<feBlend mode="normal" in="SourceGraphic" in2="effect1_dropShadow_537_232" result="shape"/>
</filter>
</defs>
</svg>
