<svg width="60" height="61" viewBox="0 0 60 61" fill="none" xmlns="http://www.w3.org/2000/svg">
<path d="M42.5912 0H17.4387C6.51325 0 0 6.51325 0 17.4387V42.5612C0 53.5167 6.51325 60.0299 17.4387 60.0299H42.5612C53.4867 60.0299 59.9999 53.5167 59.9999 42.5912V17.4387C60.0299 6.51325 53.5167 0 42.5912 0ZM35.3876 39.0194C36.2581 39.8899 36.2581 41.3306 35.3876 42.201C34.9374 42.6513 34.3671 42.8614 33.7968 42.8614C33.2266 42.8614 32.6563 42.6513 32.206 42.201L21.6108 31.6058C20.7403 30.7353 20.7403 29.2946 21.6108 28.4242L32.206 17.8289C33.0765 16.9585 34.5172 16.9585 35.3876 17.8289C36.2581 18.6993 36.2581 20.14 35.3876 21.0105L26.3831 30.015L35.3876 39.0194Z" fill="#C8291F"/>
</svg>
