<svg width="591" height="660" viewBox="0 0 591 660" fill="none" xmlns="http://www.w3.org/2000/svg">
<path d="M562.934 621.488C559.252 622.782 555.298 623.107 551.454 622.429C547.61 621.752 544.005 620.097 540.987 617.622C533.3 611.17 530.887 600.541 528.929 590.698L523.129 561.586L535.272 569.948C544.005 575.961 552.934 582.167 558.981 590.877C565.028 599.587 567.667 611.477 562.809 620.901" fill="#E6E6E6"/>
<path d="M561.896 656.734C563.125 647.781 564.389 638.714 563.527 629.665C562.761 621.629 560.31 613.78 555.318 607.344C552.668 603.934 549.444 601.012 545.791 598.711C544.838 598.111 543.962 599.62 544.91 600.218C551.231 604.213 556.12 610.112 558.873 617.065C561.913 624.797 562.401 633.226 561.873 641.439C561.556 646.406 560.885 651.339 560.208 656.269C560.153 656.492 560.186 656.727 560.3 656.927C560.413 657.126 560.598 657.275 560.818 657.343C561.041 657.403 561.279 657.373 561.48 657.258C561.681 657.144 561.829 656.955 561.892 656.733L561.896 656.734Z" fill="#F2F2F2"/>
<path d="M517.886 508.034H9.85156V0H517.886V508.034Z" fill="white"/>
<path d="M517.886 508.034H9.85156V0H517.886V508.034ZM17.3577 500.528H510.38V7.50617H17.3577V500.528Z" fill="#E5E5E5"/>
<path d="M427.885 79.4824H207.885V86.3355H427.885V79.4824Z" fill="#E5E5E5"/>
<path d="M427.885 97.3008H207.885V104.154H427.885V97.3008Z" fill="#E5E5E5"/>
<path d="M427.885 115.118H207.885V121.971H427.885V115.118Z" fill="#E5E5E5"/>
<path d="M427.885 232.482H207.885V239.336H427.885V232.482Z" fill="#E5E5E5"/>
<path d="M427.885 250.301H207.885V257.154H427.885V250.301Z" fill="#E5E5E5"/>
<path d="M427.885 268.119H207.885V274.972H427.885V268.119Z" fill="#E5E5E5"/>
<path d="M427.885 385.482H207.885V392.336H427.885V385.482Z" fill="#E5E5E5"/>
<path d="M427.885 403.301H207.885V410.154H427.885V403.301Z" fill="#E5E5E5"/>
<path d="M427.885 421.119H207.885V427.972H427.885V421.119Z" fill="#E5E5E5"/>
<path d="M119.814 134.084C116.055 132.104 112.132 130.453 108.089 129.15L107.573 123.446L86.6626 121.193L84.005 128.484L76.5006 131.3C76.2321 131.402 75.9764 131.535 75.7391 131.696H75.731C75.3122 131.979 74.9555 132.345 74.6827 132.77C74.4099 133.196 74.2267 133.673 74.1444 134.171C74.0642 134.667 74.0832 135.174 74.2002 135.663L74.5968 137.289C75.1678 137.63 75.755 137.955 76.3418 138.265L76.7148 138.455C77.5716 138.899 78.4443 139.32 79.3406 139.708C79.523 139.788 79.7214 139.867 79.9038 139.946C79.9197 139.954 79.9274 139.954 79.9433 139.962C80.364 140.137 80.7842 140.303 81.2126 140.462C82.6198 141 84.0551 141.46 85.5122 141.842C89.2309 142.834 93.0631 143.335 96.9117 143.334C98.3158 143.334 99.7041 143.27 101.076 143.135C104.212 142.846 107.308 142.221 110.31 141.271C110.318 141.271 110.326 141.263 110.334 141.263C112.231 140.659 114.083 139.925 115.879 139.066C115.887 139.058 115.903 139.058 115.911 139.05C116.315 138.86 116.704 138.653 117.101 138.455L117.291 138.36C117.608 138.193 117.926 138.027 118.243 137.852C119.036 137.416 119.814 136.956 120.583 136.464C120.797 136.337 121.004 136.202 121.218 136.059C121.519 135.861 121.821 135.655 122.114 135.441C121.376 134.965 120.607 134.513 119.814 134.084Z" fill="#3F3D56"/>
<path d="M80.5693 137.598L79.2605 131.688H75.8414C75.8069 131.689 75.7725 131.692 75.7384 131.696H75.7302C74.5015 131.8 73.3182 132.209 72.2875 132.886C71.5885 133.333 70.9669 133.89 70.4473 134.536C71.4625 135.306 72.5176 136.02 73.6045 136.702L73.6521 136.726C73.9612 136.916 74.2789 137.107 74.5961 137.289C75.1671 137.63 75.7543 137.955 76.3411 138.265L76.7141 138.455C77.5709 138.899 78.4436 139.32 79.3399 139.708C79.5224 139.788 79.7207 139.867 79.9031 139.946C79.919 139.954 79.9268 139.954 79.9427 139.962C80.3633 140.137 80.7836 140.303 81.212 140.462L80.5693 137.598Z" fill="#3F3D56"/>
<path d="M96.2984 117.587C104.616 117.587 111.359 110.844 111.359 102.527C111.359 94.2094 104.616 87.4668 96.2984 87.4668C87.9809 87.4668 81.2383 94.2094 81.2383 102.527C81.2383 110.844 87.9809 117.587 96.2984 117.587Z" fill="#FFB8B8"/>
<path d="M86.1856 95.1918C87.7446 97.0367 90.3829 97.5574 92.8167 97.7708C98.5068 98.0851 104.213 97.6192 109.777 96.3859C110.122 99.7273 109.182 103.33 111.15 106.079C112.072 102.751 112.609 99.3284 112.749 95.878C112.896 94.3976 112.702 92.9033 112.183 91.509C111.906 90.8103 111.438 90.2033 110.833 89.7572C110.228 89.3111 109.51 89.0437 108.761 88.9854C109.882 88.1342 111.197 87.5724 112.587 87.3494L107.805 84.9463L109.033 83.6856L100.376 83.1558L102.883 81.5628C99.1095 81.0442 95.2915 80.9237 91.4923 81.2032C89.7169 81.204 87.9752 81.6881 86.4541 82.6037C85.0247 83.6258 84.1987 85.6574 85.0861 87.1582C83.9751 87.3406 82.9291 87.8037 82.0472 88.5035C81.1652 89.2032 80.4765 90.1166 80.0463 91.157C79.5023 92.8108 79.371 94.5725 79.6638 96.2886C79.9899 99.042 80.6298 101.749 81.571 104.357L86.1856 95.1918Z" fill="#2F2E41"/>
<path d="M138.647 86.2019C136.534 80.1316 133.122 74.5953 128.649 69.979C124.177 65.3628 118.751 61.7777 112.751 59.4737C106.75 57.1698 100.319 56.2025 93.9068 56.6393C87.4941 57.076 81.2538 58.9064 75.6212 62.0027C69.9886 65.099 65.0991 69.3867 61.2938 74.5667C57.4886 79.7468 54.859 85.6946 53.5886 91.9954C52.3182 98.2961 52.4375 104.798 53.9382 111.048C55.4388 117.298 58.2847 123.145 62.2775 128.182C62.6741 128.682 63.0866 129.182 63.5073 129.666C63.539 129.698 63.5627 129.729 63.5944 129.761C64.6285 130.952 65.7275 132.086 66.8864 133.156C67.1882 133.434 67.5054 133.719 67.8227 133.989C68.4254 134.529 69.0443 135.044 69.6869 135.536C69.9407 135.734 70.1866 135.933 70.4484 136.123C71.4637 136.893 72.5188 137.607 73.6057 138.289L73.6533 138.313C73.9624 138.503 74.2801 138.693 74.5973 138.876C75.1683 139.217 75.7555 139.542 76.3423 139.852L76.7153 140.042C77.5721 140.486 78.4448 140.907 79.3411 141.295C79.5236 141.375 79.7219 141.454 79.9043 141.533C79.9202 141.541 79.928 141.541 79.9438 141.549C80.3645 141.724 80.7848 141.89 81.2132 142.049C82.6204 142.586 84.0556 143.047 85.5127 143.429C89.2314 144.42 93.0637 144.922 96.9122 144.921C98.3163 144.921 99.7046 144.857 101.077 144.722C104.213 144.433 107.308 143.808 110.311 142.858C110.319 142.858 110.327 142.85 110.334 142.85C112.231 142.246 114.084 141.512 115.88 140.653C115.887 140.645 115.903 140.645 115.911 140.637C116.316 140.447 116.705 140.24 117.101 140.042L117.292 139.947C117.609 139.78 117.926 139.614 118.244 139.439C119.037 139.003 119.814 138.543 120.584 138.051C120.798 137.924 121.004 137.789 121.218 137.646C121.52 137.448 121.821 137.242 122.115 137.027C122.503 136.758 122.892 136.48 123.273 136.195C123.392 136.107 123.519 136.02 123.638 135.925C131.07 130.284 136.525 122.434 139.221 113.502C141.917 104.57 141.716 95.013 138.647 86.2019ZM122.178 133.997C121.916 134.203 121.647 134.402 121.377 134.584C121.115 134.783 120.854 134.973 120.584 135.147C120.354 135.314 120.123 135.473 119.886 135.623L119.814 135.671C119.64 135.79 119.465 135.901 119.291 136.012C118.632 136.425 117.966 136.821 117.292 137.202L117.077 137.321C116.776 137.488 116.475 137.646 116.173 137.805C116.133 137.829 116.086 137.845 116.046 137.868L115.999 137.892C115.618 138.091 115.229 138.281 114.841 138.463C113.341 139.186 111.796 139.811 110.216 140.335C110.009 140.407 109.803 140.478 109.597 140.542C106.755 141.446 103.824 142.041 100.855 142.319C99.554 142.438 98.237 142.501 96.9123 142.501C93.2721 142.509 89.6471 142.034 86.1317 141.089C84.3276 140.618 82.5594 140.019 80.8406 139.296C80.753 139.257 80.6578 139.225 80.5706 139.185C80.4757 139.146 80.3881 139.114 80.301 139.074C80.2057 139.035 80.1185 138.995 80.0232 138.947C79.2776 138.622 78.5397 138.265 77.8181 137.892L77.4691 137.71C76.5883 137.25 75.7237 136.758 74.8828 136.234C74.6368 136.083 74.3831 135.925 74.1449 135.758C74.0818 135.719 74.026 135.679 73.9625 135.639C73.3993 135.266 72.8361 134.878 72.2888 134.473C71.9161 134.195 71.5431 133.918 71.1782 133.632C70.5674 133.172 69.9802 132.68 69.4092 132.173C69.1079 131.919 68.8143 131.641 68.5288 131.379C67.404 130.341 66.3393 129.239 65.3398 128.079C65.0067 127.699 64.6813 127.318 64.3718 126.921C64.3015 126.843 64.2353 126.761 64.1735 126.675C59.0193 120.171 55.9191 112.279 55.2683 104.006C54.6175 95.7333 56.4455 87.4538 60.5193 80.2239C64.593 72.9939 70.7279 67.1412 78.1415 63.4121C85.5551 59.6829 93.9114 58.2464 102.145 59.2857C110.378 60.325 118.115 63.793 124.369 69.2475C130.624 74.7019 135.112 81.8956 137.261 89.9111C139.41 97.9265 139.124 106.401 136.437 114.252C133.751 122.104 128.787 128.978 122.178 133.997Z" fill="#3F3D56"/>
<path d="M138.647 239.202C136.534 233.132 133.122 227.595 128.649 222.979C124.177 218.363 118.751 214.778 112.751 212.474C106.75 210.17 100.319 209.202 93.9067 209.639C87.494 210.076 81.2538 211.906 75.6212 215.003C69.9886 218.099 65.0991 222.387 61.2939 227.567C57.4886 232.747 54.859 238.695 53.5886 244.995C52.3182 251.296 52.4375 257.798 53.9381 264.048C55.4388 270.298 58.2847 276.145 62.2774 281.182C62.674 281.682 63.0866 282.182 63.5068 282.666C63.5386 282.697 63.5622 282.729 63.594 282.761C64.6283 283.952 65.7274 285.086 66.8864 286.156C67.1878 286.434 67.505 286.719 67.8222 286.989C68.4253 287.529 69.0439 288.044 69.6865 288.536C70.9412 289.525 72.2494 290.444 73.6053 291.289L73.6529 291.313C74.5334 291.86 75.4297 292.368 76.3423 292.852L76.7149 293.042C77.5717 293.486 78.4444 293.907 79.3407 294.295C79.5231 294.375 79.7215 294.454 79.9039 294.533C79.9198 294.541 79.9279 294.541 79.9438 294.549C81.7549 295.302 83.6156 295.93 85.5126 296.429C89.2313 297.42 93.0634 297.922 96.9118 297.921C98.3159 297.921 99.7042 297.857 101.077 297.722C104.212 297.433 107.308 296.808 110.31 295.858C110.319 295.858 110.326 295.85 110.334 295.85C112.231 295.246 114.084 294.512 115.879 293.653C115.887 293.645 115.903 293.645 115.911 293.637C116.315 293.446 116.704 293.24 117.101 293.042L117.292 292.947C117.609 292.78 117.926 292.613 118.243 292.439C119.037 292.003 119.814 291.543 120.584 291.051C120.798 290.924 121.004 290.789 121.218 290.646C121.916 290.186 122.606 289.694 123.272 289.194C123.392 289.107 123.518 289.02 123.638 288.925C131.069 283.283 136.524 275.434 139.221 266.502C141.917 257.57 141.716 248.013 138.647 239.202Z" fill="white"/>
<path d="M111.496 271.944C115.154 271.944 118.119 268.979 118.119 265.321C118.119 261.664 115.154 258.698 111.496 258.698C107.838 258.698 104.873 261.664 104.873 265.321C104.873 268.979 107.838 271.944 111.496 271.944Z" fill="#2F2E41"/>
<path d="M113.341 258.88C114.487 258.881 115.614 259.178 116.61 259.744C117.607 260.31 118.44 261.125 119.028 262.109C119.615 263.093 119.938 264.213 119.963 265.359C119.988 266.505 119.715 267.638 119.171 268.647C119.745 267.929 120.163 267.099 120.399 266.21C120.634 265.321 120.682 264.393 120.539 263.484C120.396 262.576 120.065 261.707 119.568 260.934C119.071 260.16 118.418 259.499 117.651 258.991C116.884 258.484 116.02 258.142 115.113 257.987C114.207 257.832 113.278 257.868 112.386 258.092C111.494 258.316 110.658 258.723 109.933 259.288C109.207 259.852 108.606 260.562 108.17 261.371C108.789 260.594 109.576 259.966 110.471 259.535C111.366 259.104 112.347 258.88 113.341 258.88Z" fill="#2F2E41"/>
<path d="M99.1181 265.307C109.863 265.307 118.574 256.596 118.574 245.851C118.574 235.105 109.863 226.395 99.1181 226.395C88.3729 226.395 79.6621 235.105 79.6621 245.851C79.6621 256.596 88.3729 265.307 99.1181 265.307Z" fill="#2F2E41"/>
<path d="M83.8487 233.78C87.2011 230.009 91.8872 227.689 96.918 227.308C101.949 226.928 106.931 228.517 110.812 231.739C110.654 231.588 110.495 231.436 110.331 231.289C106.487 227.846 101.434 226.07 96.2814 226.354C91.1291 226.637 86.3003 228.955 82.8572 232.798C79.4141 236.642 77.6388 241.695 77.9219 246.847C78.2049 252 80.5231 256.829 84.3665 260.272C84.4035 260.305 84.4405 260.338 84.4777 260.37C84.6427 260.517 84.8125 260.656 84.9814 260.797C81.3262 257.319 79.1649 252.558 78.9537 247.517C78.7425 242.476 80.4971 237.551 83.8487 233.78Z" fill="#2F2E41"/>
<path d="M98.9545 265.141C105.875 265.141 111.485 259.531 111.485 252.611C111.485 245.69 105.875 240.08 98.9545 240.08C92.034 240.08 86.4238 245.69 86.4238 252.611C86.4238 259.531 92.034 265.141 98.9545 265.141Z" fill="#A0616A"/>
<path d="M121.376 285.26V289.464C120.607 289.956 119.829 290.416 119.036 290.853C118.719 291.027 118.401 291.194 118.084 291.36L117.894 291.455C117.497 291.654 117.108 291.86 116.704 292.05C116.696 292.058 116.68 292.058 116.672 292.066C114.876 292.925 113.023 293.659 111.127 294.264C111.119 294.264 111.111 294.272 111.103 294.272C108.101 295.221 105.005 295.846 101.869 296.136C100.497 296.271 99.1086 296.334 97.7045 296.334C93.8561 296.335 90.024 295.834 86.3054 294.843C84.4083 294.344 82.5477 293.716 80.7365 292.963C80.7207 292.955 80.7125 292.955 80.6966 292.947C80.5142 292.867 80.3159 292.788 80.1334 292.709C79.2371 292.32 78.3644 291.9 77.5076 291.455L77.135 291.265C76.2224 290.781 75.3261 290.273 74.4457 289.726L74.398 289.702C73.0422 288.857 71.7339 287.938 70.4793 286.95C69.8367 286.458 69.2181 285.942 68.615 285.403C68.2978 285.133 67.9805 284.847 67.6792 284.57C66.5202 283.499 65.421 282.366 64.3867 281.175C64.5239 280.348 64.7256 279.534 64.9898 278.739L64.9976 278.731C65.045 278.596 65.1007 278.463 65.1641 278.335C65.2079 278.221 65.2582 278.109 65.3148 278.001C66.7348 275.344 69.3052 274.685 72.4942 274.543C74.295 274.463 76.2859 274.551 78.3885 274.527C79.499 274.519 80.649 274.479 81.7994 274.376C89.0579 273.718 87.7413 269.434 88.0663 267.125C88.3917 264.888 90.4066 266.824 90.5414 266.951L90.5492 266.959C94.6567 268.881 99.2012 269.678 103.718 269.267C104.495 269.172 105.272 269.117 106.05 269.093C108.097 269.069 107.652 269.656 106.947 270.14C106.604 270.365 106.246 270.567 105.876 270.743C105.876 270.743 105.55 272.726 105.217 275.693C104.9 278.533 110.342 279.866 110.794 279.969C110.803 279.975 110.814 279.978 110.825 279.977C112.813 279.461 114.905 279.516 116.863 280.135H116.87C117.989 280.547 118.987 281.231 119.774 282.126C120.561 283.021 121.111 284.098 121.376 285.26Z" fill="#BF0707"/>
<path d="M80.8153 290.36C80.8153 290.947 80.7998 291.511 80.7758 292.042C80.768 292.359 80.7522 292.669 80.7363 292.962C80.7204 292.954 80.7123 292.954 80.6964 292.946C80.5139 292.867 80.3156 292.788 80.1332 292.708C79.2369 292.32 78.3642 291.899 77.5074 291.455L77.1348 291.265C76.2222 290.781 75.3259 290.273 74.4454 289.726C74.4691 289.448 74.509 289.17 74.5484 288.893C74.6356 288.282 74.7072 287.663 74.7549 287.052C75.0668 282.761 74.289 278.46 72.494 274.55V274.542C72.3351 274.225 72.2402 274.05 72.2402 274.05C72.2402 274.05 74.5484 272.067 77.8405 274.05C78.0508 274.174 78.2364 274.335 78.3882 274.526C80.3714 276.867 80.9106 284.736 80.8153 290.36Z" fill="#2F2E41"/>
<path d="M116.839 289.282C116.807 290.171 116.759 291.099 116.704 292.043V292.051C116.696 292.059 116.68 292.059 116.672 292.066C114.877 292.925 113.024 293.66 111.127 294.264C111.119 294.264 111.112 294.272 111.103 294.272L111.016 292.043L111.008 291.749L110.588 280.897C110.577 280.651 110.615 280.406 110.701 280.176C110.788 279.945 110.92 279.735 111.089 279.557C111.259 279.379 111.463 279.237 111.689 279.14C111.915 279.044 112.159 278.993 112.404 278.993H116.426C116.625 278.993 116.768 279.398 116.863 280.128V280.135C117.058 283.181 117.05 286.237 116.839 289.282Z" fill="#2F2E41"/>
<path d="M88.2363 236.948V249.482H91.1382L94.8309 245.525L94.3367 249.482H107.164L106.371 245.525L107.957 249.482H110.002V236.948H88.2363Z" fill="#2F2E41"/>
<path d="M86.2588 251.787C86.8051 251.787 87.248 250.975 87.248 249.974C87.248 248.972 86.8051 248.16 86.2588 248.16C85.7124 248.16 85.2695 248.972 85.2695 249.974C85.2695 250.975 85.7124 251.787 86.2588 251.787Z" fill="#A0616A"/>
<path d="M111.649 251.787C112.196 251.787 112.639 250.975 112.639 249.974C112.639 248.972 112.196 248.16 111.649 248.16C111.103 248.16 110.66 248.972 110.66 249.974C110.66 250.975 111.103 251.787 111.649 251.787Z" fill="#A0616A"/>
<path d="M124.065 287.608C123.399 288.108 122.708 288.6 122.01 289.06C121.796 289.202 121.59 289.337 121.376 289.464C120.606 289.956 119.829 290.416 119.036 290.852C118.718 291.027 118.401 291.194 118.084 291.36V282.618C118.084 282.618 119.353 283.634 121.376 285.323C121.63 285.537 121.892 285.76 122.169 285.998C122.756 286.489 123.391 287.029 124.065 287.608Z" fill="#BF0707"/>
<path d="M138.647 239.202C136.534 233.132 133.122 227.595 128.649 222.979C124.177 218.363 118.751 214.778 112.751 212.474C106.75 210.17 100.319 209.202 93.9067 209.639C87.494 210.076 81.2538 211.906 75.6212 215.003C69.9886 218.099 65.0991 222.387 61.2939 227.567C57.4886 232.747 54.859 238.695 53.5886 244.995C52.3182 251.296 52.4375 257.798 53.9381 264.048C55.4388 270.298 58.2847 276.145 62.2774 281.182C62.674 281.682 63.0866 282.182 63.5068 282.666C63.5386 282.697 63.5622 282.729 63.594 282.761C64.6283 283.952 65.7274 285.086 66.8864 286.156C67.1878 286.434 67.505 286.719 67.8222 286.989C68.4253 287.529 69.0439 288.044 69.6865 288.536C70.9412 289.525 72.2494 290.444 73.6053 291.289L73.6529 291.313C74.5334 291.86 75.4297 292.368 76.3423 292.852L76.7149 293.042C77.5717 293.486 78.4444 293.907 79.3407 294.295C79.5231 294.375 79.7215 294.454 79.9039 294.533C79.9198 294.541 79.9279 294.541 79.9438 294.549C81.7549 295.302 83.6156 295.93 85.5126 296.429C89.2313 297.42 93.0634 297.922 96.9118 297.921C98.3159 297.921 99.7042 297.857 101.077 297.722C104.212 297.433 107.308 296.808 110.31 295.858C110.319 295.858 110.326 295.85 110.334 295.85C112.231 295.246 114.084 294.512 115.879 293.653C115.887 293.645 115.903 293.645 115.911 293.637C116.315 293.446 116.704 293.24 117.101 293.042L117.292 292.947C117.609 292.78 117.926 292.613 118.243 292.439C119.037 292.003 119.814 291.543 120.584 291.051C120.798 290.924 121.004 290.789 121.218 290.646C121.916 290.186 122.606 289.694 123.272 289.194C123.392 289.107 123.518 289.02 123.638 288.925C131.069 283.283 136.524 275.434 139.221 266.502C141.917 257.57 141.716 248.013 138.647 239.202ZM122.178 286.997C121.916 287.203 121.646 287.402 121.377 287.584C121.115 287.782 120.853 287.973 120.584 288.147C120.354 288.314 120.123 288.473 119.885 288.623C119.687 288.758 119.489 288.885 119.29 289.012C118.632 289.424 117.966 289.821 117.292 290.202L117.077 290.321C116.776 290.487 116.474 290.646 116.173 290.805C116.133 290.829 116.085 290.844 116.046 290.868L115.998 290.892C115.617 291.09 115.229 291.281 114.84 291.463C113.34 292.186 111.795 292.811 110.215 293.335C110.009 293.407 109.803 293.478 109.597 293.542C106.755 294.445 103.824 295.041 100.855 295.319C99.5535 295.438 98.2365 295.501 96.9118 295.501C93.2717 295.508 89.6466 295.034 86.1312 294.089C84.3271 293.618 82.5589 293.019 80.8401 292.296C80.6577 292.225 80.4752 292.145 80.3005 292.074C80.2056 292.034 80.1181 291.995 80.0228 291.947C79.2772 291.622 78.5397 291.265 77.8177 290.892L77.4687 290.71C76.5883 290.249 75.7233 289.758 74.8824 289.234C74.5733 289.044 74.2638 288.845 73.9624 288.639C73.0103 288.012 72.0823 287.338 71.1778 286.632C70.567 286.172 69.9801 285.68 69.4088 285.172C69.1075 284.919 68.8138 284.641 68.5284 284.379C67.4037 283.341 66.3389 282.239 65.3394 281.079C65.0063 280.698 64.6809 280.318 64.3714 279.921C64.301 279.843 64.2348 279.76 64.1731 279.675C59.0189 273.171 55.9187 265.279 55.2679 257.006C54.6171 248.733 56.4451 240.454 60.5189 233.224C64.5926 225.994 70.7275 220.141 78.1411 216.412C85.5547 212.683 93.9109 211.246 102.144 212.286C110.378 213.325 118.115 216.793 124.369 222.247C130.623 227.702 135.111 234.895 137.261 242.911C139.41 250.926 139.123 259.4 136.437 267.252C133.751 275.104 128.787 281.978 122.178 286.997Z" fill="#3F3D56"/>
<path d="M97.1622 426.591C106.725 426.591 114.477 418.839 114.477 409.276C114.477 399.714 106.725 391.962 97.1622 391.962C87.5996 391.962 79.8477 399.714 79.8477 409.276C79.8477 418.839 87.5996 426.591 97.1622 426.591Z" fill="#2F2E41"/>
<path d="M83.6459 399.94C86.4438 397.142 87.0109 393.173 84.9124 391.075C82.8139 388.976 78.8446 389.543 76.0466 392.341C73.2487 395.139 72.6816 399.108 74.7801 401.207C76.8786 403.305 80.8479 402.738 83.6459 399.94Z" fill="#2F2E41"/>
<path d="M115.208 394.442C116.374 391.713 114.369 388.241 110.73 386.686C107.091 385.132 103.197 386.084 102.031 388.813C100.865 391.542 102.87 395.015 106.509 396.569C110.147 398.124 114.042 397.171 115.208 394.442Z" fill="#2F2E41"/>
<path d="M117.873 442.862L115.833 439.652C114.967 437.718 113.371 436.206 111.393 435.447C109.415 434.688 107.217 434.744 105.28 435.603C103.343 436.462 101.825 438.053 101.059 440.028C100.293 442.003 100.341 444.202 101.193 446.142L101.773 448.222L102.433 450.582C105.106 450.244 107.743 449.669 110.313 448.862C110.321 448.861 110.328 448.857 110.333 448.852C112.233 448.25 114.088 447.515 115.883 446.652C115.893 446.642 115.903 446.642 115.913 446.632C116.313 446.442 116.703 446.242 117.103 446.042C117.168 446.012 117.232 445.979 117.293 445.942C117.613 445.782 117.933 445.612 118.243 445.442C118.563 445.272 118.873 445.092 119.173 444.902L117.873 442.862Z" fill="#CACACA"/>
<path d="M97.7103 428.104C105.826 428.104 112.405 421.525 112.405 413.41C112.405 405.294 105.826 398.715 97.7103 398.715C89.5947 398.715 83.0156 405.294 83.0156 413.41C83.0156 421.525 89.5947 428.104 97.7103 428.104Z" fill="#FFB6B6"/>
<path d="M118.933 442.232C117.312 439.537 115.3 437.097 112.963 434.992C111.362 433.562 109.29 432.772 107.143 432.772H86.4425C85.2498 432.772 84.0695 433.016 82.9748 433.49C81.8801 433.963 80.8942 434.657 80.0779 435.526C79.2616 436.396 78.6323 437.424 78.2289 438.546C77.8255 439.669 77.6566 440.862 77.7326 442.052C77.7777 442.724 77.8986 443.388 78.0929 444.032C78.2405 444.499 78.4243 444.954 78.6427 445.392L79.6627 447.432C79.7428 447.462 79.8229 447.502 79.9024 447.532C79.9224 447.542 79.9327 447.542 79.9425 447.552C80.3624 447.722 80.7828 447.892 81.2124 448.052C82.6197 448.59 84.0552 449.051 85.5127 449.432C87.8589 450.062 90.2539 450.494 92.6724 450.722C94.0826 450.852 95.4927 450.922 96.9126 450.922C98.3228 450.922 99.7026 450.852 101.083 450.722C101.533 450.682 101.982 450.632 102.433 450.582C105.105 450.245 107.742 449.669 110.313 448.862C110.32 448.862 110.327 448.858 110.333 448.852C112.232 448.251 114.087 447.516 115.883 446.652C115.893 446.642 115.902 446.642 115.913 446.632C116.313 446.442 116.703 446.242 117.103 446.042C117.168 446.013 117.231 445.98 117.293 445.942C117.612 445.782 117.933 445.612 118.243 445.442C118.563 445.272 118.872 445.092 119.172 444.902C119.493 444.732 119.793 444.542 120.103 444.352C119.723 443.602 119.333 442.902 118.933 442.232Z" fill="#CACACA"/>
<path d="M90.1914 435.452C88.2758 434.556 86.0833 434.455 84.0933 435.17C82.1033 435.886 80.4777 437.361 79.5718 439.272L77.7314 442.052L76.8516 443.382L75.5117 445.402C75.7915 445.552 76.0615 445.702 76.3418 445.852L76.7114 446.042C77.5718 446.482 78.4414 446.902 79.3418 447.292C79.4414 447.342 79.5518 447.382 79.6616 447.432C79.7417 447.462 79.8218 447.502 79.9014 447.532C79.9214 447.542 79.9317 447.542 79.9414 447.552C80.3613 447.722 80.7817 447.892 81.2114 448.052C82.6186 448.59 84.0542 449.051 85.5117 449.432C87.8578 450.062 90.2528 450.493 92.6713 450.722L93.3715 448.352L94.0517 446.092C94.9482 444.169 95.0452 441.968 94.3215 439.974C93.5978 437.979 92.1125 436.353 90.1914 435.452Z" fill="#CACACA"/>
<path d="M82.2695 404.167C85.6275 406.481 89.6131 407.713 93.6913 407.697C92.2366 408.705 90.5805 409.387 88.837 409.694C94.2594 410.857 99.8634 410.888 105.298 409.786C106.507 409.592 107.672 409.192 108.744 408.603C109.279 408.304 109.744 407.897 110.111 407.407C110.477 406.917 110.736 406.355 110.871 405.758C111.233 403.695 109.625 401.82 107.954 400.557C105.396 398.652 102.447 397.34 99.3193 396.715C96.1919 396.09 92.9647 396.168 89.8711 396.943C87.8099 397.358 85.9342 398.418 84.5155 399.97C83.829 400.76 83.4146 401.749 83.3335 402.792C83.2524 403.836 83.5088 404.877 84.0649 405.764L82.2695 404.167Z" fill="#2F2E41"/>
<path d="M138.652 392.202C136.539 386.131 133.127 380.594 128.655 375.977C124.182 371.36 118.757 367.774 112.756 365.47C106.755 363.165 100.324 362.198 93.9108 362.634C87.4976 363.071 81.2569 364.901 75.6238 367.998C69.9908 371.094 65.101 375.382 61.2955 380.563C57.4901 385.743 54.8605 391.692 53.5903 397.993C52.32 404.294 52.4396 410.797 53.9408 417.047C55.4419 423.297 58.2885 429.145 62.2819 434.182C62.6716 434.682 63.092 435.182 63.5119 435.662C63.536 435.697 63.5628 435.731 63.592 435.762C64.6276 436.953 65.7293 438.084 66.8918 439.152C67.1916 439.432 67.5017 439.722 67.822 439.992C68.4216 440.532 69.0417 441.042 69.6916 441.532C69.9416 441.732 70.1916 441.932 70.4519 442.122C71.4616 442.892 72.5217 443.602 73.6018 444.292C73.6203 444.292 73.638 444.299 73.6516 444.312C73.9616 444.502 74.2819 444.692 74.6018 444.872C74.9016 445.052 75.2116 445.232 75.5119 445.402C75.7917 445.552 76.0617 445.702 76.342 445.852L76.7116 446.042C77.572 446.482 78.4416 446.902 79.342 447.292C79.4416 447.342 79.552 447.382 79.6618 447.432C79.7419 447.462 79.822 447.502 79.9016 447.532C79.9216 447.542 79.9318 447.542 79.9415 447.552C80.3615 447.722 80.7819 447.892 81.2116 448.052C82.6188 448.59 84.0544 449.05 85.5119 449.432C87.858 450.062 90.253 450.493 92.6715 450.722C94.0817 450.852 95.4918 450.922 96.9118 450.922C98.3219 450.922 99.7018 450.852 101.082 450.722C101.532 450.682 101.982 450.632 102.432 450.582C105.104 450.244 107.742 449.669 110.312 448.862C110.319 448.861 110.326 448.857 110.332 448.852C112.231 448.25 114.086 447.515 115.882 446.652C115.892 446.642 115.901 446.642 115.912 446.632C116.312 446.442 116.702 446.242 117.102 446.042C117.167 446.012 117.23 445.979 117.292 445.942C117.611 445.782 117.932 445.612 118.242 445.442C118.562 445.272 118.872 445.092 119.171 444.902C119.492 444.732 119.792 444.542 120.102 444.352C120.262 444.252 120.422 444.152 120.582 444.052C120.802 443.922 121.002 443.792 121.222 443.642C121.522 443.452 121.822 443.242 122.111 443.032C122.502 442.762 122.892 442.482 123.272 442.192C123.4 442.108 123.523 442.018 123.642 441.922C131.068 436.277 136.519 428.428 139.215 419.497C141.911 410.567 141.714 401.013 138.652 392.202ZM122.182 439.992C121.922 440.202 121.652 440.402 121.382 440.582C121.111 440.782 120.852 440.972 120.582 441.152C120.352 441.312 120.122 441.472 119.882 441.622C119.86 441.641 119.837 441.657 119.812 441.672C119.642 441.792 119.462 441.902 119.292 442.012C119.172 442.082 119.052 442.162 118.932 442.232C118.582 442.452 118.232 442.662 117.872 442.862C117.682 442.982 117.482 443.092 117.292 443.202C117.222 443.242 117.152 443.282 117.082 443.322C116.772 443.492 116.472 443.642 116.172 443.802C116.132 443.832 116.082 443.842 116.052 443.872C116.033 443.872 116.015 443.879 116.002 443.892C115.622 444.092 115.232 444.282 114.842 444.462C113.34 445.184 111.794 445.809 110.212 446.332C110.012 446.402 109.802 446.482 109.602 446.542C107.051 447.351 104.429 447.913 101.772 448.222C101.472 448.262 101.162 448.292 100.852 448.322C99.5519 448.442 98.2419 448.502 96.9118 448.502C95.7316 448.502 94.5417 448.452 93.3718 448.352C90.9258 448.148 88.503 447.726 86.132 447.092C84.3272 446.621 82.5592 446.02 80.842 445.292C80.7517 445.252 80.6619 445.222 80.572 445.182C80.4719 445.142 80.3918 445.112 80.302 445.072C80.2019 445.032 80.1218 444.992 80.0217 444.942C79.3718 444.662 78.7219 444.352 78.0921 444.032C78.0017 443.982 77.9119 443.942 77.8221 443.892L77.472 443.712C77.262 443.602 77.052 443.492 76.8519 443.382C76.1819 443.022 75.5218 442.632 74.8821 442.232C74.6419 442.082 74.3821 441.922 74.1419 441.762L73.9617 441.642C73.4017 441.262 72.8421 440.882 72.2918 440.472C71.9217 440.192 71.5418 439.922 71.1819 439.632C70.5721 439.172 69.9817 438.682 69.4119 438.172C69.1116 437.922 68.8119 437.642 68.5321 437.382C67.406 436.344 66.3409 435.242 65.3421 434.082C65.012 433.702 64.682 433.322 64.3719 432.922C64.3021 432.842 64.242 432.762 64.1717 432.672C59.0163 426.167 55.9151 418.275 55.2637 410C54.6122 401.726 56.4399 393.446 60.5138 386.214C64.5877 378.983 70.723 373.129 78.1374 369.399C85.5517 365.669 93.9091 364.232 102.144 365.271C110.378 366.31 118.116 369.779 124.372 375.233C130.627 380.688 135.116 387.883 137.266 395.899C139.416 403.916 139.129 412.391 136.443 420.244C133.756 428.097 128.791 434.972 122.182 439.992Z" fill="#3F3D56"/>
<path d="M170.846 176.29C155.458 163.305 136.628 155.073 116.646 152.595C96.6653 150.117 76.3948 153.501 58.3014 162.333C40.208 171.166 25.072 185.067 14.735 202.345C4.39813 219.623 -0.693957 239.533 0.0784266 259.653C0.850811 279.772 7.45435 299.233 19.0855 315.668C30.7167 332.103 46.874 344.803 65.5912 352.222C84.3085 359.642 104.779 361.461 124.511 357.458C144.244 353.456 162.387 343.804 176.734 329.678L304.135 437.178C306.074 438.808 308.581 439.603 311.105 439.388C313.63 439.173 315.966 437.966 317.602 436.031C319.238 434.096 320.04 431.592 319.832 429.066C319.624 426.541 318.423 424.202 316.493 422.56L316.479 422.548L189.079 315.049C203.879 293.808 210.213 267.805 206.84 242.137C203.467 216.469 190.631 192.986 170.846 176.29ZM162.633 304.697C152.708 316.46 139.518 325.015 124.73 329.281C109.943 333.547 94.223 333.332 79.5578 328.664C64.8926 323.996 51.941 315.083 42.3409 303.054C32.7408 291.025 26.9233 276.419 25.6241 261.084C24.3249 245.749 27.6023 230.373 35.042 216.9C42.4816 203.427 53.7492 192.463 67.42 185.394C81.0909 178.325 96.5509 175.469 111.845 177.187C127.139 178.904 141.581 185.118 153.343 195.044C169.116 208.353 178.956 227.382 180.698 247.946C182.44 268.51 175.942 288.924 162.633 304.697Z" fill="#3F3D56"/>
<path opacity="0.3" d="M52.9795 313.986C38.0516 301.389 28.407 283.638 25.9608 264.259C23.5147 244.88 28.4458 225.29 39.7751 209.378C38.2873 210.876 36.8489 212.446 35.4601 214.086C28.8701 221.896 23.8829 230.927 20.7833 240.664C17.6837 250.402 16.5323 260.654 17.395 270.836C18.2576 281.019 21.1173 290.931 25.8109 300.009C30.5045 309.086 36.9399 317.149 44.7499 323.739C52.5598 330.329 61.5913 335.317 71.3286 338.416C81.0659 341.516 91.3184 342.667 101.501 341.804C111.683 340.942 121.596 338.082 130.673 333.389C139.75 328.695 147.814 322.259 154.404 314.45C155.789 312.807 157.094 311.126 158.318 309.404C144.539 323.249 126.058 331.405 106.543 332.254C87.0287 333.103 67.9087 326.582 52.9795 313.986Z" fill="black"/>
<path d="M427.684 441.196C428.68 439.981 429.396 438.563 429.784 437.041C430.172 435.519 430.221 433.931 429.928 432.388C429.636 430.845 429.008 429.385 428.091 428.11C427.173 426.836 425.986 425.778 424.616 425.012L401.394 329.963L384.453 335.371L409.529 429.771C408.394 432.159 408.175 434.881 408.913 437.42C409.65 439.959 411.294 442.14 413.532 443.548C415.77 444.956 418.447 445.495 421.055 445.061C423.663 444.628 426.022 443.253 427.684 441.196Z" fill="#FFB6B6"/>
<path d="M415.682 380.399L403.302 391.079L385.982 406.01L378.332 366.87L377.532 362.8L376.902 359.57L394.452 329L409.082 329.839L410.082 329.899L410.102 330.12L410.332 332.17L413.332 359.149L413.402 359.8L415.682 380.399Z" fill="#BF0707"/>
<path d="M334.764 646.074L322.505 646.073L316.672 598.785L334.767 598.786L334.764 646.074Z" fill="#FFB6B6"/>
<path d="M337.89 657.958L298.359 657.957V657.457C298.36 653.376 299.981 649.462 302.866 646.577C305.752 643.692 309.665 642.071 313.746 642.07H313.747L337.891 642.071L337.89 657.958Z" fill="#2F2E41"/>
<path d="M462.764 647.074L450.505 647.073L444.672 599.785L462.767 599.786L462.764 647.074Z" fill="#FFB6B6"/>
<path d="M465.89 658.958L426.359 658.957V658.457C426.36 654.376 427.981 650.462 430.866 647.577C433.752 644.692 437.665 643.071 441.746 643.07H441.747L465.891 643.071L465.89 658.958Z" fill="#2F2E41"/>
<path d="M472.562 628.25L439.562 633.25L391.553 470.77L340.562 634.25L303.562 629.25L351.562 439.25V424.25L358.062 401.75L357.382 395.66L352.652 353.07L350.603 334.6L350.47 333.407C350.358 332.406 350.623 331.399 351.214 330.582C351.804 329.766 352.677 329.198 353.663 328.99L369.062 325.75H394.232L409.083 329.84L410.103 330.12L410.562 330.25L410.333 332.17L406.853 361.35L406.663 362.95L403.302 391.08L402.562 397.25C431.562 418.25 432.562 439.25 432.562 439.25L472.562 628.25Z" fill="#2F2E41"/>
<path d="M378.606 313.098C392.171 313.098 403.167 302.101 403.167 288.537C403.167 274.972 392.171 263.976 378.606 263.976C365.041 263.976 354.045 274.972 354.045 288.537C354.045 302.101 365.041 313.098 378.606 313.098Z" fill="#FFB6B6"/>
<path d="M404.403 391.605L355.816 397.959L356.724 404.9L405.311 398.546L404.403 391.605Z" fill="#BF0707"/>
<path d="M290.644 400.052C291.108 400.352 291.549 400.689 291.96 401.059L340.017 388.808L343.295 377.215L361.438 379.876L357.629 400.964C357.321 402.667 356.469 404.225 355.201 405.403C353.932 406.581 352.316 407.316 350.594 407.497L294.483 413.407C293.568 415.332 292.089 416.933 290.243 417.998C288.396 419.062 286.268 419.539 284.144 419.365C282.019 419.191 279.998 418.374 278.349 417.024C276.7 415.673 275.501 413.852 274.913 411.803C274.324 409.755 274.372 407.575 275.052 405.555C275.732 403.534 277.011 401.769 278.719 400.493C280.427 399.218 282.482 398.492 284.613 398.413C286.743 398.334 288.846 398.906 290.644 400.052Z" fill="#FFB6B6"/>
<path d="M364.562 335.25L356.062 328.75C353.764 327.878 350.615 330.355 350.062 332.75L338.062 381.75L363.062 399.75L366.562 394.25L364.562 335.25Z" fill="#BF0707"/>
<g opacity="0.2">
<path d="M413.332 359.15C411.211 359.992 409.048 360.726 406.852 361.35C406.152 361.56 405.432 361.76 404.722 361.95C400.042 363.248 395.233 364.026 390.382 364.27C388.294 364.358 386.202 364.301 384.122 364.1C381.889 363.877 379.682 363.442 377.532 362.8C377.462 362.78 377.382 362.76 377.312 362.74C372.841 361.47 368.741 359.141 365.362 355.95C364.607 355.215 363.902 354.43 363.252 353.6C361.385 351.313 360.015 348.662 359.23 345.816C358.444 342.969 358.261 339.991 358.692 337.07C358.776 336.541 358.889 336.016 359.032 335.5C359.409 334.093 359.907 332.721 360.522 331.4C360.792 330.78 361.092 330.17 361.412 329.57L372.712 325.75H394.232L409.082 329.84L410.082 329.9L410.102 330.12L410.562 330.25L410.332 332.17L413.332 359.15Z" fill="black"/>
</g>
<path d="M359.785 268.203C355.191 267.64 350.151 268.038 346.57 270.971C342.99 273.903 341.835 279.999 345.225 283.149C348.225 285.938 352.918 285.282 356.937 286.075C360.4 286.851 363.502 288.767 365.747 291.515C367.992 294.262 369.251 297.684 369.321 301.232C369.261 311.406 359.497 319.111 357.743 329.133C356.546 335.973 359.431 343.171 364.418 348.002C369.405 352.834 376.261 355.445 383.169 356.152C390.076 356.86 397.061 355.779 403.774 354.005C410.516 352.222 417.152 349.694 422.809 345.617C428.465 341.539 433.102 335.791 434.918 329.059C436.734 322.327 435.43 314.608 430.75 309.439C425.391 303.52 416.476 301.485 411.84 294.983C406.644 287.696 408.567 277.317 404.361 269.416C401.553 264.141 396.237 260.543 390.569 258.647C384.902 256.752 378.85 256.378 372.877 256.194C369.738 256.098 366.502 256.066 363.577 257.21C360.652 258.355 358.08 260.964 357.929 264.101C357.777 267.238 359.785 268.203 359.785 268.203Z" fill="#2F2E41"/>
<path d="M589.725 659.362H208.725C208.459 659.362 208.205 659.257 208.018 659.069C207.83 658.882 207.725 658.628 207.725 658.362C207.725 658.097 207.83 657.843 208.018 657.655C208.205 657.468 208.459 657.362 208.725 657.362H589.725C589.99 657.362 590.244 657.468 590.432 657.655C590.619 657.843 590.725 658.097 590.725 658.362C590.725 658.628 590.619 658.882 590.432 659.069C590.244 659.257 589.99 659.362 589.725 659.362Z" fill="#CACACA"/>
</svg>
