<svg width="3000" height="560" viewBox="0 0 3000 560" fill="none" xmlns="http://www.w3.org/2000/svg">
<path d="M2854.03 266.504C2877.24 252.932 2908.16 250.096 2930.51 265.031C2902.61 273.743 2878.68 292.045 2862.97 316.699C2856.94 326.229 2851.23 337.457 2840.53 341.011C2833.88 343.222 2826.45 341.859 2820.12 338.816C2813.8 335.773 2808.38 331.176 2803.04 326.63L2801.33 326.236C2814.25 302.656 2830.82 280.076 2854.03 266.504Z" fill="#F0F0F0"/>
<path d="M2930.27 265.538C2908.08 263.855 2885.92 269.205 2866.95 280.83C2862.82 283.26 2859.1 286.326 2855.93 289.915C2852.95 293.51 2850.98 297.838 2850.24 302.449C2849.47 306.733 2849.17 311.206 2847.36 315.228C2846.41 317.272 2845.03 319.092 2843.32 320.568C2841.62 322.043 2839.62 323.141 2837.45 323.79C2832.11 325.545 2826.45 325.276 2820.93 324.821C2814.8 324.316 2808.44 323.693 2802.57 325.975C2801.86 326.252 2801.47 325.132 2802.18 324.856C2812.4 320.886 2823.35 325.369 2833.84 323.48C2838.73 322.599 2843.39 320.237 2845.81 315.708C2847.92 311.747 2848.23 307.135 2848.98 302.79C2849.64 298.282 2851.39 294.003 2854.08 290.327C2857.06 286.589 2860.66 283.385 2864.71 280.853C2873.75 275.006 2883.66 270.618 2894.06 267.849C2905.92 264.622 2918.24 263.447 2930.5 264.375C2931.25 264.433 2931.02 265.595 2930.27 265.538Z" fill="white"/>
<path d="M2872.84 276.728C2871.32 273.28 2871.08 269.405 2872.15 265.794C2873.23 262.183 2875.55 259.072 2878.71 257.016C2879.35 256.602 2880.02 257.578 2879.38 257.992C2876.44 259.901 2874.27 262.799 2873.28 266.164C2872.28 269.528 2872.53 273.137 2873.96 276.34C2874.27 277.036 2873.15 277.421 2872.84 276.728Z" fill="white"/>
<path d="M2850.35 300.224C2857.5 303.078 2865.47 303.131 2872.66 300.372C2873.37 300.098 2873.76 301.218 2873.05 301.491C2865.56 304.348 2857.27 304.277 2849.83 301.291C2849.13 301.005 2849.65 299.941 2850.35 300.224Z" fill="white"/>
<path d="M2905.7 266.177C2906.01 267.633 2906.67 268.99 2907.64 270.126C2908.6 271.261 2909.83 272.139 2911.22 272.682C2911.93 272.958 2911.41 274.022 2910.7 273.748C2909.17 273.142 2907.81 272.17 2906.75 270.918C2905.68 269.666 2904.93 268.171 2904.58 266.565C2904.53 266.417 2904.54 266.256 2904.61 266.116C2904.68 265.976 2904.8 265.867 2904.94 265.811C2905.09 265.761 2905.25 265.77 2905.4 265.839C2905.54 265.907 2905.65 266.029 2905.7 266.177Z" fill="white"/>
<path d="M2939.78 355.58C2939.33 355.421 2938.88 355.261 2938.42 355.107C2932.37 352.992 2926.15 351.371 2919.84 350.262C2919.35 350.169 2918.85 350.081 2918.37 350.002C2903.12 347.493 2887.54 347.836 2872.42 351.014C2866.4 352.284 2860.49 354.01 2854.74 356.177C2846.79 359.169 2838.42 363.047 2830.19 363.234C2829.33 363.264 2828.47 363.24 2827.61 363.162L2800.99 328.348C2800.97 328.239 2800.94 328.135 2800.92 328.025L2799.79 326.683C2800.08 326.551 2800.38 326.42 2800.67 326.287C2800.84 326.21 2801.01 326.14 2801.18 326.062C2801.29 326.013 2801.4 325.964 2801.5 325.913C2801.54 325.897 2801.58 325.881 2801.61 325.87C2801.71 325.819 2801.81 325.783 2801.9 325.738C2803.59 325 2805.28 324.272 2806.99 323.555C2807 323.549 2807 323.549 2807.01 323.551C2820.02 318.122 2833.59 313.732 2847.4 311.542C2847.82 311.476 2848.24 311.404 2848.67 311.354C2854.9 310.401 2861.2 309.959 2867.5 310.032C2870.95 310.083 2874.4 310.309 2877.83 310.709C2886.68 311.759 2895.32 314.195 2903.42 317.928C2919.56 325.372 2933.14 337.896 2939.32 354.321C2939.48 354.741 2939.63 355.154 2939.78 355.58Z" fill="#F0F0F0"/>
<path d="M2939.28 355.84C2922.58 341.137 2901.66 332.071 2879.52 329.929C2874.76 329.384 2869.94 329.592 2865.24 330.546C2860.7 331.623 2856.53 333.897 2853.16 337.132C2849.96 340.085 2847.03 343.477 2843.17 345.6C2841.17 346.658 2838.98 347.283 2836.73 347.433C2834.48 347.583 2832.22 347.256 2830.1 346.472C2824.78 344.657 2820.42 341.037 2816.29 337.349C2811.7 333.254 2807 328.928 2800.93 327.215C2800.2 327.008 2800.56 325.881 2801.3 326.088C2811.84 329.067 2817.89 339.242 2827.4 344.049C2831.84 346.292 2836.98 347.211 2841.64 345.048C2845.71 343.157 2848.73 339.662 2851.95 336.644C2855.19 333.44 2859.16 331.078 2863.52 329.764C2868.15 328.574 2872.95 328.18 2877.72 328.601C2888.46 329.376 2899.01 331.836 2908.98 335.889C2920.39 340.451 2930.94 346.932 2940.16 355.05C2940.73 355.553 2939.85 356.34 2939.28 355.84Z" fill="white"/>
<path d="M2886.69 330.199C2887.55 326.532 2889.69 323.291 2892.72 321.056C2895.76 318.82 2899.48 317.735 2903.24 317.995C2903.4 318.007 2903.54 318.078 2903.64 318.193C2903.74 318.308 2903.8 318.458 2903.79 318.612C2903.78 318.765 2903.72 318.91 2903.61 319.016C2903.49 319.122 2903.35 319.18 2903.19 319.179C2899.69 318.931 2896.22 319.941 2893.4 322.029C2890.58 324.117 2888.6 327.143 2887.82 330.563C2887.64 331.306 2886.52 330.938 2886.69 330.199Z" fill="white"/>
<path d="M2854.59 335.421C2858.58 342.007 2864.91 346.845 2872.31 348.971C2873.05 349.181 2872.68 350.309 2871.95 350.099C2864.25 347.872 2857.67 342.823 2853.53 335.961C2853.14 335.307 2854.19 334.77 2854.59 335.421Z" fill="white"/>
<path d="M2919.28 341.559C2918.65 342.908 2918.36 344.393 2918.45 345.879C2918.53 347.366 2918.99 348.808 2919.77 350.076C2920.17 350.725 2919.11 351.261 2918.71 350.616C2917.86 349.211 2917.36 347.618 2917.26 345.976C2917.16 344.333 2917.47 342.692 2918.15 341.195C2918.2 341.048 2918.31 340.927 2918.44 340.856C2918.58 340.785 2918.74 340.77 2918.89 340.813C2919.04 340.862 2919.17 340.968 2919.24 341.107C2919.31 341.247 2919.32 341.409 2919.28 341.559Z" fill="white"/>
<path d="M2701.38 213.737C2702.83 213.527 2704.32 213.639 2705.72 214.064C2707.13 214.49 2708.43 215.219 2709.52 216.2C2710.62 217.181 2711.48 218.39 2712.06 219.742C2712.64 221.094 2712.91 222.557 2712.86 224.026L2746.21 236.863L2731.1 247.658L2701.75 233.813C2699.29 233.567 2697 232.426 2695.32 230.606C2693.64 228.786 2692.69 226.414 2692.65 223.94C2692.6 221.465 2693.46 219.06 2695.07 217.179C2696.68 215.299 2698.93 214.074 2701.38 213.737Z" fill="#FFB6B6"/>
<path d="M2828.01 207.436L2833.65 217.693C2832.29 224.199 2828.76 230.053 2823.65 234.303C2815.01 241.588 2769.85 268.721 2769.85 268.721L2712.83 240.095L2722.8 226.84L2767.57 241.843L2792.82 217.996L2828.01 207.436Z" fill="#3F3D56"/>
<path d="M2833.19 368.285L2827.29 369.396L2862.84 558.075L2868.74 556.964L2833.19 368.285Z" fill="#CACACA"/>
<path d="M2774.5 556.964L2780.4 558.075L2815.95 369.395L2810.05 368.284L2774.5 556.964Z" fill="#CACACA"/>
<path d="M2817.52 377.174C2842.09 377.174 2862.02 370.682 2862.02 362.674C2862.02 354.666 2842.09 348.174 2817.52 348.174C2792.94 348.174 2773.02 354.666 2773.02 362.674C2773.02 370.682 2792.94 377.174 2817.52 377.174Z" fill="#CACACA"/>
<path d="M2723 546.191L2710.74 546.19L2704.91 498.902L2723 498.903L2723 546.191Z" fill="#FFB6B6"/>
<path d="M2726.13 558.075L2686.6 558.074V557.574C2686.6 553.493 2688.22 549.58 2691.1 546.694C2693.99 543.809 2697.9 542.188 2701.98 542.188L2726.13 542.188L2726.13 558.075Z" fill="#2F2E41"/>
<path d="M2782.51 481.85L2771.81 487.819L2743.69 449.355L2759.49 440.545L2782.51 481.85Z" fill="#FFB6B6"/>
<path d="M2791.03 490.707L2756.5 509.954L2756.26 509.517C2754.27 505.953 2753.78 501.745 2754.9 497.82C2756.01 493.895 2758.64 490.573 2762.21 488.586L2783.3 476.83L2791.03 490.707Z" fill="#2F2E41"/>
<path d="M2852.15 327.223C2852.15 327.223 2858.09 345.64 2821.62 368.931L2774.65 415.737L2725.84 532.486L2696.87 519.496L2741.42 400.554L2767.48 354.93L2768.24 330.174L2774.65 312.723L2821.15 296.223L2852.15 327.223Z" fill="#2F2E41"/>
<path d="M2756.78 481.084L2708.3 407.993C2706.07 404.629 2705.08 400.596 2705.51 396.585C2705.93 392.574 2707.74 388.835 2710.62 386.012L2759.71 337.997L2768.03 329.674H2786.65L2777.92 361.895L2747.62 396.238L2782.65 458.216L2756.78 481.084Z" fill="#2F2E41"/>
<path d="M2792.41 227.08L2807.01 206.174L2840.39 203.488C2840.39 203.488 2869.09 230.524 2863.87 266.123C2858.65 301.723 2853.65 336.723 2853.65 336.723C2853.65 336.723 2801.65 299.723 2774.65 312.723L2792.41 227.08Z" fill="#3F3D56"/>
<path d="M2782.49 336.148C2782.75 334.701 2783.32 333.328 2784.17 332.126C2785.02 330.924 2786.12 329.923 2787.39 329.192C2788.67 328.462 2790.09 328.02 2791.55 327.898C2793.02 327.775 2794.49 327.976 2795.87 328.485L2818.55 300.869L2824.04 318.608L2801.66 342.113C2800.65 344.373 2798.85 346.185 2796.6 347.205C2794.34 348.224 2791.79 348.382 2789.43 347.646C2787.06 346.911 2785.05 345.334 2783.77 343.215C2782.5 341.096 2782.04 338.581 2782.49 336.148Z" fill="#FFB6B6"/>
<path d="M2811.04 334.353L2801.05 319.925L2829.42 282.106L2814.81 250.795L2815.87 213.551L2827.94 211.32L2828.09 211.395C2833.96 214.774 2838.5 220.06 2840.95 226.374C2843.97 233.904 2850.69 262.173 2854.43 278.353C2855.16 281.488 2855.08 284.759 2854.2 287.855C2853.31 290.95 2851.64 293.767 2849.36 296.037L2811.04 334.353Z" fill="#3F3D56"/>
<path d="M2836.51 187.877C2843.01 176.942 2839.41 162.807 2828.48 156.307C2817.54 149.807 2803.41 153.402 2796.91 164.337C2790.41 175.272 2794 189.406 2804.94 195.906C2815.87 202.407 2830.01 198.812 2836.51 187.877Z" fill="#FFB6B6"/>
<path d="M2831.43 167.836C2831.19 171.181 2834.32 183.514 2834.32 183.514C2836.62 179.646 2833.01 192.499 2833.01 192.499C2870.74 166.199 2840.93 139.776 2829.27 142.125C2829.51 138.78 2820 140.105 2820 140.105C2816.38 134.461 2808.43 141.953 2808.43 141.953L2809.97 139.374C2803.8 140.943 2797.71 160.001 2797.71 160.001C2799.8 168.223 2831.67 164.492 2831.43 167.836Z" fill="#2F2E41"/>
<path d="M2994.5 559.38H5.48227C4.0268 559.379 2.63235 559.253 1.60467 559.03C0.576992 558.807 0 558.505 0 558.19C0 557.875 0.576992 557.573 1.60467 557.35C2.63235 557.127 4.0268 557.001 5.48227 557H2994.5C2995.96 557 2997.36 557.125 2998.39 557.349C2999.42 557.572 3000 557.874 3000 558.19C3000 558.506 2999.42 558.808 2998.39 559.031C2997.36 559.255 2995.96 559.38 2994.5 559.38Z" fill="#CACACA"/>
<path d="M913.999 0.339844H314.256V384.442H913.999V0.339844Z" fill="#E6E6E6"/>
<path d="M896.851 48.5156H331.406V361.718H896.851V48.5156Z" fill="white"/>
<path d="M913.743 0H314V25.4793H913.743V0Z" fill="black"/>
<path d="M332.935 17.7495C335.543 17.7495 337.658 15.6352 337.658 13.0271C337.658 10.419 335.543 8.30469 332.935 8.30469C330.327 8.30469 328.213 10.419 328.213 13.0271C328.213 15.6352 330.327 17.7495 332.935 17.7495Z" fill="white"/>
<path d="M350.859 17.7495C353.467 17.7495 355.581 15.6352 355.581 13.0271C355.581 10.419 353.467 8.30469 350.859 8.30469C348.251 8.30469 346.137 10.419 346.137 13.0271C346.137 15.6352 348.251 17.7495 350.859 17.7495Z" fill="white"/>
<path d="M368.785 17.7495C371.393 17.7495 373.507 15.6352 373.507 13.0271C373.507 10.419 371.393 8.30469 368.785 8.30469C366.177 8.30469 364.062 10.419 364.062 13.0271C364.062 15.6352 366.177 17.7495 368.785 17.7495Z" fill="white"/>
<path d="M511.569 74.2764H400.977V194.259H511.569V74.2764Z" fill="#E6E6E6"/>
<path d="M669.423 74.2764H558.83V194.259H669.423V74.2764Z" fill="#E6E6E6"/>
<path d="M827.276 74.2764H716.684V194.259H827.276V74.2764Z" fill="#E6E6E6"/>
<path d="M511.569 215.978H400.977V335.96H511.569V215.978Z" fill="#E6E6E6"/>
<path d="M669.423 215.978H558.83V335.96H669.423V215.978Z" fill="#E6E6E6"/>
<path d="M827.276 215.978H716.684V335.96H827.276V215.978Z" fill="#E6E6E6"/>
<path d="M443.935 146.827C454.259 146.827 462.629 138.458 462.629 128.133C462.629 117.808 454.259 109.438 443.935 109.438C433.61 109.438 425.24 117.808 425.24 128.133C425.24 138.458 433.61 146.827 443.935 146.827Z" fill="#FFB9B9"/>
<path d="M436.633 142.446C436.633 142.446 438.97 153.545 438.97 154.714C438.97 155.882 450.069 161.14 450.069 161.14L460.001 159.387L463.506 148.872C463.506 148.872 457.664 140.109 457.664 136.604L436.633 142.446Z" fill="#FFB9B9"/>
<path d="M427.723 113.071C427.723 113.071 433.658 100.211 445.034 103.179C456.411 106.147 462.841 110.598 463.335 115.05C463.83 119.501 463.088 126.179 463.088 126.179C463.088 126.179 461.851 117.028 453.938 119.007C446.024 120.985 433.658 119.501 433.658 119.501L431.68 137.308C431.68 137.308 429.454 134.093 426.981 136.071C424.508 138.05 419.809 117.028 427.723 113.071Z" fill="#2F2E41"/>
<path d="M503.23 189.766L498.561 168.731C496.218 161.72 490.382 155.883 490.382 155.883L461.572 145.751H461.564C461.508 148.298 460.65 150.762 459.111 152.792C457.573 154.822 455.433 156.315 452.996 157.058C444.23 159.972 438.195 150.149 438.195 150.149L413.841 168.731C413.841 168.731 406.25 175.163 406.837 187.432L406.029 194.26H505.477L503.23 189.766Z" fill="#BF0707"/>
<path d="M601.366 156.143C615.38 156.143 626.74 144.083 626.74 129.207C626.74 114.331 615.38 102.271 601.366 102.271C587.353 102.271 575.992 114.331 575.992 129.207C575.992 144.083 587.353 156.143 601.366 156.143Z" fill="#2F2E41"/>
<path d="M623.88 169.969C631.252 169.969 637.228 163.992 637.228 156.62C637.228 149.248 631.252 143.271 623.88 143.271C616.508 143.271 610.531 149.248 610.531 156.62C610.531 163.992 616.508 169.969 623.88 169.969Z" fill="#2F2E41"/>
<path d="M614.583 138.742L621.734 157.334L603.619 164.963L602.028 161.357L596.467 148.754L614.583 138.742Z" fill="#9F616A"/>
<path d="M600.281 150.899C609.102 150.899 616.252 143.749 616.252 134.929C616.252 126.108 609.102 118.958 600.281 118.958C591.461 118.958 584.311 126.108 584.311 134.929C584.311 143.749 591.461 150.899 600.281 150.899Z" fill="#9F616A"/>
<path d="M587.227 133.177C597.265 126.478 600.266 124.877 611.771 127.465L612.462 110.679L582.729 116.916L587.227 133.177Z" fill="#2F2E41"/>
<path d="M651.765 171.155L651.325 171.206C651.314 171.19 651.302 171.175 651.288 171.162C649.541 169.415 641.2 166.235 634.981 164.033H634.974C631.024 162.631 627.933 161.625 627.933 161.625L620.415 153.894C618.521 156.023 614.519 157.667 610.716 158.827C607.805 159.709 604.843 160.415 601.847 160.942H601.84L600.283 165.912C600.283 165.912 582.64 179.268 581.216 180.692H581.209V180.707C581.095 180.869 581.048 181.068 581.077 181.265V181.301C580.187 185.564 579.729 189.905 579.711 194.26H656.538V189.752C656.538 183.555 651.765 171.155 651.765 171.155Z" fill="#575A89"/>
<path d="M793.04 194.26H755.052L752.96 173.621L752.835 172.366L752.578 169.877L751.528 159.473L750.214 170.648L747.439 194.26H740.537L740.794 186.91L741.051 179.458L741.161 176.455L742.578 135.605C742.47 129.131 744.518 122.805 748.4 117.624C750.556 114.818 753.337 112.554 756.523 111.013C759.708 109.472 763.21 108.696 766.748 108.748C770.358 108.736 773.922 109.56 777.16 111.156C780.398 112.752 783.222 115.077 785.411 117.947C789.424 123.18 791.572 129.605 791.513 136.199L792.166 160.927L793.04 194.26Z" fill="#2F2E41"/>
<path d="M766.75 150.224C775.978 150.224 783.459 142.743 783.459 133.515C783.459 124.287 775.978 116.806 766.75 116.806C757.522 116.806 750.041 124.287 750.041 133.515C750.041 142.743 757.522 150.224 766.75 150.224Z" fill="#FBBEBE"/>
<path d="M758.393 145.448C758.393 145.448 763.167 161.561 758.393 166.335C753.619 171.109 752.426 172.899 752.426 172.899L766.151 191.398L790.021 162.157C790.021 162.157 773.312 157.383 777.489 144.255L758.393 145.448Z" fill="#FBBEBE"/>
<path d="M809.941 194.26H795.844L795.609 191.845L795.396 189.613L801.887 188.798L809.713 187.821L809.801 190.325L809.941 194.26Z" fill="#FBBEBE"/>
<path d="M810.907 190.205C810.907 190.205 808.52 175.287 806.73 169.319C804.94 163.352 803.15 163.352 803.15 163.352L803.149 163.35C801.042 161.243 795.976 160.869 792.166 160.927C789.493 160.957 787.437 161.192 787.437 161.192L766.153 183.644L755.434 169.393V169.385C754.468 169.46 753.512 169.625 752.578 169.877C751.774 170.082 750.984 170.34 750.214 170.648C746.894 172.067 743.834 174.03 741.161 176.456H741.154C739.612 177.843 738.701 178.864 738.701 178.864C736.34 183.772 734.561 188.939 733.4 194.26H801.608L801.762 191.191V191.185L810.907 190.205Z" fill="black"/>
<path d="M752.724 130.828C763.516 125.01 767.949 125.256 781.368 130.828L784.948 122.105C784.947 120.462 784.293 118.887 783.132 117.726C781.97 116.564 780.396 115.911 778.753 115.909H754.742C753.1 115.911 751.525 116.564 750.363 117.726C749.202 118.887 748.549 120.462 748.547 122.105L752.724 130.828Z" fill="#2F2E41"/>
<path d="M454.812 245.018C453.923 244.945 453.033 245.144 452.259 245.588C451.525 246.214 450.936 246.991 450.532 247.867C448.664 251.148 446.135 254.005 443.105 256.257C440.898 257.873 438.092 259.889 438.47 262.87C438.669 263.855 439.033 264.798 439.546 265.662C441.582 269.772 447.137 272.948 446.591 277.637C448.613 274.251 445.908 272.577 447.931 269.19C448.894 267.578 450.567 265.757 452.022 266.77C452.509 267.109 452.828 267.717 453.335 268.015C454.545 268.725 455.832 267.368 456.903 266.406C460.596 263.091 465.848 263.96 470.443 264.993C472.613 265.48 474.996 266.12 476.278 268.193C477.964 270.92 474.676 273.864 473.845 276.946C473.777 277.209 473.774 277.484 473.836 277.748C473.898 278.012 474.022 278.258 474.199 278.463C474.377 278.669 474.601 278.828 474.853 278.928C475.105 279.028 475.378 279.065 475.648 279.037C477.027 278.9 478.66 278.789 478.742 278.184C480.476 278.246 482.602 278.049 483.345 276.243C483.573 275.528 483.693 274.784 483.702 274.034C483.975 270.999 485.262 268.231 486.116 265.343C486.969 262.455 487.34 259.07 485.9 256.51C485.386 255.658 484.751 254.885 484.014 254.217C475.843 246.31 465.1 245.006 454.812 245.018Z" fill="#2F2E41"/>
<path d="M448.367 283.561C448.367 283.561 450.144 298.369 443.628 299.554C437.113 300.738 449.552 320.877 449.552 320.877L479.168 324.431L472.06 300.738C472.06 300.738 467.321 298.961 470.283 287.115C473.244 275.269 448.367 283.561 448.367 283.561Z" fill="#9F616A"/>
<path d="M461.694 293.334C471.507 293.334 479.463 285.379 479.463 275.565C479.463 265.751 471.507 257.795 461.694 257.795C451.88 257.795 443.924 265.751 443.924 275.565C443.924 285.379 451.88 293.334 461.694 293.334Z" fill="#9F616A"/>
<path d="M431.109 335.96C434.252 323.603 438.591 306.959 438.591 306.959C438.591 306.959 440.28 307.304 442.937 307.693C446.82 308.271 450.732 308.627 454.655 308.758C459.677 308.897 464.963 308.567 469.053 307.15C470.595 306.655 472.035 305.886 473.304 304.881C473.839 304.451 474.317 303.955 474.728 303.405C481.835 293.927 484.794 330.057 484.794 330.057L485.345 335.96L431.109 335.96Z" fill="black"/>
<path d="M487.885 374.139C487.65 374.139 487.415 374.146 487.18 374.161L487.517 373.529C487.635 373.728 487.752 373.933 487.885 374.139Z" fill="#FFB8B8"/>
<path d="M455.677 249.667C454.96 249.614 454.243 249.753 453.599 250.07C453.016 250.496 452.536 251.046 452.193 251.681C450.613 254.058 448.554 256.078 446.147 257.611C444.35 258.754 442.066 260.178 442.374 262.285C442.541 262.992 442.838 263.661 443.249 264.258C444.912 267.193 445.574 270.589 445.135 273.932L450.075 266.752C450.859 265.613 452.221 264.326 453.405 265.042C453.802 265.281 454.062 265.711 454.475 265.922C455.46 266.423 456.507 265.464 457.379 264.785C460.385 262.442 464.66 263.055 468.401 263.785C470.167 264.13 472.107 264.582 473.151 266.048C474.886 268.483 473.074 272.002 474.087 274.816C474.37 274.617 474.611 274.364 474.795 274.071C474.979 273.778 475.102 273.451 475.157 273.109C476.569 273.153 478.299 273.014 478.904 271.737C479.088 271.237 479.186 270.709 479.194 270.176C479.416 268.031 480.465 266.074 481.159 264.033C481.854 261.992 482.156 259.599 480.984 257.79C480.555 257.176 480.037 256.63 479.448 256.169C472.797 250.581 464.052 249.659 455.677 249.667Z" fill="#2F2E41"/>
<path d="M453.993 307.547C449.94 302.914 447.532 296.159 447.422 295.858V295.851C447.422 295.851 440.961 292.151 439.184 295.704C437.408 299.258 420.822 308.142 419.045 308.142C419.031 308.148 419.016 308.153 419.001 308.156C418.296 308.391 409.471 311.6 407.203 323.545C406.586 327.656 406.258 331.804 406.219 335.96H454.522C455.021 330.726 455.395 325.828 455.542 321.6C455.755 315.704 455.55 311.122 454.654 308.758C454.511 308.317 454.287 307.906 453.993 307.547Z" fill="#2F2E41"/>
<path d="M495.528 310.88C495.498 310.74 495.476 310.623 495.454 310.513C495.375 310.198 495.241 309.899 495.058 309.632C495.054 309.625 495.051 309.617 495.05 309.61C491.629 304.309 469.625 297.011 469.625 297.011L468.803 299.852C468.803 299.852 468.906 302.657 469.052 307.15C469.199 311.357 469.375 317.04 469.544 323.28C469.662 327.355 469.765 331.672 469.86 335.96H502.774C500.93 327.445 498.509 319.066 495.528 310.88Z" fill="#2F2E41"/>
<path d="M803.48 335.96L805.999 323.655L808.341 322.664L808.356 322.671C808.568 322.752 811.116 323.831 811.116 327.921C811.116 328.743 810.991 331.702 810.786 335.96H803.48Z" fill="#575A89"/>
<path d="M777.03 292.979C788.325 292.979 797.481 283.823 797.481 272.528C797.481 261.233 788.325 252.076 777.03 252.076C765.735 252.076 756.578 261.233 756.578 272.528C756.578 283.823 765.735 292.979 777.03 292.979Z" fill="#FFB8B8"/>
<path d="M789.811 284.459L788.106 319.397L761.689 304.058L765.098 284.459H789.811Z" fill="#FFB8B8"/>
<path d="M797.481 321.1L795.748 335.96H781.879L766.828 307.04L762.584 298.898L760.551 297.569L762.908 297.033L764.765 298.377L785.55 313.435L788.884 303.428L788.972 303.171L789.809 300.653L797.481 321.1Z" fill="black"/>
<path d="M764.673 252.502C764.673 252.502 767.23 239.72 781.716 242.277L780.012 243.129C780.012 243.129 793.647 241.424 791.942 249.094C791.942 249.094 803.02 255.911 800.464 263.58C798.961 268.025 797.821 272.585 797.055 277.215L794.499 274.658C794.499 274.658 791.942 257.615 776.604 259.32C765.1 260.598 760.413 266.03 759.214 269.945C758.663 271.785 757.958 273.577 757.109 275.3L756.152 275.51C756.152 275.51 751.039 256.763 764.673 252.502Z" fill="#2F2E41"/>
<path d="M808.354 322.672L808.34 322.664L797.481 312.576V305.763L789.096 299.155L788.972 303.171L788.105 330.476L774.163 311.299L764.765 298.377L763.076 296.064L763.487 293.898L758.282 299.794L739.442 313.927L737.827 315.139C735.974 316.993 734.266 318.986 732.717 321.101C732.211 321.857 729.905 327.877 726.902 335.961H810.785C810.99 331.702 811.115 328.744 811.115 327.921C811.115 323.832 808.567 322.752 808.354 322.672Z" fill="#2F2E41"/>
<path d="M612.443 250.063C598.584 250.063 587.35 262.531 587.35 277.911V297.452H593.359L596.839 290.212L595.969 297.452H634.597L637.76 290.87L636.97 297.452H641.319V282.109C641.319 264.411 628.391 250.063 612.443 250.063Z" fill="#2F2E41"/>
<path d="M592.192 335.96H575.87L575.716 322.649C575.709 322.509 575.709 322.377 575.709 322.238L578.976 318.559L579.035 318.493L591.509 326.393L592.192 335.96Z" fill="#D0CDE1"/>
<path d="M610.223 294.722C620.089 294.722 628.087 286.724 628.087 276.858C628.087 266.992 620.089 258.994 610.223 258.994C600.357 258.994 592.359 266.992 592.359 276.858C592.359 286.724 600.357 294.722 610.223 294.722Z" fill="#FBBEBE"/>
<path d="M599.98 287.576C599.98 287.576 605.221 314.73 602.839 317.588C600.457 320.446 628.086 312.348 628.086 312.348C628.086 312.348 619.035 293.769 623.799 283.289L599.98 287.576Z" fill="#FBBEBE"/>
<path d="M648.448 305.939H648.441C648.02 305.049 647.293 304.34 646.392 303.942C642.89 302.466 639.873 301.335 637.391 300.476C633.002 298.97 628.213 299.119 623.926 300.895C623.507 301.064 623.096 301.247 622.692 301.453C622.692 301.453 605.226 304.779 603.148 304.36C602.994 304.331 602.832 304.309 602.678 304.294C602.364 304.249 602.048 304.222 601.731 304.213C597.667 304.025 593.635 305.025 590.13 307.091C584.396 310.417 575.894 316.313 575.718 322.054L575.557 322.238L575.718 335.96H652.383C652.538 322.811 652.626 312.928 652.626 312.26C652.626 310.182 648.448 305.939 648.448 305.939Z" fill="black"/>
<path d="M619.577 257.735C618.37 256.113 616.805 254.791 615.004 253.873C613.203 252.954 611.215 252.462 609.194 252.436H608.701C599.202 252.436 591.502 261.031 591.502 271.634L594.685 271.634L595.199 267.721L595.952 271.634H614.829L616.411 268.324L616.015 271.634H619.729C621.462 280.24 618.972 288.846 612.259 297.452H618.585L621.748 290.832L620.958 297.452H633.017L635.389 282.226C635.389 270.823 628.763 261.153 619.577 257.735Z" fill="#2F2E41"/>
<path d="M623.043 259.338C628.234 259.338 632.442 255.13 632.442 249.94C632.442 244.749 628.234 240.541 623.043 240.541C617.852 240.541 613.645 244.749 613.645 249.94C613.645 255.13 617.852 259.338 623.043 259.338Z" fill="#2F2E41"/>
<path d="M394.717 74.4839C410.104 61.4994 428.935 53.2674 448.916 50.7896C468.897 48.3118 489.168 51.695 507.261 60.5276C525.354 69.3602 540.491 83.2614 550.827 100.54C561.164 117.818 566.256 137.728 565.484 157.847C564.712 177.966 558.108 197.428 546.477 213.862C534.846 230.297 518.688 242.997 499.971 250.416C481.254 257.836 460.784 259.655 441.051 255.653C421.319 251.65 403.175 241.999 388.828 227.873L261.427 335.372C259.488 337.003 256.981 337.797 254.457 337.582C251.932 337.367 249.596 336.16 247.96 334.225C246.324 332.29 245.523 329.786 245.73 327.261C245.938 324.736 247.139 322.396 249.069 320.755L249.083 320.743L376.483 213.243C361.684 192.002 355.349 166 358.722 140.332C362.095 114.664 374.932 91.1805 394.717 74.4839ZM402.93 202.892C412.855 214.654 426.045 223.209 440.832 227.475C455.619 231.741 471.339 231.526 486.005 226.858C500.67 222.19 513.621 213.278 523.222 201.249C532.822 189.22 538.639 174.614 539.938 159.278C541.238 143.943 537.96 128.567 530.52 115.094C523.081 101.622 511.813 90.6576 498.142 83.5887C484.472 76.5198 469.012 73.6635 453.717 75.3811C438.423 77.0986 423.982 83.3128 412.219 93.2379C396.446 106.547 386.607 125.577 384.864 146.141C383.122 166.705 389.62 187.119 402.93 202.892Z" fill="#3F3D56"/>
<path opacity="0.3" d="M512.585 212.181C527.513 199.583 537.157 181.833 539.604 162.454C542.05 143.074 537.119 123.484 525.789 107.572C527.277 109.071 528.716 110.64 530.104 112.28C536.694 120.09 541.682 129.121 544.781 138.859C547.881 148.596 549.032 158.849 548.17 169.031C547.307 179.213 544.447 189.126 539.754 198.203C535.06 207.28 528.624 215.344 520.815 221.934C513.005 228.524 503.973 233.511 494.236 236.61C484.498 239.71 474.246 240.861 464.064 239.999C453.881 239.136 443.969 236.276 434.892 231.583C425.814 226.889 417.751 220.454 411.161 212.644C409.775 211.002 408.47 209.32 407.246 207.598C421.025 221.443 439.507 229.6 459.021 230.449C478.536 231.297 497.656 224.776 512.585 212.181Z" fill="black"/>
<path d="M137.876 339.391C136.881 338.176 136.164 336.757 135.777 335.235C135.389 333.714 135.34 332.125 135.632 330.582C135.925 329.039 136.552 327.579 137.47 326.305C138.388 325.03 139.574 323.973 140.945 323.206L164.167 228.157L181.107 233.565L156.032 327.966C157.166 330.354 157.386 333.075 156.648 335.614C155.91 338.154 154.267 340.334 152.029 341.742C149.791 343.15 147.114 343.689 144.506 343.256C141.897 342.822 139.538 341.447 137.876 339.391Z" fill="#FFB6B6"/>
<path d="M149.88 278.593L162.26 289.273L179.58 304.204L187.23 265.064L188.03 260.994L188.66 257.764L171.11 227.194L156.48 228.033L155.48 228.093L155.46 228.314L155.23 230.364L152.23 257.343L152.16 257.994L149.88 278.593Z" fill="#BF0707"/>
<path d="M230.801 544.268L243.06 544.268L248.893 496.979L230.798 496.981L230.801 544.268Z" fill="#FFB6B6"/>
<path d="M227.67 556.152L267.201 556.151V555.651C267.201 551.57 265.58 547.657 262.694 544.771C259.809 541.886 255.895 540.265 251.815 540.265H251.814L227.67 540.266L227.67 556.152Z" fill="#2F2E41"/>
<path d="M102.799 545.268L115.058 545.268L120.891 497.979L102.796 497.981L102.799 545.268Z" fill="#FFB6B6"/>
<path d="M99.6723 557.152L139.203 557.151V556.651C139.203 552.57 137.582 548.657 134.696 545.771C131.811 542.886 127.897 541.265 123.817 541.265H123.816L99.6716 541.266L99.6723 557.152Z" fill="#2F2E41"/>
<path d="M92.9998 526.444L126 531.444L174.01 368.964L225 532.444L262 527.444L214 337.444V322.444L207.5 299.944L208.18 293.854L212.91 251.264L214.96 232.794L215.093 231.601C215.204 230.6 214.939 229.593 214.349 228.776C213.759 227.96 212.886 227.392 211.9 227.184L196.5 223.944H171.33L156.48 228.034L155.46 228.314L155 228.444L155.23 230.364L158.71 259.544L158.9 261.144L162.26 289.274L163 295.444C134 316.444 133 337.444 133 337.444L92.9998 526.444Z" fill="#2F2E41"/>
<path d="M186.957 211.292C173.392 211.292 162.395 200.296 162.395 186.731C162.395 173.166 173.392 162.17 186.957 162.17C200.521 162.17 211.518 173.166 211.518 186.731C211.518 200.296 200.521 211.292 186.957 211.292Z" fill="#FFB6B6"/>
<path d="M161.16 289.799L209.746 296.153L208.838 303.094L160.252 296.74L161.16 289.799Z" fill="#BF0707"/>
<path d="M274.919 298.246C274.454 298.547 274.014 298.883 273.602 299.253L225.546 287.003L222.267 275.409L204.124 278.07L207.933 299.158C208.241 300.861 209.093 302.419 210.362 303.598C211.63 304.776 213.246 305.51 214.968 305.692L271.079 311.601C271.994 313.526 273.473 315.128 275.32 316.192C277.167 317.257 279.294 317.734 281.419 317.559C283.543 317.385 285.564 316.569 287.213 315.218C288.862 313.867 290.061 312.046 290.65 309.998C291.239 307.949 291.19 305.769 290.51 303.749C289.83 301.729 288.551 299.963 286.844 298.688C285.136 297.412 283.08 296.686 280.95 296.608C278.82 296.529 276.716 297.1 274.919 298.246Z" fill="#FFB6B6"/>
<path d="M201.002 233.444L209.502 226.944C211.8 226.073 214.949 228.549 215.502 230.944L227.502 279.944L202.502 297.944L199.002 292.444L201.002 233.444Z" fill="#BF0707"/>
<g opacity="0.2">
<path d="M152.23 257.344C154.352 258.186 156.515 258.921 158.71 259.544C159.41 259.754 160.13 259.954 160.84 260.144C165.52 261.443 170.33 262.221 175.181 262.464C177.269 262.553 179.36 262.496 181.44 262.294C183.673 262.072 185.88 261.636 188.03 260.994C188.101 260.974 188.181 260.954 188.25 260.934C192.722 259.665 196.821 257.335 200.201 254.144C200.956 253.409 201.661 252.624 202.31 251.794C204.178 249.507 205.548 246.856 206.333 244.01C207.118 241.164 207.301 238.185 206.871 235.264C206.787 234.735 206.673 234.211 206.53 233.694C206.154 232.287 205.655 230.915 205.04 229.594C204.77 228.974 204.47 228.364 204.15 227.764L192.851 223.944H171.33L156.48 228.034L155.48 228.094L155.46 228.314L155 228.444L155.23 230.364L152.23 257.344Z" fill="black"/>
</g>
<path d="M205.778 166.398C210.371 165.835 215.412 166.233 218.992 169.165C222.572 172.097 223.728 178.193 220.338 181.343C217.337 184.132 212.645 183.477 208.625 184.27C205.163 185.046 202.061 186.961 199.815 189.709C197.57 192.457 196.312 195.878 196.242 199.426C196.301 209.6 206.066 217.305 207.82 227.327C209.017 234.167 206.132 241.365 201.145 246.197C196.157 251.028 189.301 253.639 182.394 254.347C175.486 255.054 168.501 253.974 161.788 252.199C155.047 250.417 148.41 247.888 142.754 243.811C137.097 239.734 132.461 233.985 130.644 227.253C128.828 220.521 130.132 212.802 134.812 207.633C140.171 201.714 149.087 199.679 153.722 193.178C158.918 185.89 156.996 175.511 161.201 167.61C164.009 162.335 169.326 158.737 174.993 156.842C180.661 154.946 186.712 154.572 192.685 154.389C195.825 154.292 199.061 154.26 201.986 155.405C204.911 156.549 207.482 159.158 207.634 162.295C207.785 165.433 205.778 166.398 205.778 166.398Z" fill="#2F2E41"/>
<path d="M2516.46 198.402H1609.54C1597.2 198.388 1585.37 193.48 1576.65 184.754C1567.92 176.028 1563.01 164.198 1563 151.858V109.544C1563.01 97.2044 1567.92 85.3737 1576.65 76.648C1585.37 67.9222 1597.2 63.0139 1609.54 63H2516.46C2528.8 63.0139 2540.63 67.9222 2549.35 76.6479C2558.08 85.3737 2562.99 97.2044 2563 109.544V151.858C2562.99 164.198 2558.08 176.028 2549.35 184.754C2540.63 193.48 2528.8 198.388 2516.46 198.402ZM1609.54 65.8209C1597.95 65.834 1586.84 70.4448 1578.64 78.6417C1570.44 86.8386 1565.83 97.9523 1565.82 109.544V151.858C1565.83 163.45 1570.44 174.563 1578.64 182.76C1586.84 190.957 1597.95 195.568 1609.54 195.581H2516.46C2528.05 195.568 2539.16 190.957 2547.36 182.76C2555.56 174.563 2560.17 163.45 2560.18 151.858V109.544C2560.17 97.9523 2555.56 86.8386 2547.36 78.6417C2539.16 70.4448 2528.05 65.834 2516.46 65.8209H1609.54Z" fill="#B7B7BB"/>
<path d="M2280.91 103.903H1678.66C1663.86 103.903 1651.86 115.901 1651.86 130.702V130.702C1651.86 145.502 1663.86 157.5 1678.66 157.5H2280.91C2295.71 157.5 2307.71 145.502 2307.71 130.702C2307.71 115.901 2295.71 103.903 2280.91 103.903Z" fill="#E6E6E6"/>
<path d="M2474.84 159.653C2474.2 160.57 2473.22 161.194 2472.11 161.389C2471.01 161.583 2469.88 161.332 2468.96 160.69L2445.93 144.667C2445.02 144.025 2444.39 143.045 2444.2 141.942C2444 140.84 2444.25 139.705 2444.9 138.788C2445.54 137.871 2446.52 137.247 2447.62 137.052C2448.72 136.858 2449.86 137.11 2450.77 137.752L2473.8 153.775C2474.72 154.417 2475.34 155.397 2475.54 156.499C2475.73 157.602 2475.48 158.736 2474.84 159.653Z" fill="black"/>
<path d="M2448.7 141.447C2445.3 146.302 2440.53 150.039 2435.01 152.187C2429.49 154.335 2423.45 154.797 2417.67 153.514C2411.88 152.232 2406.6 149.262 2402.51 144.981C2398.41 140.7 2395.67 135.3 2394.64 129.464C2393.61 123.628 2394.34 117.618 2396.72 112.193C2399.11 106.769 2403.05 102.174 2408.05 98.9897C2413.05 95.8054 2418.88 94.1748 2424.8 94.304C2430.73 94.4332 2436.48 96.3165 2441.34 99.7156C2447.84 104.279 2452.27 111.236 2453.65 119.06C2455.03 126.883 2453.25 134.934 2448.7 141.447ZM2405.74 111.371C2403.19 115.012 2401.78 119.327 2401.68 123.771C2401.59 128.214 2402.81 132.587 2405.2 136.335C2407.59 140.084 2411.03 143.04 2415.1 144.83C2419.17 146.62 2423.68 147.164 2428.05 146.392C2432.43 145.62 2436.48 143.568 2439.69 140.494C2442.9 137.42 2445.13 133.464 2446.09 129.124C2447.05 124.785 2446.71 120.258 2445.1 116.115C2443.49 111.973 2440.68 108.401 2437.04 105.852C2432.16 102.44 2426.12 101.105 2420.25 102.14C2414.38 103.174 2409.17 106.494 2405.74 111.371Z" fill="black"/>
<path d="M1289.82 424.468C1281.32 419.987 1272.44 416.251 1263.29 413.303L1262.13 400.397L1214.81 395.3L1208.8 411.796L1191.82 418.168C1191.21 418.398 1190.63 418.699 1190.09 419.065H1190.08C1189.13 419.706 1188.32 420.533 1187.7 421.496C1187.09 422.458 1186.67 423.537 1186.49 424.665C1186.3 425.788 1186.35 426.935 1186.61 428.04L1187.51 431.72C1188.8 432.492 1190.13 433.228 1191.46 433.928L1192.3 434.358C1194.24 435.364 1196.21 436.315 1198.24 437.194C1198.66 437.374 1199.1 437.553 1199.52 437.733C1199.55 437.751 1199.57 437.751 1199.61 437.769C1200.56 438.164 1201.51 438.541 1202.48 438.9C1205.66 440.116 1208.91 441.158 1212.21 442.023C1220.62 444.266 1229.29 445.4 1238 445.398C1241.18 445.398 1244.32 445.254 1247.42 444.949C1254.52 444.294 1261.52 442.88 1268.32 440.731C1268.34 440.731 1268.35 440.713 1268.37 440.713C1272.66 439.345 1276.86 437.684 1280.92 435.74C1280.94 435.723 1280.97 435.723 1280.99 435.705C1281.91 435.274 1282.79 434.807 1283.68 434.358L1284.11 434.143C1284.83 433.766 1285.55 433.389 1286.27 432.994C1288.06 432.007 1289.82 430.966 1291.56 429.853C1292.05 429.566 1292.51 429.261 1293 428.938C1293.68 428.489 1294.36 428.022 1295.03 427.537C1293.36 426.461 1291.62 425.437 1289.82 424.468Z" fill="#3F3D56"/>
<path d="M1201.02 432.419L1198.06 419.047H1190.32C1190.25 419.048 1190.17 419.054 1190.09 419.065H1190.07C1187.29 419.3 1184.62 420.226 1182.28 421.757C1180.7 422.767 1179.29 424.028 1178.12 425.491C1180.42 427.232 1182.8 428.847 1185.26 430.391L1185.37 430.445C1186.07 430.876 1186.79 431.306 1187.51 431.719C1188.8 432.491 1190.13 433.227 1191.46 433.927L1192.3 434.358C1194.24 435.363 1196.21 436.314 1198.24 437.194C1198.65 437.373 1199.1 437.553 1199.52 437.732C1199.55 437.75 1199.57 437.75 1199.6 437.768C1200.56 438.163 1201.51 438.54 1202.48 438.899L1201.02 432.419Z" fill="#3F3D56"/>
<path d="M1236.61 387.139C1255.43 387.139 1270.69 371.882 1270.69 353.062C1270.69 334.242 1255.43 318.985 1236.61 318.985C1217.79 318.985 1202.54 334.242 1202.54 353.062C1202.54 371.882 1217.79 387.139 1236.61 387.139Z" fill="#FFB8B8"/>
<path d="M1213.73 336.464C1217.26 340.639 1223.23 341.817 1228.73 342.3C1241.61 343.011 1254.52 341.957 1267.11 339.166C1267.89 346.727 1265.76 354.879 1270.22 361.099C1272.3 353.569 1273.52 345.824 1273.83 338.017C1274.17 334.667 1273.73 331.286 1272.55 328.131C1271.93 326.55 1270.87 325.177 1269.5 324.168C1268.13 323.158 1266.5 322.553 1264.81 322.421C1267.35 320.495 1270.32 319.224 1273.47 318.719L1262.65 313.282L1265.43 310.429L1245.84 309.23L1251.51 305.626C1242.97 304.452 1234.33 304.18 1225.74 304.812C1221.72 304.814 1217.78 305.909 1214.34 307.981C1211.1 310.294 1209.23 314.891 1211.24 318.287C1208.73 318.699 1206.36 319.747 1204.36 321.331C1202.37 322.914 1200.81 324.981 1199.84 327.335C1198.61 331.077 1198.31 335.063 1198.97 338.946C1199.71 345.176 1201.16 351.302 1203.29 357.203L1213.73 336.464Z" fill="#2F2E41"/>
<path d="M1332.44 316.123C1327.65 302.388 1319.93 289.861 1309.81 279.415C1299.69 268.97 1287.42 260.858 1273.84 255.645C1260.26 250.432 1245.71 248.243 1231.2 249.231C1216.69 250.219 1202.57 254.361 1189.83 261.367C1177.08 268.373 1166.02 278.075 1157.41 289.796C1148.8 301.517 1142.85 314.975 1139.97 329.232C1137.1 343.489 1137.37 358.201 1140.76 372.343C1144.16 386.485 1150.6 399.716 1159.63 411.113C1160.53 412.244 1161.46 413.375 1162.42 414.47C1162.49 414.542 1162.54 414.614 1162.61 414.685C1164.95 417.381 1167.44 419.946 1170.06 422.368C1170.74 422.996 1171.46 423.642 1172.18 424.253C1173.54 425.473 1174.94 426.64 1176.4 427.753C1176.97 428.202 1177.53 428.65 1178.12 429.081C1180.42 430.822 1182.81 432.438 1185.27 433.981L1185.37 434.035C1186.07 434.466 1186.79 434.897 1187.51 435.31C1188.8 436.082 1190.13 436.818 1191.46 437.518L1192.3 437.948C1194.24 438.954 1196.22 439.905 1198.24 440.784C1198.66 440.964 1199.11 441.143 1199.52 441.323C1199.55 441.341 1199.57 441.341 1199.61 441.359C1200.56 441.754 1201.51 442.131 1202.48 442.49C1205.66 443.706 1208.91 444.748 1212.21 445.613C1220.62 447.856 1229.29 448.99 1238 448.988C1241.18 448.988 1244.32 448.844 1247.43 448.539C1254.52 447.884 1261.53 446.47 1268.32 444.321C1268.34 444.321 1268.36 444.303 1268.37 444.303C1272.66 442.935 1276.86 441.274 1280.92 439.33C1280.94 439.313 1280.97 439.313 1280.99 439.295C1281.91 438.864 1282.79 438.397 1283.68 437.948L1284.11 437.733C1284.83 437.356 1285.55 436.979 1286.27 436.584C1288.06 435.597 1289.82 434.556 1291.56 433.443C1292.05 433.156 1292.52 432.851 1293 432.528C1293.68 432.079 1294.36 431.612 1295.03 431.127C1295.91 430.517 1296.79 429.889 1297.65 429.243C1297.92 429.045 1298.21 428.848 1298.47 428.632C1315.29 415.868 1327.63 398.107 1333.74 377.896C1339.84 357.684 1339.38 336.06 1332.44 316.123ZM1295.17 424.271C1294.58 424.737 1293.97 425.186 1293.36 425.599C1292.77 426.048 1292.17 426.478 1291.56 426.873C1291.04 427.25 1290.52 427.609 1289.98 427.95L1289.82 428.058C1289.43 428.327 1289.03 428.578 1288.64 428.83C1287.15 429.763 1285.64 430.661 1284.11 431.522L1283.63 431.792C1282.95 432.169 1282.27 432.528 1281.58 432.887C1281.49 432.94 1281.39 432.976 1281.3 433.03L1281.19 433.084C1280.33 433.533 1279.45 433.964 1278.57 434.376C1275.17 436.011 1271.68 437.426 1268.1 438.613C1267.64 438.774 1267.17 438.936 1266.7 439.079C1260.27 441.124 1253.64 442.472 1246.92 443.1C1243.98 443.369 1241 443.513 1238 443.513C1229.77 443.53 1221.56 442.455 1213.61 440.318C1209.53 439.252 1205.53 437.897 1201.64 436.261C1201.44 436.171 1201.22 436.1 1201.03 436.01C1200.81 435.92 1200.61 435.848 1200.42 435.759C1200.2 435.669 1200 435.579 1199.79 435.471C1198.1 434.735 1196.43 433.928 1194.8 433.084L1194.01 432.671C1192.01 431.63 1190.06 430.517 1188.16 429.332C1187.6 428.991 1187.02 428.633 1186.49 428.255C1186.34 428.166 1186.22 428.076 1186.07 427.986C1184.8 427.143 1183.52 426.263 1182.29 425.348C1181.44 424.719 1180.6 424.091 1179.77 423.445C1178.39 422.404 1177.06 421.291 1175.77 420.142C1175.09 419.568 1174.42 418.94 1173.78 418.347C1171.23 415.997 1168.82 413.504 1166.56 410.88C1165.81 410.019 1165.07 409.157 1164.37 408.259C1164.21 408.082 1164.06 407.896 1163.92 407.703C1152.26 392.986 1145.25 375.129 1143.77 356.41C1142.3 337.69 1146.44 318.956 1155.65 302.597C1164.87 286.237 1178.75 272.994 1195.53 264.556C1212.3 256.118 1231.21 252.868 1249.84 255.219C1268.47 257.571 1285.98 265.418 1300.13 277.76C1314.28 290.102 1324.44 306.379 1329.3 324.516C1334.16 342.653 1333.51 361.827 1327.44 379.594C1321.36 397.36 1310.13 412.914 1295.17 424.271Z" fill="#3F3D56"/>
<path d="M1770.05 375.904C1764.07 358.735 1754.42 343.076 1741.77 330.019C1729.12 316.963 1713.77 306.822 1696.8 300.306C1679.83 293.789 1661.64 291.054 1643.5 292.289C1625.36 293.524 1607.71 298.701 1591.78 307.459C1575.85 316.216 1562.02 328.344 1551.26 342.995C1540.5 357.647 1533.06 374.469 1529.47 392.291C1525.87 410.112 1526.21 428.502 1530.45 446.18C1534.7 463.857 1542.75 480.396 1554.04 494.643C1555.16 496.056 1556.33 497.47 1557.52 498.838C1557.61 498.928 1557.68 499.018 1557.77 499.108C1560.69 502.477 1563.8 505.683 1567.08 508.711C1567.93 509.496 1568.83 510.304 1569.72 511.067C1571.43 512.592 1573.18 514.051 1575 515.442C1578.55 518.239 1582.25 520.838 1586.08 523.228L1586.22 523.295C1588.71 524.843 1591.24 526.279 1593.82 527.648L1594.88 528.186C1597.3 529.443 1599.77 530.632 1602.3 531.731C1602.82 531.956 1603.38 532.18 1603.9 532.405C1603.94 532.427 1603.96 532.427 1604.01 532.449C1609.13 534.58 1614.39 536.356 1619.76 537.767C1630.28 540.57 1641.12 541.988 1652 541.985C1655.97 541.985 1659.9 541.806 1663.78 541.424C1672.65 540.606 1681.41 538.838 1689.9 536.152C1689.92 536.152 1689.94 536.129 1689.97 536.129C1695.33 534.42 1700.57 532.344 1705.65 529.914C1705.67 529.892 1705.72 529.892 1705.74 529.869C1706.88 529.331 1707.98 528.747 1709.11 528.186L1709.64 527.917C1710.54 527.446 1711.44 526.975 1712.34 526.481C1714.58 525.247 1716.78 523.946 1718.96 522.554C1719.56 522.195 1720.14 521.814 1720.75 521.41C1722.72 520.109 1724.68 518.718 1726.56 517.304C1726.9 517.057 1727.26 516.811 1727.59 516.541C1748.61 500.585 1764.04 478.384 1771.67 453.12C1779.29 427.856 1778.73 400.826 1770.05 375.904Z" fill="white"/>
<path d="M1693.25 468.514C1703.6 468.514 1711.99 460.127 1711.99 449.781C1711.99 439.435 1703.6 431.048 1693.25 431.048C1682.91 431.048 1674.52 439.435 1674.52 449.781C1674.52 460.127 1682.91 468.514 1693.25 468.514Z" fill="#2F2E41"/>
<path d="M1698.47 431.564C1701.71 431.564 1704.9 432.405 1707.72 434.006C1710.54 435.607 1712.89 437.912 1714.55 440.696C1716.22 443.479 1717.13 446.647 1717.2 449.889C1717.27 453.13 1716.5 456.335 1714.96 459.189C1716.58 457.157 1717.77 454.809 1718.43 452.294C1719.1 449.78 1719.23 447.155 1718.83 444.585C1718.42 442.016 1717.49 439.559 1716.08 437.371C1714.68 435.183 1712.83 433.312 1710.66 431.877C1708.49 430.442 1706.05 429.475 1703.48 429.037C1700.92 428.599 1698.29 428.7 1695.77 429.333C1693.25 429.967 1690.88 431.118 1688.83 432.715C1686.78 434.312 1685.08 436.32 1683.84 438.609C1685.59 436.41 1687.82 434.635 1690.35 433.415C1692.88 432.195 1695.66 431.562 1698.47 431.564Z" fill="#2F2E41"/>
<path d="M1658.24 449.739C1688.63 449.739 1713.27 425.101 1713.27 394.709C1713.27 364.317 1688.63 339.68 1658.24 339.68C1627.85 339.68 1603.21 364.317 1603.21 394.709C1603.21 425.101 1627.85 449.739 1658.24 449.739Z" fill="#2F2E41"/>
<path d="M1615.05 360.568C1624.54 349.904 1637.79 343.341 1652.02 342.264C1666.25 341.188 1680.34 345.681 1691.32 354.797C1690.87 354.368 1690.42 353.938 1689.96 353.522C1679.09 343.784 1664.79 338.763 1650.22 339.563C1635.65 340.364 1621.99 346.921 1612.25 357.791C1602.51 368.662 1597.49 382.956 1598.29 397.529C1599.09 412.102 1605.65 425.76 1616.52 435.498C1616.62 435.592 1616.73 435.685 1616.83 435.777C1617.3 436.193 1617.78 436.585 1618.26 436.982C1607.92 427.147 1601.81 413.68 1601.21 399.422C1600.61 385.165 1605.57 371.234 1615.05 360.568Z" fill="#2F2E41"/>
<path d="M1657.78 449.273C1677.35 449.273 1693.22 433.405 1693.22 413.831C1693.22 394.257 1677.35 378.389 1657.78 378.389C1638.21 378.389 1622.34 394.257 1622.34 413.831C1622.34 433.405 1638.21 449.273 1657.78 449.273Z" fill="#A0616A"/>
<path d="M1721.2 506.176V518.067C1719.02 519.458 1716.82 520.76 1714.58 521.994C1713.68 522.487 1712.78 522.958 1711.89 523.43L1711.35 523.699C1710.23 524.26 1709.13 524.843 1707.98 525.382C1707.96 525.404 1707.91 525.404 1707.89 525.427C1702.81 527.856 1697.57 529.933 1692.21 531.642C1692.19 531.642 1692.16 531.664 1692.14 531.664C1683.65 534.351 1674.89 536.118 1666.02 536.937C1662.14 537.319 1658.22 537.498 1654.24 537.498C1643.36 537.501 1632.52 536.083 1622 533.28C1616.64 531.869 1611.37 530.092 1606.25 527.962C1606.21 527.94 1606.18 527.94 1606.14 527.917C1605.62 527.693 1605.06 527.469 1604.55 527.244C1602.01 526.145 1599.54 524.956 1597.12 523.699L1596.07 523.161C1593.48 521.792 1590.95 520.356 1588.46 518.808L1588.32 518.74C1584.49 516.351 1580.79 513.752 1577.24 510.955C1575.42 509.564 1573.67 508.105 1571.97 506.579C1571.07 505.816 1570.17 505.009 1569.32 504.224C1566.04 501.196 1562.93 497.99 1560.01 494.62C1560.4 492.283 1560.97 489.98 1561.71 487.732L1561.74 487.71C1561.87 487.326 1562.03 486.952 1562.21 486.588C1562.33 486.266 1562.47 485.951 1562.63 485.645C1566.65 478.129 1573.92 476.267 1582.94 475.863C1588.03 475.638 1593.66 475.885 1599.61 475.818C1602.75 475.795 1606 475.683 1609.26 475.392C1629.79 473.529 1626.06 461.413 1626.98 454.884C1627.9 448.557 1633.6 454.031 1633.98 454.39L1634.01 454.413C1645.62 459.85 1658.48 462.103 1671.25 460.942C1673.45 460.673 1675.65 460.516 1677.85 460.448C1683.64 460.381 1682.38 462.041 1680.38 463.41C1679.42 464.048 1678.4 464.618 1677.36 465.115C1677.36 465.115 1676.44 470.725 1675.49 479.116C1674.6 487.149 1689.99 490.918 1691.27 491.21C1691.29 491.228 1691.32 491.235 1691.36 491.232C1696.98 489.775 1702.89 489.93 1708.43 491.681H1708.45C1711.62 492.844 1714.44 494.779 1716.67 497.311C1718.89 499.842 1720.45 502.889 1721.2 506.176Z" fill="#BF0707"/>
<path d="M1606.47 520.602C1606.47 522.262 1606.43 523.855 1606.36 525.358C1606.34 526.256 1606.3 527.131 1606.25 527.961C1606.21 527.939 1606.18 527.939 1606.14 527.916C1605.62 527.692 1605.06 527.468 1604.55 527.243C1602.01 526.144 1599.54 524.955 1597.12 523.698L1596.06 523.16C1593.48 521.791 1590.95 520.355 1588.46 518.807C1588.52 518.021 1588.64 517.236 1588.75 516.451C1589 514.723 1589.2 512.973 1589.33 511.245C1590.22 499.108 1588.02 486.944 1582.94 475.884V475.862C1582.49 474.964 1582.22 474.471 1582.22 474.471C1582.22 474.471 1588.75 468.861 1598.06 474.471C1598.66 474.82 1599.18 475.277 1599.61 475.817C1605.22 482.436 1606.74 504.694 1606.47 520.602Z" fill="#2F2E41"/>
<path d="M1708.36 517.552C1708.27 520.065 1708.14 522.69 1707.98 525.361V525.383C1707.96 525.405 1707.91 525.405 1707.89 525.428C1702.81 527.857 1697.57 529.934 1692.21 531.643C1692.19 531.643 1692.16 531.665 1692.14 531.665L1691.89 525.361L1691.87 524.53L1690.68 493.836C1690.65 493.141 1690.76 492.447 1691 491.796C1691.25 491.144 1691.62 490.549 1692.1 490.046C1692.58 489.543 1693.16 489.142 1693.8 488.868C1694.44 488.594 1695.13 488.452 1695.82 488.451H1707.2C1707.76 488.451 1708.16 489.595 1708.43 491.66V491.682C1708.98 500.297 1708.96 508.94 1708.36 517.552Z" fill="#2F2E41"/>
<path d="M1627.46 369.53V404.981H1635.67L1646.12 393.789L1644.72 404.981H1681L1678.76 393.789L1683.24 404.981H1689.03V369.53H1627.46Z" fill="#2F2E41"/>
<path d="M1621.87 411.501C1623.42 411.501 1624.67 409.204 1624.67 406.371C1624.67 403.539 1623.42 401.242 1621.87 401.242C1620.32 401.242 1619.07 403.539 1619.07 406.371C1619.07 409.204 1620.32 411.501 1621.87 411.501Z" fill="#A0616A"/>
<path d="M1693.69 411.501C1695.23 411.501 1696.48 409.204 1696.48 406.371C1696.48 403.539 1695.23 401.242 1693.69 401.242C1692.14 401.242 1690.89 403.539 1690.89 406.371C1690.89 409.204 1692.14 411.501 1693.69 411.501Z" fill="#A0616A"/>
<path d="M1728.8 512.817C1726.92 514.231 1724.96 515.622 1722.99 516.923C1722.38 517.327 1721.8 517.708 1721.2 518.068C1719.02 519.459 1716.82 520.76 1714.58 521.994C1713.68 522.488 1712.78 522.959 1711.88 523.43V498.704C1711.88 498.704 1715.47 501.576 1721.2 506.355C1721.91 506.961 1722.65 507.589 1723.44 508.262C1725.1 509.654 1726.9 511.179 1728.8 512.817Z" fill="#BF0707"/>
<path d="M1770.05 375.904C1764.07 358.735 1754.42 343.076 1741.77 330.019C1729.12 316.963 1713.77 306.822 1696.8 300.306C1679.83 293.789 1661.64 291.054 1643.5 292.289C1625.36 293.524 1607.71 298.701 1591.78 307.459C1575.85 316.216 1562.02 328.344 1551.26 342.995C1540.5 357.647 1533.06 374.469 1529.47 392.291C1525.87 410.112 1526.21 428.502 1530.45 446.18C1534.7 463.857 1542.75 480.396 1554.04 494.643C1555.16 496.056 1556.33 497.47 1557.52 498.838C1557.61 498.928 1557.68 499.018 1557.77 499.108C1560.69 502.477 1563.8 505.683 1567.08 508.711C1567.93 509.496 1568.83 510.304 1569.72 511.067C1571.43 512.592 1573.18 514.051 1575 515.442C1578.55 518.239 1582.25 520.838 1586.08 523.228L1586.22 523.295C1588.71 524.843 1591.24 526.279 1593.82 527.648L1594.88 528.186C1597.3 529.443 1599.77 530.632 1602.3 531.731C1602.82 531.956 1603.38 532.18 1603.9 532.405C1603.94 532.427 1603.96 532.427 1604.01 532.449C1609.13 534.58 1614.39 536.356 1619.76 537.767C1630.28 540.57 1641.12 541.988 1652 541.985C1655.97 541.985 1659.9 541.806 1663.78 541.424C1672.65 540.606 1681.41 538.838 1689.9 536.152C1689.92 536.152 1689.94 536.129 1689.97 536.129C1695.33 534.42 1700.57 532.344 1705.65 529.914C1705.67 529.892 1705.72 529.892 1705.74 529.869C1706.88 529.331 1707.98 528.747 1709.11 528.186L1709.64 527.917C1710.54 527.446 1711.44 526.975 1712.34 526.481C1714.58 525.247 1716.78 523.946 1718.96 522.554C1719.56 522.195 1720.14 521.814 1720.75 521.41C1722.72 520.109 1724.68 518.718 1726.56 517.304C1726.9 517.057 1727.26 516.811 1727.59 516.541C1748.61 500.585 1764.04 478.384 1771.67 453.12C1779.29 427.856 1778.73 400.826 1770.05 375.904ZM1723.46 511.089C1722.72 511.673 1721.96 512.233 1721.2 512.749C1720.46 513.31 1719.72 513.849 1718.96 514.342C1718.3 514.814 1717.65 515.262 1716.98 515.689C1716.42 516.07 1715.86 516.429 1715.3 516.788C1713.44 517.955 1711.55 519.077 1709.64 520.154L1709.04 520.49C1708.18 520.961 1707.33 521.41 1706.48 521.859C1706.37 521.926 1706.23 521.971 1706.12 522.038L1705.99 522.106C1704.91 522.667 1703.81 523.205 1702.71 523.721C1698.47 525.765 1694.1 527.533 1689.63 529.016C1689.05 529.218 1688.46 529.42 1687.88 529.6C1679.84 532.156 1671.55 533.841 1663.15 534.626C1659.47 534.962 1655.75 535.142 1652 535.142C1641.71 535.163 1631.45 533.82 1621.51 531.148C1616.41 529.816 1611.41 528.121 1606.54 526.077C1606.03 525.875 1605.51 525.651 1605.02 525.449C1604.75 525.337 1604.5 525.225 1604.23 525.09C1602.12 524.17 1600.04 523.16 1598 522.106L1597.01 521.59C1594.52 520.288 1592.07 518.897 1589.69 517.416C1588.82 516.878 1587.94 516.317 1587.09 515.733C1584.4 513.961 1581.77 512.054 1579.22 510.057C1577.49 508.755 1575.83 507.364 1574.21 505.928C1573.36 505.21 1572.53 504.425 1571.72 503.685C1568.54 500.747 1565.53 497.631 1562.7 494.351C1561.76 493.274 1560.84 492.197 1559.96 491.075C1559.77 490.853 1559.58 490.621 1559.4 490.379C1544.82 471.983 1536.06 449.662 1534.22 426.263C1532.37 402.863 1537.55 379.445 1549.07 358.996C1560.59 338.547 1577.94 321.993 1598.91 311.445C1619.88 300.897 1643.51 296.834 1666.8 299.774C1690.09 302.714 1711.97 312.522 1729.66 327.95C1747.35 343.377 1760.05 363.724 1766.13 386.395C1772.2 409.066 1771.39 433.034 1763.8 455.243C1756.2 477.451 1742.16 496.893 1723.46 511.089Z" fill="#3F3D56"/>
<path d="M2003.43 320.718C2019.66 320.718 2032.81 307.562 2032.81 291.333C2032.81 275.104 2019.66 261.947 2003.43 261.947C1987.2 261.947 1974.04 275.104 1974.04 291.333C1974.04 307.562 1987.2 320.718 2003.43 320.718Z" fill="#2F2E41"/>
<path d="M1980.49 275.488C1985.24 270.739 1986.2 264.002 1982.64 260.441C1979.08 256.879 1972.34 257.842 1967.59 262.59C1962.84 267.339 1961.88 274.076 1965.44 277.637C1969 281.198 1975.74 280.236 1980.49 275.488Z" fill="#2F2E41"/>
<path d="M2034.05 266.157C2036.03 261.525 2032.63 255.632 2026.45 252.994C2020.28 250.356 2013.67 251.972 2011.69 256.604C2009.71 261.235 2013.11 267.129 2019.29 269.767C2025.47 272.405 2032.08 270.789 2034.05 266.157Z" fill="#2F2E41"/>
<path d="M2038.58 348.332L2035.12 342.884C2033.65 339.602 2030.94 337.036 2027.58 335.748C2024.22 334.46 2020.49 334.556 2017.21 336.013C2013.92 337.47 2011.34 340.17 2010.04 343.523C2008.74 346.875 2008.82 350.606 2010.27 353.898L2011.25 357.428L2012.37 361.434C2016.91 360.861 2021.39 359.884 2025.75 358.515C2025.76 358.513 2025.77 358.507 2025.78 358.498C2029.01 357.477 2032.15 356.23 2035.2 354.764C2035.22 354.747 2035.23 354.747 2035.25 354.73C2035.93 354.407 2036.59 354.068 2037.27 353.729C2037.38 353.679 2037.49 353.622 2037.59 353.559C2038.14 353.287 2038.68 352.999 2039.21 352.71C2039.75 352.422 2040.27 352.116 2040.78 351.794L2038.58 348.332Z" fill="#CACACA"/>
<path d="M2004.36 323.286C2018.13 323.286 2029.3 312.12 2029.3 298.346C2029.3 284.573 2018.13 273.407 2004.36 273.407C1990.58 273.407 1979.42 284.573 1979.42 298.346C1979.42 312.12 1990.58 323.286 2004.36 323.286Z" fill="#FFB6B6"/>
<path d="M2040.38 347.264C2037.62 342.69 2034.21 338.549 2030.24 334.977C2027.53 332.549 2024.01 331.207 2020.37 331.209H1985.23C1983.21 331.208 1981.21 331.623 1979.35 332.426C1977.49 333.23 1975.82 334.407 1974.43 335.883C1973.05 337.359 1971.98 339.103 1971.29 341.008C1970.61 342.913 1970.32 344.938 1970.45 346.959C1970.53 348.098 1970.73 349.225 1971.06 350.319C1971.31 351.112 1971.63 351.883 1972 352.627L1973.73 356.089C1973.86 356.14 1974 356.208 1974.13 356.259C1974.17 356.276 1974.19 356.276 1974.2 356.293C1974.92 356.581 1975.63 356.87 1976.36 357.142C1978.75 358.055 1981.18 358.836 1983.66 359.484C1987.64 360.553 1991.7 361.285 1995.81 361.673C1998.2 361.894 2000.59 362.012 2003 362.012C2005.4 362.012 2007.74 361.894 2010.08 361.673C2010.84 361.605 2011.61 361.52 2012.37 361.435C2016.91 360.863 2021.38 359.886 2025.75 358.516C2025.76 358.515 2025.77 358.509 2025.78 358.499C2029 357.479 2032.15 356.231 2035.2 354.766C2035.22 354.749 2035.23 354.749 2035.25 354.732C2035.93 354.409 2036.59 354.07 2037.27 353.73C2037.38 353.68 2037.49 353.624 2037.59 353.561C2038.13 353.289 2038.68 353 2039.2 352.712C2039.75 352.423 2040.27 352.118 2040.78 351.796C2041.33 351.507 2041.83 351.185 2042.36 350.862C2041.72 349.589 2041.05 348.401 2040.38 347.264Z" fill="#CACACA"/>
<path d="M1991.6 335.757C1988.35 334.236 1984.63 334.064 1981.25 335.279C1977.87 336.494 1975.11 338.996 1973.57 342.24L1970.45 346.958L1968.96 349.215L1966.68 352.643C1967.16 352.898 1967.62 353.153 1968.09 353.407L1968.72 353.73C1970.18 354.476 1971.66 355.189 1973.18 355.851C1973.35 355.936 1973.54 356.004 1973.73 356.089C1973.86 356.14 1974 356.207 1974.13 356.258C1974.17 356.275 1974.18 356.275 1974.2 356.292C1974.91 356.581 1975.63 356.869 1976.36 357.141C1978.75 358.054 1981.18 358.836 1983.66 359.483C1987.64 360.552 1991.7 361.284 1995.81 361.672L1996.99 357.65L1998.15 353.814C1999.67 350.55 1999.84 346.816 1998.61 343.431C1997.38 340.046 1994.86 337.286 1991.6 335.757Z" fill="#CACACA"/>
<path d="M1978.15 282.66C1983.85 286.588 1990.62 288.679 1997.54 288.651C1995.07 290.363 1992.26 291.52 1989.3 292.041C1998.5 294.015 2008.01 294.068 2017.24 292.198C2019.29 291.869 2021.26 291.189 2023.08 290.189C2023.99 289.682 2024.78 288.991 2025.4 288.159C2026.03 287.327 2026.47 286.374 2026.69 285.361C2027.31 281.859 2024.58 278.678 2021.74 276.534C2017.4 273.302 2012.4 271.074 2007.09 270.014C2001.78 268.953 1996.3 269.085 1991.05 270.401C1987.56 271.105 1984.37 272.904 1981.96 275.538C1980.8 276.878 1980.1 278.557 1979.96 280.328C1979.82 282.098 1980.26 283.866 1981.2 285.37L1978.15 282.66Z" fill="#2F2E41"/>
<path d="M2073.84 262.354C2070.26 252.05 2064.47 242.653 2056.88 234.818C2049.29 226.982 2040.08 220.896 2029.89 216.985C2019.71 213.074 2008.79 211.432 1997.91 212.173C1987.03 212.914 1976.43 216.021 1966.87 221.276C1957.31 226.531 1949.01 233.808 1942.56 242.601C1936.1 251.393 1931.63 261.488 1929.48 272.182C1927.32 282.876 1927.53 293.912 1930.07 304.52C1932.62 315.128 1937.45 325.052 1944.23 333.601C1944.89 334.449 1945.61 335.298 1946.32 336.112C1946.36 336.172 1946.4 336.229 1946.45 336.282C1948.21 338.303 1950.08 340.224 1952.05 342.035C1952.56 342.511 1953.09 343.003 1953.63 343.461C1954.65 344.378 1955.7 345.243 1956.81 346.075C1957.23 346.414 1957.65 346.754 1958.1 347.076C1959.81 348.383 1961.61 349.588 1963.44 350.759C1963.47 350.759 1963.5 350.771 1963.53 350.793C1964.05 351.115 1964.6 351.438 1965.14 351.743C1965.65 352.049 1966.17 352.354 1966.68 352.643C1967.16 352.897 1967.62 353.152 1968.09 353.406L1968.72 353.729C1970.18 354.476 1971.66 355.188 1973.18 355.85C1973.35 355.935 1973.54 356.003 1973.73 356.088C1973.86 356.139 1974 356.207 1974.13 356.258C1974.17 356.275 1974.18 356.275 1974.2 356.292C1974.91 356.58 1975.63 356.869 1976.36 357.14C1978.75 358.053 1981.18 358.835 1983.66 359.482C1987.64 360.551 1991.7 361.284 1995.81 361.672C1998.2 361.892 2000.59 362.011 2003 362.011C2005.4 362.011 2007.74 361.892 2010.08 361.672C2010.84 361.604 2011.61 361.519 2012.37 361.434C2016.91 360.861 2021.38 359.884 2025.74 358.515C2025.76 358.513 2025.77 358.507 2025.78 358.498C2029 357.478 2032.15 356.23 2035.2 354.764C2035.21 354.747 2035.23 354.747 2035.25 354.73C2035.93 354.408 2036.59 354.068 2037.27 353.729C2037.38 353.679 2037.49 353.622 2037.59 353.559C2038.13 353.288 2038.68 352.999 2039.2 352.71C2039.75 352.422 2040.27 352.116 2040.78 351.794C2041.32 351.506 2041.83 351.183 2042.36 350.861C2042.63 350.691 2042.9 350.521 2043.17 350.352C2043.55 350.131 2043.89 349.91 2044.26 349.656C2044.77 349.333 2045.28 348.977 2045.77 348.62C2046.43 348.162 2047.09 347.687 2047.74 347.195C2047.96 347.053 2048.17 346.9 2048.37 346.737C2060.97 337.156 2070.22 323.835 2074.8 308.679C2079.37 293.523 2079.04 277.308 2073.84 262.354ZM2045.89 343.461C2045.45 343.817 2044.99 344.157 2044.53 344.462C2044.07 344.802 2043.63 345.124 2043.17 345.43C2042.78 345.701 2042.39 345.973 2041.99 346.227C2041.95 346.26 2041.91 346.288 2041.87 346.312C2041.58 346.516 2041.27 346.703 2040.98 346.889C2040.78 347.008 2040.58 347.144 2040.37 347.263C2039.78 347.636 2039.19 347.993 2038.58 348.332C2038.25 348.536 2037.91 348.722 2037.59 348.909C2037.47 348.977 2037.35 349.045 2037.23 349.113C2036.71 349.401 2036.2 349.656 2035.69 349.927C2035.62 349.978 2035.54 349.995 2035.49 350.046C2035.45 350.047 2035.42 350.059 2035.4 350.08C2034.76 350.419 2034.09 350.742 2033.43 351.047C2030.88 352.274 2028.26 353.334 2025.57 354.221C2025.24 354.34 2024.88 354.476 2024.54 354.578C2020.21 355.951 2015.76 356.905 2011.25 357.429C2010.74 357.497 2010.22 357.548 2009.69 357.598C2007.48 357.802 2005.26 357.904 2003 357.904C2001 357.904 1998.98 357.819 1996.99 357.649C1992.84 357.304 1988.73 356.588 1984.71 355.511C1981.64 354.713 1978.64 353.692 1975.73 352.456C1975.58 352.388 1975.42 352.337 1975.27 352.269C1975.1 352.201 1974.97 352.151 1974.81 352.083C1974.64 352.015 1974.51 351.947 1974.34 351.862C1973.23 351.387 1972.13 350.861 1971.06 350.318C1970.91 350.233 1970.76 350.165 1970.6 350.08L1970.01 349.775C1969.65 349.588 1969.3 349.401 1968.96 349.214C1967.82 348.603 1966.7 347.942 1965.61 347.263C1965.21 347.008 1964.77 346.737 1964.36 346.465L1964.05 346.261C1963.1 345.616 1962.15 344.972 1961.22 344.276C1960.59 343.801 1959.95 343.342 1959.33 342.85C1958.3 342.069 1957.3 341.238 1956.33 340.372C1955.82 339.948 1955.31 339.473 1954.84 339.031C1952.93 337.271 1951.12 335.401 1949.42 333.431C1948.86 332.786 1948.3 332.141 1947.78 331.462C1947.66 331.326 1947.56 331.191 1947.44 331.038C1938.69 319.999 1933.42 306.604 1932.32 292.561C1931.21 278.519 1934.32 264.465 1941.23 252.193C1948.14 239.92 1958.56 229.985 1971.14 223.655C1983.72 217.324 1997.91 214.885 2011.88 216.649C2025.86 218.412 2038.99 224.298 2049.61 233.556C2060.22 242.814 2067.84 255.024 2071.49 268.629C2075.14 282.235 2074.65 296.618 2070.09 309.946C2065.53 323.274 2057.11 334.941 2045.89 343.461Z" fill="#3F3D56"/>
</svg>
