<svg width="182" height="171" viewBox="0 0 182 171" fill="none" xmlns="http://www.w3.org/2000/svg">
<g filter="url(#filter0_d_531_43)">
<path d="M90.8776 116.06L112.577 101.594V83.6836C110.855 84.7169 109.477 86.0946 107.755 87.4723C98.1107 96.0831 88.811 94.7054 88.811 94.7054C83.3001 94.7054 75.0338 89.1945 71.5894 86.439C70.5561 85.7502 69.8673 85.0613 68.834 84.3724V101.594L90.8776 116.06Z" fill="#D99F71"/>
<path d="M90.8789 112.617L83.9902 122.261L90.8789 112.617Z" fill="#DDC694"/>
<path d="M98.1104 120.887L93.6328 127.086L97.766 151.886L107.41 133.975L98.1104 120.887Z" fill="#D5D6DB"/>
<path d="M84.3342 151.886L88.123 127.086L83.6454 120.887L74.3457 133.975L84.3342 151.886Z" fill="#D5D6DB"/>
<path d="M83.9909 122.263L83.6465 122.608L90.8796 112.619L83.9909 122.263Z" fill="#D5D6DB"/>
<path d="M98.1107 149.816L94.6663 128.117L98.4551 122.606L90.8776 112.617L83.6445 122.606L87.4333 128.117L83.6445 150.16L90.8776 162.904L98.1107 150.16V149.816Z" fill="#E56353"/>
<path d="M90.8789 112.618L98.4564 122.607L106.723 134.318L124.289 102.286L112.578 98.1523L90.8789 112.618Z" fill="#E1E6E9"/>
<path d="M83.6456 122.607L83.99 122.263L90.8786 112.618L69.1794 98.1523L57.4688 102.286L75.0348 134.318L83.6456 122.607Z" fill="#E1E6E9"/>
<path d="M90.8789 162.905H100.179H169.754C174.576 162.905 178.709 158.428 177.676 153.606L173.887 129.84C172.854 123.296 168.376 118.129 162.176 116.062L124.289 102.285" fill="#3A556A"/>
<path d="M98.112 150.161L90.8789 162.905L91.5678 162.216L126.011 130.873L121.878 122.607H134.277L124.289 102.285L106.723 134.317L98.112 150.161Z" fill="#2F4859"/>
<path d="M90.8779 162.905L57.4681 102.285L19.5806 116.062C13.3808 118.129 8.90317 123.64 7.86988 129.84L4.08113 153.606C3.39226 158.428 7.18101 162.905 12.0031 162.905H81.9227H87.4336H90.8779Z" fill="#3A556A"/>
<path d="M90.8789 162.905L83.6458 150.161L75.035 134.317L57.469 102.285L47.4805 122.607H59.88L55.7468 130.873L90.19 162.216L90.8789 162.905Z" fill="#2F4859"/>
<path d="M125.983 34.6772L123.393 70.7866C122.97 76.6826 120.274 81.9318 116.19 84.8067L97.8107 97.7484C93.5469 100.751 88.3631 100.751 84.0998 97.7484L65.7203 84.8067C61.6371 81.9318 58.9405 76.6826 58.5175 70.7866L56.0167 35.9174C55.8226 33.2134 57.3404 30.8064 59.4684 30.4916C68.8938 29.0971 93.6501 24.724 108.633 15.5013C110.528 14.3345 112.751 15.2754 113.801 17.5895C115.519 21.3732 118.689 26.6654 123.888 29.8041C125.327 30.6728 126.128 32.6658 125.983 34.6772Z" fill="#EABF9D"/>
<path d="M56.4941 50.05L58.5182 74.1612C58.8605 78.2382 61.0428 81.8675 64.3481 83.8558L78.5 94C79.8617 94.8191 84.498 98.8279 86 99L79.3871 82.8658C78.672 80.9295 78.2271 78.8892 78.0671 76.8109L76.2876 53.6921C76.1514 51.9206 73.2877 30.664 74.8948 30.3028C81.5047 29.9961 81.5128 30.6994 87.6425 27.9007C97.362 23.463 104.649 26.2564 109 28.5C109.872 28.9496 115.027 30.3028 115.971 31.2636L122 35L126.5 42C126.617 40.6028 120.445 27.064 119.276 26.4594C115.076 24.2883 93.2799 22.8238 91.8918 20.211C91.0416 18.6109 66.5137 26.6102 64.9799 27.417C52.8528 33.7947 64.5824 32.2194 56.9529 33.1836C55.2312 33.4017 56.337 48.1799 56.4941 50.05Z" fill="#D99F71"/>
<path d="M65 30L80.7543 28.5878C82.132 28.5878 83.1653 28.2434 84.1986 27.899C86.6097 27.2101 90.3984 25.8324 93.4983 24.4547C96.2537 23.4214 99.0092 23.4214 101.765 24.4547L115.886 29.2767C125.53 32.721 125.5 40 125.5 40L123.7 66.5C123.7 66.5 127.597 58.209 131.73 51.3203C132.763 49.5982 133.452 47.5316 133.452 45.8094V24.4547C133.452 24.4547 132.075 13.7773 121.742 11.3663C121.742 11.3663 125.875 2.41102 114.853 0H74.2101C59.3995 0 47 12.0551 47 27.2101V43.3984C47 46.8427 48.0333 50.287 50.4443 53.0425C52.1665 55.1091 57.1556 60.178 57.5 65L56 40C58.7555 27.9449 65 30 65 30Z" fill="#55320C"/>
</g>
<defs>
<filter id="filter0_d_531_43" x="0" y="0" width="181.836" height="170.904" filterUnits="userSpaceOnUse" color-interpolation-filters="sRGB">
<feFlood flood-opacity="0" result="BackgroundImageFix"/>
<feColorMatrix in="SourceAlpha" type="matrix" values="0 0 0 0 0 0 0 0 0 0 0 0 0 0 0 0 0 0 127 0" result="hardAlpha"/>
<feOffset dy="4"/>
<feGaussianBlur stdDeviation="2"/>
<feComposite in2="hardAlpha" operator="out"/>
<feColorMatrix type="matrix" values="0 0 0 0 0 0 0 0 0 0 0 0 0 0 0 0 0 0 0.25 0"/>
<feBlend mode="normal" in2="BackgroundImageFix" result="effect1_dropShadow_531_43"/>
<feBlend mode="normal" in="SourceGraphic" in2="effect1_dropShadow_531_43" result="shape"/>
</filter>
</defs>
</svg>
