<svg width="601" height="703" viewBox="0 0 601 703" fill="none" xmlns="http://www.w3.org/2000/svg">
<path d="M81.9725 353.575H150.949L185.438 293.839L150.949 234.104H81.9725L47.4841 293.839L81.9725 353.575Z" fill="#F2F2F2"/>
<path d="M159.693 374.759H73.2294C72.352 374.757 71.4903 374.526 70.7304 374.087C69.9705 373.648 69.3391 373.018 68.8992 372.259L25.6676 297.379C25.2302 296.618 25 295.756 25 294.879C25 294.002 25.2302 293.139 25.6676 292.379L68.8993 217.5C69.3392 216.741 69.9706 216.11 70.7304 215.672C71.4903 215.233 72.352 215.001 73.2294 215H159.693C160.57 215.001 161.432 215.233 162.192 215.672C162.951 216.11 163.583 216.741 164.023 217.5L207.254 292.379C207.692 293.139 207.922 294.001 207.922 294.879C207.922 295.756 207.692 296.618 207.254 297.379L164.023 372.259C163.583 373.018 162.951 373.648 162.191 374.087C161.432 374.526 160.57 374.757 159.693 374.759ZM73.2294 217C72.7029 217.001 72.1859 217.14 71.73 217.403C71.2741 217.666 70.8952 218.044 70.6312 218.5L27.3997 293.379C27.1372 293.835 26.9991 294.353 26.9991 294.879C26.9991 295.405 27.1373 295.923 27.3998 296.379L70.6312 371.259C70.8952 371.714 71.2741 372.093 71.73 372.356C72.1859 372.619 72.7029 372.758 73.2294 372.759H159.693C160.219 372.758 160.736 372.619 161.192 372.356C161.648 372.093 162.027 371.714 162.29 371.259L205.522 296.379C205.785 295.923 205.923 295.405 205.923 294.879C205.923 294.352 205.785 293.835 205.522 293.379L162.29 218.5C162.027 218.044 161.648 217.666 161.192 217.403C160.736 217.14 160.219 217.001 159.693 217H73.2294Z" fill="#CCCCCC"/>
<path d="M116.461 260.863C109.939 260.863 103.563 262.797 98.1401 266.42C92.7171 270.044 88.4904 275.194 85.9944 281.22C83.4985 287.245 82.8455 293.876 84.1179 300.273C85.3903 306.67 88.531 312.546 93.1429 317.157C97.7547 321.769 103.631 324.91 110.027 326.182C116.424 327.455 123.055 326.802 129.081 324.306C135.106 321.81 140.257 317.583 143.88 312.16C147.504 306.737 149.438 300.362 149.438 293.839C149.438 289.509 148.585 285.221 146.927 281.22C145.27 277.219 142.841 273.584 139.779 270.521C136.717 267.459 133.082 265.03 129.081 263.373C125.08 261.716 120.791 260.863 116.461 260.863ZM116.461 270.756C118.418 270.756 120.33 271.336 121.957 272.423C123.584 273.51 124.852 275.055 125.601 276.863C126.35 278.67 126.546 280.66 126.164 282.579C125.782 284.498 124.84 286.261 123.456 287.644C122.073 289.028 120.31 289.97 118.391 290.352C116.472 290.733 114.483 290.537 112.675 289.789C110.867 289.04 109.322 287.772 108.235 286.145C107.148 284.518 106.568 282.605 106.568 280.649C106.568 278.025 107.61 275.509 109.466 273.653C111.321 271.798 113.837 270.756 116.461 270.756ZM116.461 318.382C112.553 318.364 108.708 317.393 105.26 315.553C101.812 313.713 98.8653 311.059 96.6749 307.823C96.8335 301.227 109.866 297.597 116.461 297.597C123.056 297.597 136.088 301.227 136.247 307.823C134.054 311.057 131.107 313.708 127.659 315.548C124.212 317.388 120.368 318.36 116.461 318.382Z" fill="#C8291F"/>
<path d="M152.973 139.615H221.95L256.438 79.8794L221.95 20.1437H152.973L118.484 79.8794L152.973 139.615Z" fill="#F2F2F2"/>
<path d="M230.693 159.759H144.23C143.352 159.757 142.49 159.526 141.731 159.087C140.971 158.648 140.339 158.018 139.899 157.259L96.6678 82.3788C96.2304 81.6183 96.0002 80.7562 96.0002 79.8788C96.0002 79.0015 96.2304 78.1394 96.6678 77.3788L139.899 2.49994C140.339 1.74078 140.971 1.11036 141.731 0.671661C142.49 0.232958 143.352 0.00133379 144.23 -6.10352e-05H230.693C231.57 0.00131742 232.432 0.232926 233.192 0.671631C233.952 1.11034 234.583 1.74077 235.023 2.49994L278.254 77.3788C278.692 78.1394 278.922 79.0014 278.922 79.8788C278.922 80.7563 278.692 81.6183 278.254 82.3788L235.023 157.259C234.583 158.018 233.951 158.648 233.192 159.087C232.432 159.526 231.57 159.757 230.693 159.759ZM144.23 1.99998C143.703 2.00081 143.186 2.13978 142.73 2.403C142.274 2.66622 141.895 3.04448 141.631 3.49998L98.3998 78.3789C98.1374 78.8352 97.9993 79.3525 97.9993 79.8789C97.9993 80.4053 98.1375 80.9226 98.3999 81.3789L141.631 156.259C141.895 156.714 142.274 157.092 142.73 157.356C143.186 157.619 143.703 157.758 144.23 157.759H230.693C231.219 157.758 231.736 157.619 232.192 157.356C232.648 157.093 233.027 156.714 233.291 156.259L276.522 81.3788C276.785 80.9225 276.923 80.4053 276.923 79.8788C276.923 79.3524 276.785 78.8352 276.522 78.3788L233.291 3.49994C233.027 3.04444 232.648 2.66618 232.192 2.40295C231.736 2.13973 231.219 2.00076 230.693 1.99994L144.23 1.99998Z" fill="#CCCCCC"/>
<path d="M149.831 93.5799C149.309 94.0914 149.011 94.7879 149 95.5182C148.99 96.2485 149.268 96.9534 149.774 97.4798L166.791 114.858C167.046 115.122 167.351 115.332 167.687 115.477C168.024 115.622 168.386 115.699 168.753 115.702C169.12 115.706 169.483 115.636 169.823 115.498C170.162 115.36 170.471 115.155 170.731 114.896L223.186 61.6674C223.478 61.3766 223.701 61.0242 223.84 60.636C223.978 60.2477 224.028 59.8335 223.985 59.4236C223.943 59.0136 223.81 58.6183 223.595 58.2666C223.38 57.9149 223.089 57.6156 222.744 57.3906L203.231 44.4527C202.705 44.1067 202.076 43.9516 201.45 44.0132C200.824 44.0749 200.237 44.3496 199.789 44.7914L149.831 93.5799Z" fill="#C8291F"/>
<path d="M220.111 59.6095L217.936 58.2224C218.165 58.6307 218.249 59.1046 218.174 59.5669C218.1 60.0292 217.871 60.4526 217.525 60.7682C217.179 61.0838 216.736 61.2729 216.269 61.3048C215.802 61.3368 215.338 61.2096 214.952 60.944L200.874 51.2653C200.554 51.0456 200.302 50.7405 200.147 50.3846C199.992 50.0288 199.94 49.6365 199.997 49.2526C200.054 48.8687 200.218 48.5085 200.47 48.2132C200.722 47.9178 201.052 47.6992 201.422 47.5822L200.301 46.8675C200.155 46.7748 199.983 46.7347 199.811 46.754C199.64 46.7732 199.48 46.8507 199.359 46.9734L151.999 93.5153C151.928 93.5868 151.873 93.6717 151.835 93.765C151.798 93.8583 151.78 93.9582 151.782 94.0587C151.783 94.1592 151.805 94.2584 151.846 94.3503C151.886 94.4423 151.945 94.5251 152.018 94.5941L169.218 111.353C169.361 111.488 169.55 111.562 169.746 111.559C169.942 111.556 170.129 111.477 170.268 111.339L220.238 60.7796C220.318 60.6998 220.379 60.6031 220.417 60.4966C220.454 60.39 220.468 60.2764 220.455 60.1641C220.443 60.0517 220.406 59.9436 220.346 59.8476C220.287 59.7516 220.206 59.6702 220.111 59.6095Z" fill="white"/>
<path d="M165.451 83.2383L179.979 96.9365L214.536 62.7946L196.998 51.3793L165.451 83.2383Z" fill="#DCE9F3"/>
<path d="M213.193 71.2206C213.289 71.312 213.416 71.363 213.548 71.363C213.681 71.363 213.808 71.312 213.904 71.2206L216.926 68.1986C217.02 68.1042 217.073 67.9764 217.073 67.8431C217.073 67.7098 217.02 67.582 216.926 67.4876C216.83 67.3962 216.703 67.3452 216.57 67.3452C216.438 67.3452 216.311 67.3962 216.215 67.4876L213.193 70.5095C213.099 70.6039 213.046 70.7318 213.046 70.8651C213.046 70.9983 213.099 71.1262 213.193 71.2206Z" fill="#962B25"/>
<path d="M208.102 76.3114C208.197 76.4055 208.324 76.4583 208.458 76.4583C208.591 76.4583 208.719 76.4055 208.813 76.3114L211.835 73.2893C211.882 73.2427 211.919 73.1872 211.944 73.1262C211.97 73.0652 211.983 72.9998 211.983 72.9337C211.983 72.8676 211.97 72.8022 211.945 72.7412C211.919 72.6801 211.882 72.6247 211.836 72.5779C211.789 72.5312 211.733 72.4942 211.672 72.4689C211.611 72.4436 211.546 72.4306 211.48 72.4307C211.414 72.4307 211.348 72.4437 211.287 72.4691C211.226 72.4944 211.171 72.5315 211.124 72.5782L208.102 75.6003C208.008 75.6946 207.955 75.8225 207.955 75.9558C207.955 76.0891 208.008 76.217 208.102 76.3114Z" fill="#962B25"/>
<path d="M165.786 98.3902C167.66 98.3902 169.18 96.8707 169.18 94.9964C169.18 93.122 167.66 91.6025 165.786 91.6025C163.912 91.6025 162.392 93.122 162.392 94.9964C162.392 96.8707 163.912 98.3902 165.786 98.3902Z" fill="#962B25"/>
<path d="M152.973 569.615H221.95L256.438 509.879L221.95 450.144H152.973L118.484 509.879L152.973 569.615Z" fill="#F2F2F2"/>
<path d="M230.693 589.839H144.23C143.352 589.837 142.49 589.606 141.731 589.167C140.971 588.728 140.339 588.098 139.899 587.339L96.6678 512.459C96.2302 511.698 96 510.836 96 509.959C96 509.082 96.2303 508.22 96.6679 507.459L139.899 432.58C140.339 431.821 140.971 431.191 141.731 430.752C142.49 430.313 143.352 430.082 144.23 430.08H230.693C231.57 430.081 232.432 430.313 233.192 430.752C233.952 431.191 234.583 431.821 235.023 432.58L278.254 507.459C278.692 508.22 278.922 509.082 278.922 509.959C278.922 510.836 278.692 511.698 278.254 512.459L235.023 587.339C234.583 588.098 233.952 588.728 233.192 589.167C232.432 589.606 231.57 589.838 230.693 589.839ZM144.23 432.08C143.703 432.081 143.186 432.22 142.73 432.483C142.274 432.746 141.895 433.125 141.631 433.58L98.3998 508.459C98.1373 508.915 97.9992 509.433 97.9992 509.959C97.9992 510.485 98.1374 511.003 98.3999 511.459L141.631 586.339C141.895 586.794 142.274 587.173 142.73 587.436C143.186 587.699 143.703 587.838 144.23 587.839H230.693C231.219 587.838 231.736 587.699 232.192 587.436C232.648 587.173 233.027 586.794 233.291 586.339L276.522 511.459C276.785 511.003 276.923 510.485 276.923 509.959C276.923 509.433 276.785 508.915 276.522 508.459L233.291 433.58C233.027 433.125 232.648 432.746 232.192 432.483C231.736 432.22 231.219 432.081 230.693 432.08H144.23Z" fill="#CCCCCC"/>
<path d="M212 500.02C212 513.828 187 544.138 187 544.138C187 544.138 162 513.828 162 500.02C161.997 496.737 162.641 493.486 163.895 490.452C165.149 487.418 166.988 484.66 169.308 482.337C171.627 480.013 174.382 478.17 177.414 476.911C180.446 475.652 183.696 475.003 186.98 475C190.263 474.997 193.514 475.641 196.548 476.895C199.582 478.149 202.34 479.988 204.663 482.308C206.987 484.627 208.83 487.382 210.089 490.414C211.348 493.446 211.997 496.696 212 499.98L212 500.02Z" fill="#C8291F"/>
<path d="M187 509.842C192.424 509.842 196.821 505.445 196.821 500.02C196.821 494.596 192.424 490.199 187 490.199C181.576 490.199 177.179 494.596 177.179 500.02C177.179 505.445 181.576 509.842 187 509.842Z" fill="white"/>
<path d="M527.496 647.822C521.418 668.907 503.671 683.668 485.159 696.206C482.574 697.957 479.988 699.668 477.402 701.339C477.384 701.346 477.366 701.363 477.348 701.37C477.224 701.45 477.099 701.53 476.983 701.611C476.449 701.955 475.915 702.299 475.386 702.64L475.677 702.77C475.677 702.77 475.962 702.922 475.65 702.795C475.557 702.756 475.459 702.721 475.367 702.682C464.612 698.344 453.666 693.687 445.425 685.561C436.875 677.123 431.878 663.889 436.508 652.804C437.117 651.352 437.885 649.972 438.8 648.691C439.175 648.153 439.58 647.639 440.001 647.134C442.554 644.018 445.892 641.637 449.671 640.238C453.449 638.839 457.532 638.472 461.5 639.173C465.468 639.875 469.177 641.622 472.246 644.232C475.315 646.843 477.634 650.224 478.963 654.028C480.323 641.364 469.881 630.757 459.833 622.93C449.779 615.108 438.356 606.588 436.413 593.995C435.327 586.989 437.764 580.199 442.202 574.748C442.339 574.582 442.477 574.417 442.618 574.256C448.021 567.907 455.62 563.831 463.897 562.84C479.312 561.238 494.286 569.398 505.485 580.116C523.509 597.36 534.406 623.848 527.496 647.822Z" fill="#96AA5D"/>
<path d="M498.521 620.242C501.48 624.845 503.751 629.855 505.264 635.113C506.543 639.813 507.112 644.678 506.953 649.546C506.54 659.564 503.728 669.336 498.753 678.041C495.005 684.644 490.437 690.748 485.159 696.206C482.574 697.957 479.988 699.668 477.401 701.339C477.384 701.346 477.366 701.363 477.348 701.37C477.224 701.45 477.099 701.531 476.983 701.611C476.449 701.955 475.915 702.299 475.386 702.64C475.386 702.64 475.962 702.922 475.65 702.795C475.557 702.756 475.459 702.721 475.367 702.682C476.331 694.779 475.386 686.76 472.613 679.298C469.84 671.835 465.318 665.146 459.427 659.791C453.522 654.517 446.454 650.714 438.8 648.691C439.175 648.153 439.58 647.639 440.001 647.134C442.957 647.963 445.834 649.052 448.599 650.388C458.481 655.134 466.572 662.935 471.676 672.637C476.255 681.447 478.226 691.381 477.357 701.272C477.799 700.871 478.242 700.462 478.671 700.057C486.843 692.438 494.102 683.692 499.014 673.599C503.276 665.052 505.371 655.587 505.114 646.04C504.713 635.629 500.565 625.986 494.559 617.592C487.977 608.636 480.201 600.622 471.447 593.773C462.626 586.707 452.973 580.747 442.703 576.026C442.472 575.918 442.291 575.725 442.197 575.487C442.104 575.249 442.106 574.985 442.202 574.748C442.271 574.536 442.42 574.359 442.618 574.256C442.72 574.212 442.831 574.192 442.942 574.196C443.052 574.201 443.161 574.231 443.259 574.283C444.527 574.867 445.786 575.459 447.035 576.076C457.438 581.218 467.162 587.632 475.984 595.172C484.505 602.437 492.527 610.737 498.521 620.242Z" fill="#1F612A"/>
<path d="M344.007 309.443C336.91 306.142 328.196 305.059 320.975 308.127C313.754 311.195 308.83 319.059 311.166 326.018C312.224 329.173 314.635 332.276 313.696 335.463C312.973 337.916 310.451 339.535 307.973 340.687C305.496 341.838 302.787 342.806 300.995 344.748C299.204 346.69 298.83 350.034 301.068 351.54C301.805 352.036 302.727 352.271 303.442 352.794C304.051 353.289 304.491 353.962 304.699 354.719C304.908 355.476 304.875 356.279 304.606 357.016C304.01 358.5 303.025 359.796 301.755 360.767C299.215 362.958 295.857 365.465 296.646 368.576C296.939 369.407 297.427 370.155 298.071 370.757C298.715 371.359 299.494 371.797 300.343 372.034C302.106 372.542 303.935 372.783 305.77 372.75L380.736 375.111C383.211 375.297 385.699 375.158 388.138 374.698C389.323 374.482 390.451 374.023 391.451 373.351C392.451 372.68 393.302 371.809 393.951 370.793C395.386 368.136 394.444 364.862 392.671 362.381C390.898 359.9 388.389 357.942 386.316 355.664C384.242 353.386 382.546 350.541 382.911 347.597C383.204 345.239 384.759 343.202 385.875 341.06C386.991 338.918 387.639 336.241 386.194 334.271C384.157 331.494 379.267 331.745 376.951 329.158C375.203 327.206 375.54 324.395 375.367 321.877C374.949 315.82 370.756 310.1 364.786 307.444C361.751 306.141 358.45 305.579 355.154 305.803C351.859 306.028 348.664 307.033 345.833 308.735L344.007 309.443Z" fill="#2F2E41"/>
<path d="M296.634 689.598L284.893 686.07L292.912 639.103L310.241 644.31L296.634 689.598Z" fill="#A0616A"/>
<path d="M296.209 701.879L258.351 690.504L258.495 690.025C259.076 688.09 260.033 686.288 261.31 684.723C262.588 683.158 264.161 681.859 265.941 680.902C267.72 679.945 269.671 679.347 271.681 679.144C273.691 678.94 275.722 679.135 277.657 679.716L277.658 679.716L300.781 686.664L296.209 701.879Z" fill="#2F2E41"/>
<path d="M407.431 689.995L395.171 689.994L389.339 642.706L407.433 642.707L407.431 689.995Z" fill="#A0616A"/>
<path d="M410.557 701.879L371.027 701.877V701.377C371.027 699.357 371.425 697.356 372.198 695.489C372.971 693.622 374.105 691.926 375.533 690.497C376.962 689.069 378.658 687.935 380.525 687.162C382.392 686.389 384.393 685.991 386.413 685.991L410.558 685.992L410.557 701.879Z" fill="#2F2E41"/>
<path d="M390.412 654.229C389.343 654.228 388.308 653.846 387.494 653.152C386.68 652.458 386.14 651.497 385.971 650.44L367.768 536.886C367.647 536.134 367.284 535.441 366.735 534.914C366.185 534.387 365.478 534.053 364.722 533.964C363.965 533.875 363.2 534.035 362.543 534.42C361.886 534.804 361.372 535.393 361.079 536.097L313.918 649.633C313.479 650.681 312.661 651.525 311.627 651.997C310.593 652.468 309.419 652.532 308.339 652.177L291.305 646.498C290.245 646.148 289.353 645.415 288.804 644.442C288.255 643.469 288.09 642.326 288.339 641.237L326.988 470.216C327.177 469.392 327.593 468.638 328.189 468.038C328.785 467.439 329.537 467.018 330.36 466.824L382.192 454.792C382.829 454.647 383.49 454.641 384.13 454.774C384.769 454.907 385.373 455.175 385.9 455.562C420.03 480.36 417.147 561.383 410.786 649.359C410.707 650.461 410.225 651.494 409.433 652.264C408.642 653.033 407.595 653.485 406.492 653.533L390.61 654.225C390.544 654.227 390.478 654.229 390.412 654.229Z" fill="#2F2E41"/>
<path d="M346.781 374.531C360.345 374.531 371.342 363.534 371.342 349.969C371.342 336.405 360.345 325.408 346.781 325.408C333.216 325.408 322.22 336.405 322.22 349.969C322.22 363.534 333.216 374.531 346.781 374.531Z" fill="#A0616A"/>
<path d="M347.841 477.267C341.945 477.229 336.131 475.885 330.817 473.332L330.635 473.247L330.562 473.059L308.533 415.982L308.114 406.065C307.973 402.749 308.529 399.44 309.745 396.351C310.961 393.263 312.81 390.463 315.174 388.133C317.537 385.802 320.363 383.992 323.468 382.82C326.573 381.647 329.89 381.138 333.204 381.325L356.592 382.643C362.633 382.986 368.316 385.619 372.485 390.005C376.653 394.392 378.993 400.202 379.028 406.253C379.636 407.42 383.95 416.545 375.495 425.118C375.179 427.07 372.222 447.365 383.382 458.525L383.696 458.839L383.422 459.188C383.244 459.414 368.911 477.264 347.841 477.267Z" fill="#C8291F"/>
<path d="M380.683 481.572C382.065 481.071 383.32 480.273 384.361 479.234C385.401 478.196 386.201 476.942 386.704 475.56C387.207 474.179 387.401 472.704 387.273 471.24C387.144 469.775 386.696 468.357 385.96 467.084L409.319 440.041L390.904 437.644L371.546 463.692C369.49 465.07 368.011 467.155 367.389 469.551C366.767 471.946 367.046 474.487 368.172 476.691C369.299 478.895 371.194 480.609 373.5 481.509C375.806 482.408 378.362 482.431 380.683 481.572Z" fill="#A0616A"/>
<path d="M337.872 475.875C336.403 475.944 334.937 475.689 333.578 475.13C332.218 474.571 330.998 473.72 330.003 472.638C329.007 471.556 328.262 470.269 327.818 468.868C327.373 467.466 327.242 465.985 327.433 464.527L295.476 448.535L311.556 439.247L339.437 455.857C341.865 456.339 344.031 457.695 345.526 459.668C347.02 461.641 347.739 464.094 347.546 466.561C347.353 469.029 346.262 471.34 344.479 473.056C342.695 474.773 340.345 475.776 337.872 475.875Z" fill="#A0616A"/>
<path d="M395.287 460.699C394.41 460.699 393.552 460.442 392.819 459.959L381.266 452.382C380.294 451.747 379.606 450.762 379.346 449.631C379.085 448.501 379.272 447.313 379.867 446.317L388.23 432.266C388.683 431.505 388.97 430.658 389.071 429.779C389.173 428.901 389.088 428.01 388.821 427.167C388.554 426.323 388.112 425.546 387.524 424.885C386.935 424.224 386.214 423.696 385.407 423.334L361.379 412.562C358.424 411.22 356.012 408.915 354.538 406.023C353.064 403.132 352.616 399.826 353.267 396.647C353.716 394.502 354.654 392.491 356.007 390.768C357.36 389.046 359.093 387.659 361.07 386.715C363.047 385.771 365.215 385.296 367.405 385.327C369.596 385.358 371.749 385.894 373.699 386.893L410.151 405.571C412.61 406.831 414.768 408.608 416.477 410.78C418.185 412.951 419.405 415.466 420.051 418.153C420.697 420.84 420.755 423.634 420.221 426.345C419.687 429.056 418.573 431.62 416.956 433.86L398.936 458.83C398.52 459.409 397.972 459.88 397.337 460.205C396.703 460.531 396 460.7 395.287 460.699Z" fill="#C8291F"/>
<path d="M320.274 465.134C319.61 465.134 318.955 464.986 318.355 464.702L290.492 451.591C287.992 450.414 285.776 448.711 283.995 446.599C282.214 444.486 280.911 442.013 280.175 439.35C279.438 436.687 279.286 433.896 279.729 431.169C280.171 428.441 281.198 425.842 282.738 423.548L305.575 389.547C306.797 387.728 308.421 386.216 310.322 385.128C312.223 384.039 314.35 383.404 316.536 383.271C318.723 383.139 320.911 383.513 322.929 384.364C324.948 385.215 326.743 386.52 328.175 388.178C330.285 390.644 331.494 393.753 331.606 396.996C331.718 400.24 330.725 403.425 328.79 406.03L312.99 427.097C312.46 427.805 312.085 428.617 311.89 429.48C311.695 430.343 311.685 431.237 311.861 432.104C312.036 432.971 312.393 433.791 312.908 434.511C313.423 435.23 314.084 435.833 314.848 436.278L328.973 444.518C329.976 445.1 330.715 446.048 331.035 447.164C331.354 448.279 331.23 449.475 330.688 450.5L324.253 462.727C323.872 463.453 323.301 464.061 322.599 464.485C321.898 464.91 321.094 465.134 320.274 465.134Z" fill="#C8291F"/>
<path d="M321.654 346.478C329.41 345.855 335.85 338.106 335.044 330.367C334.953 333.557 336.038 336.669 338.092 339.111C340.146 341.554 343.026 343.155 346.185 343.612C349.743 344.004 353.643 342.928 356.74 344.723C360.17 346.711 361.268 351.539 364.841 353.256C368.294 354.915 372.679 352.652 374.385 349.222C376.09 345.793 375.672 341.672 374.541 338.012C372.929 332.793 369.994 328.08 366.02 324.331C362.047 320.582 357.171 317.926 351.867 316.619C346.563 315.313 341.011 315.402 335.751 316.877C330.492 318.352 325.703 321.163 321.852 325.037C318.59 328.318 316.001 332.499 315.581 337.105C315.161 341.712 317.298 346.711 321.435 348.78L321.654 346.478Z" fill="#2F2E41"/>
<path d="M599.395 702.719H2.52825C2.11277 702.719 1.71432 702.614 1.42053 702.426C1.12674 702.239 0.96167 701.984 0.96167 701.719C0.96167 701.454 1.12674 701.2 1.42053 701.012C1.71432 700.825 2.11277 700.719 2.52825 700.719H599.395C599.811 700.719 600.209 700.825 600.503 701.012C600.797 701.2 600.962 701.454 600.962 701.719C600.962 701.984 600.797 702.239 600.503 702.426C600.209 702.614 599.811 702.719 599.395 702.719Z" fill="#3F3D56"/>
</svg>
