<svg width="702" height="664" viewBox="0 0 702 664" fill="none" xmlns="http://www.w3.org/2000/svg">
<path opacity="0.3" d="M498.291 103.562C488.489 44.7884 437.401 0 375.855 0H124.157C62.6345 0 11.5587 44.7526 1.72125 103.49C0.585757 110.208 0 117.117 0 124.157V343.462C0 350.502 0.585757 357.399 1.72125 364.117C9.55063 410.913 43.5692 448.84 88.2023 462.312C99.5817 465.754 111.654 467.607 124.157 467.607H375.855C388.358 467.607 400.43 465.754 411.81 462.312C456.455 448.828 490.485 410.877 498.291 364.045C499.414 357.351 500 350.478 500 343.462V124.157C500 117.141 499.414 110.256 498.291 103.562ZM397.155 462.312C390.234 463.543 383.122 464.188 375.855 464.188H124.157C116.89 464.188 109.778 463.543 102.857 462.312C46.3423 452.259 3.43061 402.869 3.43061 343.462V270.667C3.43061 64.9773 170.165 3.43054 375.855 3.43054C442.529 3.43054 496.581 57.4827 496.581 124.157V343.462C334.724 365.121 453.67 452.259 397.155 462.312Z" fill="#92120A"/>
<g opacity="0.3">
<path d="M258.27 372.807C334.033 372.807 395.45 311.39 395.45 235.627C395.45 159.865 334.033 98.447 258.27 98.447C182.508 98.447 121.09 159.865 121.09 235.627C121.09 311.39 182.508 372.807 258.27 372.807Z" fill="#C8291F"/>
<path d="M340.465 224.618H323.412C320.759 208.984 312.571 194.825 300.345 184.727C272.209 161.487 230.559 165.457 207.32 193.594C207.24 193.684 207.164 193.776 207.091 193.871C205.234 196.278 205.68 199.734 208.087 201.592C210.493 203.449 213.95 203.003 215.808 200.596C225.903 188.364 241.184 180.581 258.27 180.581C284.429 180.584 306.975 198.989 312.215 224.618H297.177C296.533 224.618 295.911 224.844 295.416 225.255C294.248 226.228 294.09 227.964 295.063 229.132L316.707 255.114C316.813 255.241 316.931 255.358 317.058 255.464C318.225 256.438 319.961 256.281 320.935 255.114L342.579 229.132C342.99 228.637 343.216 228.015 343.216 227.371C343.217 225.851 341.985 224.619 340.465 224.618Z" fill="white"/>
<path d="M308.453 269.663C306.046 267.806 302.59 268.251 300.733 270.658C292.724 280.354 281.639 287.017 269.319 289.54C239.524 295.64 210.425 276.431 204.325 246.636H219.363C220.883 246.636 222.115 245.403 222.115 243.883C222.114 243.24 221.889 242.617 221.477 242.122L199.833 216.141C198.859 214.973 197.124 214.816 195.956 215.79C195.829 215.896 195.711 216.013 195.605 216.141L173.961 242.122C172.989 243.29 173.147 245.026 174.315 245.999C174.809 246.411 175.432 246.636 176.075 246.636H193.128C195.781 262.27 203.968 276.429 216.195 286.527C244.332 309.767 285.981 305.797 309.221 277.66C309.3 277.571 309.376 277.478 309.449 277.383C311.306 274.976 310.86 271.52 308.453 269.663Z" fill="white"/>
</g>
<path d="M143.38 646V591.455H178.856V599.738H153.261V614.546H177.018V622.829H153.261V637.717H179.069V646H143.38ZM188.51 646V605.091H197.726V612.042H198.205C199.057 609.699 200.469 607.87 202.44 606.556C204.411 605.224 206.763 604.558 209.498 604.558C212.268 604.558 214.602 605.233 216.502 606.582C218.42 607.914 219.769 609.734 220.551 612.042H220.977C221.882 609.77 223.409 607.958 225.558 606.609C227.724 605.242 230.29 604.558 233.255 604.558C237.019 604.558 240.091 605.748 242.47 608.127C244.849 610.506 246.039 613.978 246.039 618.541V646H236.371V620.032C236.371 617.493 235.696 615.638 234.347 614.466C232.997 613.276 231.346 612.681 229.393 612.681C227.067 612.681 225.247 613.409 223.933 614.865C222.637 616.304 221.989 618.177 221.989 620.485V646H212.534V619.633C212.534 617.52 211.895 615.833 210.616 614.572C209.356 613.312 207.704 612.681 205.662 612.681C204.278 612.681 203.017 613.037 201.881 613.747C200.744 614.439 199.839 615.425 199.164 616.703C198.489 617.964 198.152 619.437 198.152 621.124V646H188.51ZM255.82 661.341V605.091H265.302V611.856H265.861C266.358 610.862 267.059 609.805 267.965 608.686C268.87 607.55 270.096 606.582 271.64 605.783C273.185 604.967 275.156 604.558 277.553 604.558C280.714 604.558 283.563 605.366 286.102 606.982C288.659 608.58 290.683 610.95 292.175 614.093C293.684 617.218 294.439 621.053 294.439 625.599C294.439 630.091 293.702 633.908 292.228 637.051C290.754 640.194 288.748 642.591 286.209 644.242C283.67 645.893 280.793 646.719 277.58 646.719C275.236 646.719 273.292 646.328 271.747 645.547C270.202 644.766 268.959 643.825 268.018 642.724C267.095 641.605 266.376 640.549 265.861 639.555H265.461V661.341H255.82ZM265.275 625.545C265.275 628.191 265.648 630.508 266.394 632.497C267.157 634.485 268.249 636.039 269.669 637.158C271.108 638.259 272.848 638.809 274.89 638.809C277.02 638.809 278.805 638.241 280.243 637.104C281.681 635.95 282.764 634.379 283.492 632.39C284.238 630.384 284.611 628.102 284.611 625.545C284.611 623.006 284.247 620.751 283.519 618.781C282.791 616.81 281.708 615.265 280.27 614.146C278.831 613.028 277.038 612.468 274.89 612.468C272.83 612.468 271.081 613.01 269.643 614.093C268.205 615.176 267.113 616.694 266.367 618.647C265.639 620.6 265.275 622.9 265.275 625.545ZM323.123 605.091V612.548H299.606V605.091H323.123ZM305.412 595.29H315.053V633.695C315.053 634.991 315.248 635.986 315.639 636.678C316.047 637.353 316.58 637.815 317.237 638.063C317.894 638.312 318.622 638.436 319.421 638.436C320.025 638.436 320.575 638.392 321.072 638.303C321.587 638.214 321.978 638.134 322.244 638.063L323.869 645.6C323.354 645.778 322.617 645.973 321.658 646.186C320.717 646.4 319.563 646.524 318.196 646.559C315.781 646.63 313.606 646.266 311.671 645.467C309.735 644.651 308.199 643.39 307.063 641.685C305.944 639.981 305.394 637.85 305.412 635.293V595.29ZM337.179 661.341C335.865 661.341 334.649 661.234 333.53 661.021C332.429 660.826 331.55 660.595 330.893 660.329L333.131 652.818C334.533 653.227 335.785 653.422 336.886 653.404C337.987 653.386 338.954 653.04 339.789 652.365C340.641 651.708 341.36 650.608 341.946 649.063L342.772 646.852L327.937 605.091H338.164L347.593 635.986H348.019L357.474 605.091H367.727L351.348 650.954C350.584 653.12 349.572 654.975 348.312 656.52C347.051 658.083 345.506 659.272 343.677 660.089C341.866 660.924 339.7 661.341 337.179 661.341ZM429.97 608.873C429.526 607.435 428.914 606.147 428.132 605.011C427.369 603.857 426.445 602.871 425.362 602.055C424.297 601.238 423.072 600.625 421.687 600.217C420.302 599.791 418.793 599.578 417.159 599.578C414.23 599.578 411.619 600.315 409.329 601.788C407.039 603.262 405.236 605.428 403.922 608.287C402.626 611.128 401.978 614.59 401.978 618.674C401.978 622.793 402.626 626.282 403.922 629.141C405.219 632 407.021 634.175 409.329 635.666C411.637 637.14 414.318 637.877 417.372 637.877C420.142 637.877 422.539 637.344 424.563 636.279C426.605 635.213 428.177 633.704 429.278 631.751C430.378 629.78 430.929 627.472 430.929 624.826L433.166 625.173H418.358V617.449H440.49V624.001C440.49 628.67 439.496 632.71 437.507 636.119C435.519 639.528 432.784 642.156 429.304 644.002C425.824 645.831 421.829 646.746 417.319 646.746C412.294 646.746 407.882 645.618 404.082 643.363C400.3 641.091 397.344 637.868 395.213 633.695C393.1 629.505 392.044 624.533 392.044 618.781C392.044 614.377 392.665 610.444 393.908 606.982C395.169 603.52 396.927 600.581 399.182 598.166C401.437 595.734 404.082 593.887 407.118 592.626C410.155 591.348 413.457 590.709 417.026 590.709C420.045 590.709 422.859 591.153 425.469 592.04C428.079 592.911 430.396 594.153 432.42 595.769C434.462 597.385 436.14 599.303 437.454 601.522C438.768 603.741 439.629 606.192 440.037 608.873H429.97ZM449.619 646V605.091H458.967V611.909H459.393C460.139 609.548 461.418 607.728 463.229 606.449C465.057 605.153 467.144 604.505 469.487 604.505C470.02 604.505 470.615 604.532 471.272 604.585C471.947 604.62 472.506 604.683 472.95 604.771V613.64C472.541 613.498 471.893 613.374 471.006 613.267C470.136 613.143 469.292 613.081 468.475 613.081C466.718 613.081 465.137 613.463 463.735 614.226C462.35 614.972 461.258 616.011 460.459 617.342C459.66 618.674 459.26 620.21 459.26 621.95V646H449.619ZM490.395 646.826C487.802 646.826 485.468 646.364 483.39 645.441C481.331 644.5 479.697 643.115 478.49 641.286C477.3 639.457 476.705 637.202 476.705 634.521C476.705 632.213 477.131 630.304 477.984 628.795C478.836 627.286 479.999 626.078 481.473 625.173C482.946 624.267 484.606 623.583 486.453 623.122C488.317 622.642 490.244 622.296 492.233 622.083C494.63 621.835 496.574 621.613 498.065 621.417C499.557 621.204 500.64 620.885 501.315 620.458C502.007 620.015 502.353 619.331 502.353 618.408V618.248C502.353 616.241 501.758 614.688 500.569 613.587C499.379 612.486 497.666 611.936 495.429 611.936C493.067 611.936 491.194 612.451 489.809 613.48C488.442 614.51 487.518 615.727 487.039 617.129L478.037 615.851C478.747 613.365 479.919 611.288 481.552 609.619C483.186 607.932 485.184 606.671 487.545 605.837C489.907 604.984 492.517 604.558 495.375 604.558C497.346 604.558 499.308 604.789 501.261 605.251C503.214 605.712 504.999 606.476 506.615 607.541C508.23 608.589 509.527 610.018 510.503 611.829C511.497 613.64 511.995 615.904 511.995 618.621V646H502.726V640.38H502.407C501.821 641.517 500.995 642.582 499.93 643.576C498.882 644.553 497.559 645.343 495.961 645.947C494.381 646.533 492.525 646.826 490.395 646.826ZM492.898 639.741C494.834 639.741 496.512 639.359 497.932 638.596C499.353 637.815 500.445 636.785 501.208 635.506C501.989 634.228 502.38 632.834 502.38 631.325V626.504C502.078 626.753 501.563 626.984 500.835 627.197C500.125 627.41 499.326 627.596 498.438 627.756C497.55 627.916 496.671 628.058 495.801 628.182C494.931 628.306 494.177 628.413 493.538 628.502C492.099 628.697 490.812 629.017 489.676 629.461C488.539 629.904 487.643 630.526 486.986 631.325C486.329 632.106 486 633.118 486 634.361C486 636.137 486.648 637.477 487.945 638.383C489.241 639.288 490.892 639.741 492.898 639.741ZM521.689 661.341V605.091H531.171V611.856H531.73C532.227 610.862 532.929 609.805 533.834 608.686C534.74 607.55 535.965 606.582 537.51 605.783C539.054 604.967 541.025 604.558 543.422 604.558C546.583 604.558 549.432 605.366 551.972 606.982C554.528 608.58 556.552 610.95 558.044 614.093C559.553 617.218 560.308 621.053 560.308 625.599C560.308 630.091 559.571 633.908 558.097 637.051C556.623 640.194 554.617 642.591 552.078 644.242C549.539 645.893 546.663 646.719 543.449 646.719C541.105 646.719 539.161 646.328 537.616 645.547C536.071 644.766 534.828 643.825 533.887 642.724C532.964 641.605 532.245 640.549 531.73 639.555H531.331V661.341H521.689ZM531.144 625.545C531.144 628.191 531.517 630.508 532.263 632.497C533.026 634.485 534.118 636.039 535.539 637.158C536.977 638.259 538.717 638.809 540.759 638.809C542.889 638.809 544.674 638.241 546.112 637.104C547.55 635.95 548.633 634.379 549.361 632.39C550.107 630.384 550.48 628.102 550.48 625.545C550.48 623.006 550.116 620.751 549.388 618.781C548.66 616.81 547.577 615.265 546.139 614.146C544.701 613.028 542.907 612.468 540.759 612.468C538.699 612.468 536.95 613.01 535.512 614.093C534.074 615.176 532.982 616.694 532.236 618.647C531.508 620.6 531.144 622.9 531.144 625.545ZM578.206 622.03V646H568.564V591.455H577.992V612.042H578.472C579.431 609.734 580.913 607.914 582.92 606.582C584.944 605.233 587.518 604.558 590.643 604.558C593.484 604.558 595.961 605.153 598.074 606.343C600.187 607.532 601.821 609.272 602.975 611.563C604.147 613.853 604.733 616.65 604.733 619.952V646H595.091V621.444C595.091 618.692 594.381 616.552 592.96 615.025C591.558 613.48 589.587 612.708 587.048 612.708C585.343 612.708 583.816 613.081 582.467 613.827C581.135 614.555 580.088 615.611 579.324 616.996C578.578 618.381 578.206 620.059 578.206 622.03ZM614.56 646V605.091H624.202V646H614.56ZM619.408 599.285C617.881 599.285 616.567 598.779 615.466 597.767C614.365 596.737 613.815 595.503 613.815 594.065C613.815 592.609 614.365 591.375 615.466 590.363C616.567 589.333 617.881 588.818 619.408 588.818C620.952 588.818 622.266 589.333 623.349 590.363C624.45 591.375 625.001 592.609 625.001 594.065C625.001 595.503 624.45 596.737 623.349 597.767C622.266 598.779 620.952 599.285 619.408 599.285ZM651.96 646.799C647.877 646.799 644.37 645.902 641.44 644.109C638.528 642.316 636.282 639.839 634.702 636.678C633.139 633.5 632.358 629.842 632.358 625.705C632.358 621.55 633.157 617.884 634.755 614.706C636.353 611.51 638.608 609.024 641.52 607.248C644.45 605.455 647.912 604.558 651.907 604.558C655.227 604.558 658.166 605.171 660.723 606.396C663.297 607.603 665.348 609.317 666.875 611.536C668.402 613.738 669.272 616.312 669.485 619.26H660.27C659.897 617.289 659.009 615.647 657.607 614.333C656.222 613.001 654.366 612.335 652.04 612.335C650.069 612.335 648.338 612.868 646.847 613.933C645.355 614.981 644.192 616.49 643.358 618.461C642.541 620.432 642.133 622.793 642.133 625.545C642.133 628.333 642.541 630.73 643.358 632.737C644.175 634.725 645.32 636.261 646.794 637.344C648.285 638.409 650.034 638.942 652.04 638.942C653.461 638.942 654.73 638.676 655.849 638.143C656.985 637.593 657.935 636.803 658.699 635.773C659.462 634.743 659.986 633.491 660.27 632.017H669.485C669.254 634.912 668.402 637.477 666.928 639.714C665.455 641.934 663.448 643.674 660.909 644.935C658.37 646.178 655.387 646.799 651.96 646.799Z" fill="black"/>
<g opacity="0.3">
<path d="M596.706 285.304L601.938 319.314L678.679 308.85L671.267 269.113L596.706 285.304Z" fill="#6C63FF"/>
<path d="M656.934 94.4601H625.205V127.303H656.934V94.4601Z" fill="#2F2E41"/>
<path d="M628.1 129.207L635.949 105.661H651.247L652.051 129.207H628.1Z" fill="#FFB6B6"/>
<path opacity="0.1" d="M628.1 129.207L635.949 105.661H651.247L652.051 129.207H628.1Z" fill="black"/>
<path d="M636.384 338.936L635.512 429.63L634.64 436.606V446.621L647.721 447.943L648.593 427.885C648.593 427.885 662.546 388.643 659.058 358.121C655.57 327.599 657.314 336.32 657.314 336.32L636.384 338.936Z" fill="#FFB6B6"/>
<path d="M644.688 346.058L612.508 430.855L610.783 437.671L607.14 447L594.474 443.472L600.958 424.472C600.958 424.472 602.237 382.843 616.589 355.681C630.942 328.519 626.145 336.007 626.145 336.007L644.688 346.058Z" fill="#FFB6B6"/>
<path d="M628.1 126.59L604.555 137.055L619.588 214.679L617.213 326.089L601.516 359.227C601.516 359.227 598.886 378.178 625.92 365.97C652.954 353.761 683.476 350.273 683.476 350.273L676.063 299.257L669.523 165.397L670.395 135.747L651.209 123.538C651.209 123.538 628.1 126.59 628.1 126.59Z" fill="#92120A"/>
<path d="M614.986 360.438L588.858 316.698L618.716 214.678L604.555 137.055L629.4 126.419C629.4 126.419 642.262 138.944 642.262 149.274C642.262 159.605 614.986 360.438 614.986 360.438Z" fill="black"/>
<path d="M671.67 351.717L647.953 147.981C647.653 145.408 648.092 142.803 649.219 140.471L656.006 126.419L682.604 134.003L671.912 217.295L700.481 299.257L671.67 351.717Z" fill="black"/>
<path d="M650.338 446.199C650.338 446.199 633.769 436.606 632.025 441.838C630.28 447.071 629.408 451.431 629.408 451.431C629.408 451.431 625.048 468 638.129 468C651.21 468 650.338 460.464 650.338 460.464V446.199Z" fill="#2F2E41"/>
<path d="M592.672 440.896C592.672 440.896 611.595 437.988 611.316 443.496C611.038 449.005 610.264 453.384 610.264 453.384C610.264 453.384 608.298 470.404 596.113 465.645C583.929 460.886 587.482 454.184 587.482 454.184L592.672 440.896Z" fill="#2F2E41"/>
<path d="M644.618 118.476C656.591 118.476 666.297 108.77 666.297 96.7965C666.297 84.8234 656.591 75.1173 644.618 75.1173C632.645 75.1173 622.938 84.8234 622.938 96.7965C622.938 108.77 632.645 118.476 644.618 118.476Z" fill="#FFB6B6"/>
<path d="M661.938 77.4772C660.929 72.1321 655.442 68.5167 650.022 68.0634C644.601 67.61 639.291 69.6568 634.41 72.0567C631.101 73.6835 627.843 75.5171 625.162 78.0493C622.482 80.5815 620.4 83.8894 619.92 87.5452C619.749 88.8387 619.771 90.1901 619.242 91.3824C618.581 92.8719 617.161 93.8834 616.304 95.2697C614.767 97.7559 615.473 101.373 617.832 103.099C614.867 104.362 611.82 105.68 609.56 107.978C607.299 110.276 605.994 113.824 607.235 116.799C607.673 117.851 608.399 118.773 608.774 119.85C609.486 121.895 608.808 124.218 607.545 125.977C606.281 127.735 604.498 129.039 602.747 130.313C607.248 131.195 611.843 131.882 616.412 131.471C620.981 131.059 625.566 129.458 628.874 126.281C632.183 123.103 634.003 118.202 632.816 113.771C631.906 110.376 629.363 107.402 629.365 103.888C629.366 101.187 630.885 98.7502 632.352 96.4818C635.555 91.528 638.758 86.5741 641.961 81.6203C642.537 80.7292 643.144 79.8071 644.055 79.262C645.604 78.3348 647.612 78.7426 649.245 79.5122C650.878 80.2818 652.37 81.3859 654.111 81.8631C657.664 82.837 661.786 80.6005 662.906 77.0907" fill="#2F2E41"/>
<path d="M649.132 121.566C647.325 123.316 644.722 123.879 642.309 124.588C639.896 125.297 637.33 126.412 636.244 128.68C635.179 130.904 635.952 133.728 637.715 135.452C639.478 137.176 642.039 137.902 644.505 137.868C646.97 137.834 649.373 137.111 651.692 136.272C658.032 133.978 664.037 130.759 669.458 126.75C665.947 125.778 663.649 121.678 664.655 118.176C665.472 115.327 667.973 113.34 669.674 110.913C672.604 106.735 673.092 101.227 672.122 96.2168C671.152 91.2067 668.868 86.5623 666.608 81.987C665.893 80.5407 665.162 79.0699 664.047 77.9036C662.932 76.7374 661.354 75.9019 659.75 76.069C657.087 76.3463 655.387 79.2694 655.369 81.9464C655.351 84.6235 656.525 87.1394 657.416 89.664C658.333 92.265 658.971 95.022 658.725 97.7691C658.519 100.071 657.682 102.314 656.329 104.188C655.284 105.635 653.952 106.849 652.816 108.226C651.938 109.291 651.159 110.496 650.928 111.857C650.508 114.333 651.961 116.838 651.563 119.317C651.142 121.938 648.384 123.945 645.76 123.539" fill="#2F2E41"/>
<path d="M603.525 274.846C602.628 281.27 598.585 286.014 594.497 285.442C590.409 284.87 587.824 279.199 588.723 272.773C589.047 270.201 589.982 267.744 591.45 265.608L595.597 238.438L608.306 240.656L602.868 267.205C603.694 269.663 603.92 272.283 603.525 274.846Z" fill="#FFB6B6"/>
<path d="M614.583 135.747C614.583 135.747 601.502 131.387 599.758 147.084C598.014 162.781 596.27 181.966 596.27 181.966C596.27 181.966 588.422 200.279 591.91 209.872C595.398 219.464 601.502 212.776 595.398 220.916C589.294 229.057 590.144 255.84 590.144 255.84L609.787 254.851C609.787 254.851 620.688 182.838 620.688 181.094C620.688 179.35 614.583 135.747 614.583 135.747Z" fill="black"/>
<path d="M699.608 271.93C699.851 278.412 696.704 283.791 692.579 283.945C688.454 284.099 684.914 278.97 684.672 272.486C684.539 269.897 685.029 267.315 686.099 264.954L685.416 237.478L698.316 237.432L697.621 264.523C698.865 266.798 699.547 269.338 699.608 271.93Z" fill="#FFB6B6"/>
<path d="M679.471 135.452C679.471 135.452 692.627 131.327 694.091 147.052C695.554 162.778 696.955 191.584 696.955 191.584C696.955 191.584 704.475 210.034 700.816 219.563C697.157 229.092 691.173 222.296 697.131 230.544C703.089 238.792 700.951 262.052 700.951 262.052L681.329 260.713C681.329 260.713 672.526 192.019 672.557 190.276C672.588 188.532 679.471 135.452 679.471 135.452Z" fill="black"/>
</g>
</svg>
