<svg width="702" height="468" viewBox="0 0 702 468" fill="none" xmlns="http://www.w3.org/2000/svg">
<path d="M498.291 103.562C488.489 44.7884 437.401 0 375.855 0H124.157C62.6345 0 11.5587 44.7526 1.72125 103.49C0.585757 110.208 0 117.117 0 124.157V343.462C0 350.502 0.585757 357.399 1.72125 364.117C9.55063 410.913 43.5692 448.84 88.2023 462.312C99.5817 465.754 111.654 467.607 124.157 467.607H375.855C388.358 467.607 400.43 465.754 411.81 462.312C456.455 448.828 490.485 410.877 498.291 364.045C499.414 357.351 500 350.478 500 343.462V124.157C500 117.141 499.414 110.256 498.291 103.562ZM397.155 462.312C390.234 463.543 383.122 464.188 375.855 464.188H124.157C116.89 464.188 109.778 463.543 102.857 462.312C46.3423 452.259 3.43061 402.869 3.43061 343.462V270.667C3.43061 64.9773 170.165 3.43054 375.855 3.43054C442.529 3.43054 496.581 57.4827 496.581 124.157V343.462C334.724 365.121 453.67 452.259 397.155 462.312Z" fill="#92120A"/>
<path d="M258.27 372.807C334.033 372.807 395.45 311.39 395.45 235.627C395.45 159.865 334.033 98.447 258.27 98.447C182.507 98.447 121.09 159.865 121.09 235.627C121.09 311.39 182.507 372.807 258.27 372.807Z" fill="#C8291F"/>
<path d="M340.465 224.618H323.411C320.759 208.984 312.571 194.825 300.345 184.727C272.208 161.487 230.559 165.457 207.319 193.594C207.24 193.684 207.164 193.776 207.091 193.871C205.234 196.278 205.68 199.734 208.087 201.592C210.493 203.449 213.95 203.003 215.807 200.596C225.903 188.364 241.184 180.581 258.27 180.581C284.429 180.584 306.975 198.989 312.215 224.618H297.177C296.533 224.618 295.911 224.844 295.416 225.255C294.248 226.228 294.09 227.964 295.063 229.132L316.707 255.114C316.813 255.241 316.93 255.358 317.058 255.464C318.225 256.438 319.961 256.281 320.934 255.114L342.579 229.132C342.99 228.637 343.216 228.015 343.216 227.371C343.217 225.851 341.985 224.619 340.465 224.618Z" fill="white"/>
<path d="M308.453 269.663C306.046 267.806 302.589 268.251 300.732 270.658C292.724 280.354 281.639 287.017 269.319 289.54C239.524 295.64 210.425 276.431 204.324 246.636H219.363C220.883 246.636 222.115 245.403 222.115 243.883C222.114 243.24 221.888 242.617 221.477 242.122L199.833 216.141C198.859 214.973 197.124 214.816 195.956 215.79C195.829 215.896 195.711 216.013 195.605 216.141L173.961 242.122C172.988 243.29 173.147 245.026 174.315 245.999C174.809 246.411 175.432 246.636 176.075 246.636H193.128C195.781 262.27 203.968 276.429 216.195 286.527C244.331 309.767 285.981 305.797 309.22 277.66C309.3 277.571 309.376 277.478 309.449 277.383C311.306 274.976 310.86 271.52 308.453 269.663Z" fill="white"/>
<path d="M596.706 285.304L601.938 319.314L678.679 308.85L671.267 269.113L596.706 285.304Z" fill="#6C63FF"/>
<path d="M656.934 94.4601H625.205V127.303H656.934V94.4601Z" fill="#2F2E41"/>
<path d="M628.1 129.207L635.949 105.661H651.247L652.051 129.207H628.1Z" fill="#FFB6B6"/>
<path opacity="0.1" d="M628.1 129.207L635.949 105.661H651.247L652.051 129.207H628.1Z" fill="black"/>
<path d="M636.385 338.936L635.513 429.63L634.641 436.606V446.621L647.721 447.943L648.593 427.885C648.593 427.885 662.546 388.643 659.058 358.121C655.57 327.599 657.314 336.32 657.314 336.32L636.385 338.936Z" fill="#FFB6B6"/>
<path d="M644.688 346.058L612.508 430.855L610.783 437.671L607.14 447L594.474 443.472L600.958 424.472C600.958 424.472 602.237 382.843 616.589 355.681C630.942 328.519 626.145 336.007 626.145 336.007L644.688 346.058Z" fill="#FFB6B6"/>
<path d="M628.1 126.59L604.555 137.055L619.588 214.679L617.213 326.089L601.516 359.227C601.516 359.227 598.886 378.178 625.92 365.97C652.954 353.761 683.476 350.273 683.476 350.273L676.063 299.257L669.523 165.397L670.395 135.747L651.21 123.538C651.21 123.538 628.1 126.59 628.1 126.59Z" fill="#92120A"/>
<path d="M614.986 360.438L588.858 316.698L618.716 214.678L604.555 137.055L629.4 126.419C629.4 126.419 642.262 138.944 642.262 149.274C642.262 159.605 614.986 360.438 614.986 360.438Z" fill="black"/>
<path d="M671.67 351.717L647.953 147.981C647.653 145.408 648.092 142.804 649.219 140.471L656.006 126.419L682.604 134.003L671.912 217.295L700.481 299.257L671.67 351.717Z" fill="black"/>
<path d="M650.338 446.199C650.338 446.199 633.768 436.606 632.024 441.838C630.28 447.071 629.408 451.431 629.408 451.431C629.408 451.431 625.048 468 638.129 468C651.21 468 650.338 460.464 650.338 460.464V446.199Z" fill="#2F2E41"/>
<path d="M592.672 440.896C592.672 440.896 611.595 437.988 611.316 443.496C611.038 449.005 610.264 453.384 610.264 453.384C610.264 453.384 608.298 470.404 596.113 465.645C583.929 460.886 587.482 454.184 587.482 454.184L592.672 440.896Z" fill="#2F2E41"/>
<path d="M644.618 118.476C656.591 118.476 666.297 108.77 666.297 96.7965C666.297 84.8234 656.591 75.1173 644.618 75.1173C632.645 75.1173 622.938 84.8234 622.938 96.7965C622.938 108.77 632.645 118.476 644.618 118.476Z" fill="#FFB6B6"/>
<path d="M661.938 77.4772C660.929 72.1321 655.442 68.5167 650.022 68.0634C644.601 67.61 639.291 69.6568 634.41 72.0567C631.101 73.6835 627.843 75.5171 625.162 78.0493C622.482 80.5815 620.4 83.8894 619.919 87.5452C619.749 88.8387 619.771 90.1901 619.242 91.3824C618.581 92.8719 617.161 93.8834 616.304 95.2697C614.767 97.7559 615.473 101.373 617.832 103.099C614.867 104.362 611.82 105.68 609.56 107.978C607.299 110.276 605.994 113.824 607.234 116.799C607.673 117.851 608.398 118.773 608.773 119.85C609.486 121.895 608.808 124.218 607.545 125.977C606.281 127.735 604.498 129.039 602.747 130.313C607.248 131.195 611.843 131.882 616.412 131.471C620.98 131.059 625.566 129.458 628.874 126.281C632.183 123.103 634.003 118.202 632.816 113.771C631.906 110.376 629.363 107.402 629.365 103.888C629.366 101.187 630.885 98.7502 632.352 96.4818C635.554 91.528 638.757 86.5741 641.96 81.6203C642.537 80.7292 643.144 79.8071 644.055 79.262C645.603 78.3348 647.612 78.7426 649.245 79.5122C650.878 80.2818 652.37 81.3859 654.111 81.8631C657.664 82.837 661.786 80.6005 662.906 77.0907" fill="#2F2E41"/>
<path d="M649.132 121.566C647.325 123.316 644.722 123.879 642.309 124.588C639.896 125.297 637.33 126.412 636.244 128.68C635.179 130.904 635.952 133.728 637.715 135.452C639.478 137.176 642.039 137.902 644.505 137.868C646.97 137.834 649.373 137.111 651.692 136.272C658.032 133.978 664.037 130.759 669.458 126.75C665.947 125.778 663.65 121.678 664.655 118.176C665.472 115.327 667.973 113.34 669.674 110.913C672.604 106.735 673.092 101.227 672.122 96.2168C671.152 91.2067 668.868 86.5623 666.608 81.987C665.893 80.5407 665.162 79.0699 664.047 77.9036C662.932 76.7374 661.354 75.9019 659.75 76.069C657.087 76.3463 655.387 79.2694 655.369 81.9464C655.351 84.6235 656.525 87.1394 657.416 89.664C658.333 92.265 658.971 95.022 658.725 97.7691C658.519 100.071 657.682 102.314 656.329 104.188C655.284 105.635 653.952 106.849 652.816 108.226C651.938 109.291 651.159 110.496 650.929 111.857C650.508 114.333 651.961 116.838 651.563 119.317C651.142 121.938 648.384 123.945 645.761 123.539" fill="#2F2E41"/>
<path d="M603.525 274.846C602.627 281.27 598.585 286.014 594.497 285.442C590.409 284.87 587.824 279.199 588.723 272.773C589.047 270.201 589.982 267.744 591.45 265.608L595.597 238.438L608.306 240.656L602.868 267.205C603.694 269.663 603.919 272.283 603.525 274.846Z" fill="#FFB6B6"/>
<path d="M614.583 135.747C614.583 135.747 601.502 131.387 599.758 147.084C598.014 162.781 596.27 181.966 596.27 181.966C596.27 181.966 588.422 200.279 591.91 209.872C595.398 219.464 601.502 212.776 595.398 220.916C589.294 229.057 590.144 255.84 590.144 255.84L609.787 254.851C609.787 254.851 620.688 182.838 620.688 181.094C620.688 179.35 614.583 135.747 614.583 135.747Z" fill="black"/>
<path d="M699.608 271.93C699.851 278.412 696.704 283.791 692.579 283.945C688.454 284.099 684.914 278.97 684.672 272.486C684.54 269.897 685.029 267.315 686.1 264.954L685.416 237.478L698.317 237.432L697.621 264.523C698.865 266.798 699.547 269.338 699.608 271.93Z" fill="#FFB6B6"/>
<path d="M679.471 135.452C679.471 135.452 692.627 131.327 694.091 147.052C695.554 162.778 696.955 191.584 696.955 191.584C696.955 191.584 704.475 210.034 700.816 219.563C697.157 229.092 691.173 222.296 697.131 230.544C703.089 238.792 700.951 262.052 700.951 262.052L681.329 260.713C681.329 260.713 672.526 192.019 672.557 190.276C672.588 188.532 679.471 135.452 679.471 135.452Z" fill="black"/>
</svg>
