<svg width="298" height="240" viewBox="0 0 298 240" fill="none" xmlns="http://www.w3.org/2000/svg">
<path d="M50.769 165.266C49.031 166.971 48.0363 169.293 48.001 171.727C47.9657 174.162 48.8926 176.511 50.5803 178.266L107.304 236.195C108.153 237.074 109.168 237.775 110.291 238.258C111.414 238.74 112.621 238.995 113.843 239.007C115.066 239.019 116.278 238.787 117.41 238.326C118.542 237.865 119.57 237.184 120.436 236.322L295.287 58.8914C296.26 57.922 297.004 56.7473 297.465 55.4532C297.926 54.1591 298.092 52.7783 297.951 51.4119C297.81 50.0454 297.365 48.7278 296.649 47.5553C295.933 46.3829 294.964 45.3853 293.813 44.6354L228.768 1.50891C227.016 0.355646 224.921 -0.161416 222.833 0.044086C220.745 0.249588 218.791 1.1652 217.297 2.63801L50.769 165.266Z" fill="#3F3D56"/>
<path d="M285.037 52.0315L277.785 47.4079C278.549 48.769 278.829 50.3487 278.581 51.8896C278.332 53.4305 277.569 54.8418 276.416 55.8938C275.263 56.9457 273.788 57.5762 272.231 57.6826C270.674 57.789 269.126 57.3651 267.841 56.4798L220.914 24.2174C219.847 23.4852 219.007 22.4681 218.491 21.2819C217.974 20.0958 217.801 18.7883 217.991 17.5085C218.181 16.2288 218.727 15.0282 219.567 14.0438C220.406 13.0593 221.506 12.3305 222.739 11.9404L219.003 9.55828C218.518 9.24918 217.942 9.11559 217.371 9.17978C216.8 9.24398 216.268 9.50207 215.863 9.91104L57.9972 165.051C57.7617 165.289 57.5762 165.572 57.4516 165.883C57.3271 166.194 57.2659 166.527 57.2719 166.862C57.2778 167.197 57.3507 167.528 57.4861 167.834C57.6216 168.141 57.817 168.417 58.0608 168.647L115.394 224.512C115.869 224.96 116.5 225.205 117.153 225.196C117.807 225.187 118.431 224.924 118.893 224.463L285.46 55.9318C285.727 55.6659 285.93 55.3435 286.056 54.9884C286.181 54.6332 286.225 54.2545 286.185 53.8801C286.144 53.5056 286.02 53.1451 285.821 52.8252C285.622 52.5052 285.354 52.234 285.037 52.0315Z" fill="white"/>
<path d="M102.835 130.794L151.263 176.455L266.454 62.6484L207.994 24.5977L102.835 130.794Z" fill="#DCE9F3"/>
<path d="M261.976 90.7352C262.296 91.0399 262.72 91.2099 263.162 91.2099C263.603 91.2099 264.027 91.0399 264.347 90.7352L274.42 80.662C274.734 80.3474 274.91 79.9212 274.91 79.4769C274.91 79.0327 274.734 78.6065 274.42 78.2919C274.101 77.9872 273.676 77.8171 273.235 77.8171C272.794 77.8171 272.369 77.9872 272.05 78.2919L261.976 88.3651C261.663 88.6797 261.487 89.1059 261.487 89.5501C261.487 89.9944 261.663 90.4206 261.976 90.7352Z" fill="#3F3D56"/>
<path d="M245.007 107.705C245.322 108.018 245.748 108.194 246.192 108.194C246.637 108.194 247.063 108.018 247.378 107.705L257.451 97.6313C257.607 97.4757 257.731 97.2909 257.815 97.0875C257.899 96.8841 257.943 96.666 257.943 96.4458C257.943 96.2256 257.9 96.0075 257.815 95.804C257.731 95.6006 257.608 95.4157 257.452 95.26C257.296 95.1042 257.111 94.9807 256.908 94.8965C256.704 94.8123 256.486 94.769 256.266 94.769C256.046 94.7691 255.828 94.8126 255.624 94.897C255.421 94.9814 255.236 95.1051 255.081 95.2609L245.007 105.334C244.694 105.649 244.517 106.075 244.517 106.52C244.517 106.964 244.694 107.39 245.007 107.705Z" fill="#3F3D56"/>
<path d="M103.953 181.301C110.201 181.301 115.266 176.236 115.266 169.988C115.266 163.74 110.201 158.675 103.953 158.675C97.7055 158.675 92.6406 163.74 92.6406 169.988C92.6406 176.236 97.7055 181.301 103.953 181.301Z" fill="#6C63FF"/>
<path d="M193.58 58.4053H130.8C129.118 58.4034 127.505 57.7342 126.315 56.5445C125.125 55.3548 124.456 53.7417 124.454 52.0592V10.8744C124.456 9.19189 125.125 7.57885 126.315 6.38914C127.505 5.19944 129.118 4.53023 130.8 4.52832H193.58C195.262 4.53022 196.876 5.19944 198.065 6.38914C199.255 7.57885 199.924 9.19189 199.926 10.8744V52.0592C199.924 53.7417 199.255 55.3548 198.065 56.5445C196.876 57.7342 195.262 58.4034 193.58 58.4053Z" fill="#70AF77"/>
<path d="M189.168 9.67456H135.214C133.682 9.67606 132.213 10.2851 131.13 11.3681C130.046 12.4511 129.437 13.9197 129.434 15.4517V47.4803C129.436 49.0126 130.046 50.4815 131.13 51.565C132.213 52.6485 133.682 53.2582 135.214 53.2603H169.619C176.334 53.2536 182.772 50.5832 187.52 45.835C192.268 41.0868 194.938 34.6488 194.945 27.9339V15.4517C194.943 13.92 194.334 12.4515 193.251 11.3684C192.168 10.2853 190.7 9.67616 189.168 9.67456Z" fill="white"/>
<path d="M173.921 20.5027L173.759 20.7933C175.195 17.2562 173.89 12.8976 171.329 10.2304C168.769 7.56329 165.21 6.34396 161.705 5.86021C159.103 5.50113 156.402 5.5115 153.929 6.46452C150.346 7.84462 147.609 11.0394 145.324 14.3629C144.278 15.883 143.251 17.616 143.355 19.516C143.451 21.2792 144.498 22.7754 145.355 24.2714C146.212 25.7673 146.928 27.6232 146.313 29.2559C145.946 30.2289 145.172 30.9296 144.543 31.7255C143.914 32.5214 143.397 33.5972 143.701 34.5958C143.836 34.9779 144.067 35.3185 144.373 35.5842C144.679 35.85 145.048 36.0319 145.446 36.1121C146.215 36.2405 147.001 36.2218 147.763 36.0572L167.741 33.039C169.098 32.8338 170.386 32.3035 171.494 31.4931C172.602 30.6828 173.498 29.6165 174.105 28.3851C174.712 27.1537 175.012 25.7937 174.98 24.4212C174.948 23.0487 174.585 21.7043 173.921 20.5027Z" fill="#2F2E41"/>
<path d="M159.061 32.8994C164.455 32.8994 168.828 28.5265 168.828 23.1322C168.828 17.7379 164.455 13.365 159.061 13.365C153.667 13.365 149.294 17.7379 149.294 23.1322C149.294 28.5265 153.667 32.8994 159.061 32.8994Z" fill="#FFB9B9"/>
<path d="M184.549 48.3795C180.22 51.5566 174.988 53.2668 169.619 53.2604H139.647C139.587 53.2115 139.529 53.1627 139.469 53.111L142.264 45.3114C142.896 43.9261 143.893 42.7388 145.148 41.877C146.403 41.0151 147.869 40.5111 149.389 40.419L151.167 40.3099L155.407 36.6528C155.407 36.6528 166.832 36.2449 166.663 36.0496L173.583 40.2122L173.577 40.1835L176.298 40.3501C177.818 40.4418 179.284 40.9456 180.539 41.8075C181.794 42.6694 182.791 43.8569 183.422 45.2424L184.549 48.3795Z" fill="#6C63FF"/>
<path d="M168.326 14.0672C168.074 12.7334 166.713 12.1233 165.548 11.8277C162.167 10.9652 158.65 10.772 155.195 11.2592C152.677 11.6184 150.098 12.4104 148.271 14.3762C146.798 16.0315 145.963 18.158 145.916 20.3737C145.842 21.6985 146.138 23.0178 146.771 24.1838C147.054 24.7266 147.474 25.1865 147.989 25.5182C148.503 25.8499 149.095 26.0421 149.707 26.0759L149.824 26.4834C154.728 25.8002 159.283 22.749 162.152 18.226C161.613 20.1486 160.542 21.8796 159.061 23.2189C162.372 21.8942 165.25 19.6762 167.374 16.8122C167.954 16.0421 168.517 15.0819 168.326 14.0672Z" fill="#2F2E41"/>
<path d="M69.1256 60.3633H6.34603C4.66354 60.3614 3.0505 59.6922 1.86081 58.5025C0.671109 57.3128 0.00189927 55.6997 0 54.0172V12.8324C0.00190079 11.1499 0.671109 9.53686 1.86081 8.34715C3.0505 7.15745 4.66354 6.48824 6.34603 6.48633H69.1256C70.8081 6.48823 72.4212 7.15744 73.6109 8.34714C74.8006 9.53685 75.4698 11.1499 75.4717 12.8324V54.0172C75.4698 55.6997 74.8006 57.3128 73.6109 58.5025C72.4212 59.6922 70.8081 60.3614 69.1256 60.3633Z" fill="#70AF77"/>
<path d="M64.7136 11.6328H10.76C9.22811 11.6347 7.75944 12.2438 6.67596 13.3268C5.59247 14.4097 4.98259 15.8781 4.97998 17.41V49.4385C4.98213 50.9708 5.59179 52.4398 6.67529 53.5233C7.75879 54.6068 9.2277 55.2164 10.76 55.2186H45.1643C51.8796 55.2131 58.3183 52.543 63.0668 47.7946C67.8152 43.0462 70.4853 36.6075 70.4907 29.8922V17.4099C70.4891 15.8782 69.88 14.4097 68.7969 13.3267C67.7138 12.2436 66.2453 11.6344 64.7136 11.6328Z" fill="white"/>
<path d="M24.769 17.8463C27.31 17.8463 29.3699 15.7863 29.3699 13.2453C29.3699 10.7042 27.31 8.64429 24.769 8.64429C22.2279 8.64429 20.168 10.7042 20.168 13.2453C20.168 15.7863 22.2279 17.8463 24.769 17.8463Z" fill="#2F2E41"/>
<path d="M32.1302 35.3302C38.5675 35.3302 43.786 30.1117 43.786 23.6744C43.786 17.237 38.5675 12.0186 32.1302 12.0186C25.6929 12.0186 20.4744 17.237 20.4744 23.6744C20.4744 30.1117 25.6929 35.3302 32.1302 35.3302Z" fill="#2F2E41"/>
<path d="M33.095 35.3271C38.326 35.3271 42.5666 31.0865 42.5666 25.8555C42.5666 20.6244 38.326 16.3838 33.095 16.3838C27.8639 16.3838 23.6233 20.6244 23.6233 25.8555C23.6233 31.0865 27.8639 35.3271 33.095 35.3271Z" fill="#9E616A"/>
<path d="M39.527 16.2005C37.8673 15.1887 35.9662 14.6413 34.0225 14.6157C32.0789 14.5901 30.164 15.0871 28.4782 16.0548C26.7924 17.0225 25.3975 18.4254 24.4394 20.1167C23.4813 21.8081 22.9952 23.7257 23.032 25.6692C27.8583 26.881 32.9286 27.8083 38.0755 25.9591L39.291 22.9843L40.0076 25.9613C41.575 26.6019 43.1465 27.144 44.7179 25.9551C44.7821 24.0171 44.3364 22.0962 43.4255 20.3844C42.5146 18.6726 41.1703 17.2299 39.527 16.2005Z" fill="#2F2E41"/>
<path d="M20.4851 0.755469C18.8697 0.0659946 17.0936 -0.157688 15.3577 0.109727C13.6218 0.377142 11.9954 1.12498 10.6624 2.26866C9.35877 3.44494 8.36635 4.92544 7.77362 6.57825C7.1809 8.23106 7.00626 10.0048 7.26526 11.7415C7.78697 15.2738 9.93436 18.3155 11.9138 21.2872C13.8932 24.259 15.827 27.5153 15.8248 31.0858C15.8232 33.6576 14.8018 36.1237 12.9846 37.9434C11.1673 39.7632 8.70258 40.7879 6.13086 40.793C9.14919 42.0924 12.2995 43.4173 15.5821 43.2633C18.8647 43.1092 22.3052 40.999 22.8407 37.7568C23.2265 35.4206 22.0803 33.1426 21.1244 30.9763C19.5674 27.4465 18.4419 23.7417 17.7724 19.9422C17.4532 18.1288 17.2453 16.2224 17.8365 14.4786C18.3073 13.1864 19.1808 12.0797 20.3284 11.3216C21.4759 10.5636 22.8367 10.1944 24.21 10.2684L25.2946 9.29264C25.4803 7.54618 25.1169 5.78525 24.2548 4.25505C23.3928 2.72486 22.075 1.50155 20.4851 0.755469Z" fill="#2F2E41"/>
<path d="M58.1493 51.6275C54.2282 53.9834 49.7387 55.225 45.1643 55.2185H12.6962L12.6445 55.1754L15.4397 47.3729C16.0715 45.988 17.0685 44.8011 18.3236 43.9398C19.5787 43.0784 21.0447 42.5749 22.5642 42.4835L24.3425 42.3743L28.5827 38.7173C28.5827 38.7173 40.0077 38.3065 39.8382 38.1111L46.7587 42.2738L46.753 42.2479L49.4735 42.4145C50.9933 42.505 52.4596 43.0081 53.7149 43.8696C54.9702 44.7311 55.967 45.9184 56.598 47.304L58.1493 51.6275Z" fill="#6C63FF"/>
<path d="M141.131 86.8712H58.7946C56.588 86.8687 54.4725 85.991 52.9122 84.4306C51.3519 82.8703 50.4742 80.7548 50.4717 78.5481V24.5334C50.4742 22.3268 51.3519 20.2113 52.9122 18.651C54.4725 17.0906 56.588 16.213 58.7946 16.2104H141.131C143.338 16.2129 145.453 17.0906 147.014 18.651C148.574 20.2113 149.452 22.3268 149.454 24.5334V78.5482C149.452 80.7548 148.574 82.8703 147.014 84.4306C145.453 85.991 143.338 86.8687 141.131 86.8712Z" fill="#70AF77"/>
<path d="M135.345 22.96H64.5835C62.5743 22.9619 60.6478 23.7607 59.2267 25.1811C57.8056 26.6015 57.0059 28.5275 57.0029 30.5368V72.5429C57.0057 74.5525 57.8053 76.4791 59.2264 77.9001C60.6474 79.3212 62.5739 80.1207 64.5835 80.1236H109.706C118.512 80.1148 126.956 76.6124 133.183 70.3851C139.411 64.1578 142.913 55.7142 142.922 46.9074V30.5368C142.92 28.5279 142.121 26.6019 140.7 25.1815C139.28 23.761 137.354 22.9621 135.345 22.96Z" fill="white"/>
<path d="M99.9016 49.6821C109.315 49.6821 116.945 42.0513 116.945 32.6384C116.945 23.2254 109.315 15.5947 99.9016 15.5947C90.4886 15.5947 82.8579 23.2254 82.8579 32.6384C82.8579 42.0513 90.4886 49.6821 99.9016 49.6821Z" fill="#2F2E41"/>
<path d="M99.9084 51.9211C108.317 51.9211 115.134 45.1043 115.134 36.6953C115.134 28.2863 108.317 21.4695 99.9084 21.4695C91.4995 21.4695 84.6826 28.2863 84.6826 36.6953C84.6826 45.1043 91.4995 51.9211 99.9084 51.9211Z" fill="#FFB8B8"/>
<path d="M130.364 72.9008C124.498 77.5836 117.212 80.1308 109.706 80.1235H71.7349L75.3368 70.075C76.1653 68.2582 77.4726 66.7011 79.1187 65.5707C80.7648 64.4404 82.6875 63.7794 84.6807 63.6586L87.013 63.5155L92.5741 58.7192C92.5741 58.7192 107.558 58.1842 107.336 57.928L116.412 63.3874L116.405 63.3497L119.973 63.5682C121.966 63.6884 123.889 64.3492 125.535 65.4797C127.181 66.6101 128.489 68.1674 129.317 69.9846L130.364 72.9008Z" fill="#6C63FF"/>
<path d="M115.972 31.3555C116.079 30.2187 116.128 29.0772 116.119 27.9355C116.181 25.6775 115.767 23.4316 114.904 21.3439C113.843 19.0324 111.951 17.2047 109.605 16.224C107.279 15.2858 104.679 15.2881 102.355 16.2303C100.31 14.8229 97.9397 13.96 95.4686 13.7231C94.2307 13.6239 92.9872 13.8254 91.844 14.3105C90.7008 14.7957 89.6919 15.5501 88.9033 16.5094C88.5654 17.0387 88.1816 17.5374 87.7563 17.9995C86.5399 19.126 84.6912 18.9635 83.0744 18.7332C83.7996 19.3547 84.5249 19.9763 85.2505 20.5978C84.3727 20.8271 83.4948 21.0565 82.6168 21.2858C83.6413 21.9071 84.6656 22.5285 85.69 23.1498C82.716 24.9348 81.3643 28.8309 81.7213 32.3694C82.0591 35.7195 83.6766 38.7829 85.61 41.5058C86.3813 39.8782 86.2151 37.9306 86.2024 36.0975C86.1953 35.5029 86.2316 34.9086 86.3109 34.3193C92.8451 35.8856 99.6725 36.8908 106.596 34.4032L107.986 31.0025C108.181 31.0226 108.376 31.0414 108.571 31.0621L109.376 34.4063C111.201 35.1523 113.03 35.8043 114.859 35.1192C114.948 35.6357 115.002 36.1629 115.043 36.6696C115.2 36.0635 115.336 35.453 115.459 34.84C115.701 34.7103 115.933 34.5623 116.152 34.3974C116.196 33.38 116.136 32.3607 115.972 31.3555Z" fill="#2F2E41"/>
</svg>
