<svg width="643" height="609" viewBox="0 0 643 609" fill="none" xmlns="http://www.w3.org/2000/svg">
<path d="M482 127.001H525.016V319.846H523.016V129.001H482V127.001Z" fill="#630505"/>
<path d="M119 127H162.016V129H121V321.633H119V127Z" fill="#630505"/>
<path d="M642.993 469.278C642.806 487.595 638.277 505.606 629.78 521.834C621.283 538.061 609.058 552.043 594.11 562.63C593.85 562.81 593.58 563 593.31 563.19C593.03 563.39 592.74 563.59 592.45 563.78C590.77 564.94 589.057 566.05 587.31 567.11C584.85 568.61 582.333 570.02 579.76 571.34C579.68 571.38 579.59 571.42 579.51 571.46C578.03 572.22 576.537 572.94 575.03 573.62C574.98 573.64 574.94 573.66 574.89 573.68C574.54 573.84 574.17 574.01 573.81 574.16C571.02 575.4 568.17 576.53 565.27 577.53C562.8 578.4 560.293 579.18 557.75 579.87C552.549 581.305 547.252 582.368 541.9 583.05C537.336 583.637 532.741 583.951 528.14 583.99C527.76 584 527.38 584 527 584C524.49 584 521.99 583.92 519.52 583.76C517.36 583.62 515.22 583.43 513.1 583.17C509.83 582.78 506.6 582.26 503.42 581.58C503.28 581.56 503.14 581.53 503 581.5C502.89 581.48 502.77 581.45 502.66 581.43C499.46 580.76 496.31 579.94 493.22 579C490.31 578.12 487.453 577.127 484.65 576.02C483.93 575.74 483.22 575.46 482.51 575.16C480.74 574.42 478.99 573.65 477.27 572.82C476.77 572.59 476.28 572.35 475.79 572.11C474.13 571.3 472.49 570.45 470.89 569.55C468.96 568.48 467.063 567.357 465.2 566.18C462.85 564.7 460.55 563.14 458.32 561.49C438.507 546.933 423.831 526.458 416.41 503.019C408.99 479.581 409.208 454.39 417.033 431.083C424.858 407.776 439.885 387.558 459.947 373.346C480.008 359.134 504.067 351.663 528.65 352.012C592.258 352.895 643.679 405.668 642.993 469.278Z" fill="#959595"/>
<path d="M502.659 581.43C499.458 580.76 496.309 579.94 493.219 579L503.829 513.21L514.818 512.87L534.749 512.24L544.969 511.92C544.969 511.92 552.219 543.78 557.749 579.87C552.547 581.305 547.251 582.367 541.898 583.05C537.335 583.637 532.74 583.951 528.139 583.99C527.758 584 527.378 584 526.999 584C524.489 584 521.989 583.92 519.518 583.76C517.358 583.62 515.219 583.43 513.099 583.17C509.829 582.78 506.599 582.26 503.418 581.58C503.279 581.56 503.139 581.53 502.998 581.5C502.889 581.48 502.769 581.45 502.659 581.43Z" fill="#CBCBCB"/>
<path d="M503.42 581.579C503.28 581.559 503.14 581.529 503 581.499C502.89 581.479 502.77 581.449 502.66 581.429C499.46 580.759 496.31 579.939 493.22 578.999C490.31 578.119 487.453 577.126 484.65 576.019C483.93 575.739 483.22 575.459 482.51 575.159C480.74 574.419 478.99 573.649 477.27 572.819C476.77 572.589 476.28 572.349 475.79 572.109L474.91 522.849L501.91 511.279C501.91 511.279 502 511.999 514.82 512.869C517.26 520.829 503.42 581.579 503.42 581.579Z" fill="#2F2E41"/>
<path d="M584.122 520.521L579.032 547.271L579.511 571.461C578.032 572.221 576.539 572.941 575.032 573.621C574.982 573.641 574.942 573.661 574.892 573.681C574.542 573.841 574.172 574.011 573.812 574.161C571.022 575.401 568.171 576.531 565.272 577.531C562.801 578.401 560.295 579.181 557.752 579.871C552.55 581.306 547.254 582.368 541.902 583.051C537.338 583.638 532.743 583.952 528.142 583.991L527.612 541.121C526.492 527.301 530.202 518.161 534.752 512.241C559.002 509.001 558.462 508.711 558.462 508.711L584.172 520.281L584.122 520.521Z" fill="#2F2E41"/>
<path d="M486.479 526.71L484.649 576.02C483.929 575.74 483.219 575.46 482.509 575.16C480.739 574.42 478.989 573.65 477.269 572.82C476.769 572.59 476.279 572.35 475.789 572.11C474.129 571.3 472.489 570.45 470.889 569.55C468.959 568.48 467.062 567.356 465.199 566.18L474.909 522.85L486.479 526.71Z" fill="#2F2E41"/>
<path d="M594.108 562.63C593.849 562.81 593.579 563 593.309 563.19C593.029 563.39 592.739 563.59 592.449 563.78C590.769 564.94 589.055 566.05 587.309 567.11C584.849 568.61 582.332 570.02 579.758 571.34C579.679 571.38 579.588 571.42 579.508 571.46C577.984 572.243 576.445 572.983 574.891 573.681L574.889 573.68L573.059 524.2L584.119 520.52L584.628 520.35L594.108 562.63Z" fill="#2F2E41"/>
<path d="M554.601 474.73C559.046 459.572 550.391 443.689 535.272 439.257C520.152 434.824 504.292 443.519 499.848 458.678C495.404 473.836 504.058 489.719 519.178 494.151C534.297 498.584 550.157 489.889 554.601 474.73Z" fill="#9F616A"/>
<path d="M498.49 473.875V462.744C498.49 462.744 489.514 452.171 499.388 449.508C499.388 449.508 502.081 422.876 525.42 435.304C525.42 435.304 557.737 429.978 554.146 448.62C554.146 448.62 562.225 443.753 559.532 456.182L554.324 476.201C554.324 476.201 556.839 462.977 548.76 461.201L544.271 458.538C544.271 458.538 531.704 470.966 512.853 455.875C512.853 455.875 504.774 453.947 505.672 461.936C506.569 469.926 498.49 473.875 498.49 473.875Z" fill="#2F2E41"/>
<path d="M526.999 606.357C541.599 606.357 553.435 594.521 553.435 579.921C553.435 565.32 541.599 553.484 526.999 553.484C512.398 553.484 500.562 565.32 500.562 579.921C500.562 594.521 512.398 606.357 526.999 606.357Z" fill="#BF0707"/>
<path d="M524.479 591.081L516.566 580.907L521.168 577.328L524.914 582.145L537.571 568.785L541.803 572.794L524.479 591.081Z" fill="white"/>
<path d="M233.001 468C233.016 486.699 228.504 505.123 219.851 521.699C211.198 538.276 198.661 552.511 183.311 563.19C178.988 566.216 174.46 568.939 169.761 571.34C168.202 572.14 166.631 572.9 165.032 573.62C163.591 574.28 162.142 574.9 160.671 575.49C142.438 582.873 122.632 585.515 103.102 583.17C99.7216 582.77 96.3849 582.22 93.0913 581.52C92.9516 581.49 92.8013 581.46 92.6616 581.43C85.7644 579.971 79.0183 577.872 72.5112 575.16C53.112 567.107 36.2629 553.939 23.7618 537.06C11.2606 520.181 3.57642 500.225 1.52906 479.321C-0.51831 458.416 3.14797 437.349 12.1367 418.365C21.1255 399.381 35.0994 383.194 52.5676 371.531C70.0358 359.867 90.3428 353.165 111.322 352.139C132.301 351.112 153.165 355.801 171.688 365.705C190.211 375.608 205.698 390.354 216.496 408.37C227.295 426.386 232.999 446.996 233.001 468Z" fill="#959595"/>
<path d="M138.359 446.35C138.259 446.23 138.149 446.12 138.04 446.01C131.842 439.752 123.425 436.191 114.618 436.101C105.811 436.011 97.3238 439.399 90.9995 445.53C90.9297 445.59 90.8696 445.65 90.8096 445.71C90.7295 445.78 90.6597 445.85 90.5894 445.92C87.4749 449.026 85.0043 452.717 83.3192 456.781C81.6341 460.844 80.7676 465.201 80.7695 469.6V490.6C80.7713 491.793 81.246 492.936 82.0895 493.78C82.9331 494.623 84.0766 495.098 85.2695 495.1H143.27C144.462 495.098 145.606 494.623 146.45 493.78C147.293 492.936 147.768 491.793 147.77 490.6V469.6C147.778 460.92 144.402 452.58 138.359 446.35Z" fill="#2F2E41"/>
<path d="M115.616 494.892C129.18 494.892 140.177 483.895 140.177 470.331C140.177 456.766 129.18 445.77 115.616 445.77C102.051 445.77 91.0547 456.766 91.0547 470.331C91.0547 483.895 102.051 494.892 115.616 494.892Z" fill="#FFB7B7"/>
<path d="M141.43 468.241L138.53 447.981C138.441 447.359 138.123 446.792 137.64 446.391C137.477 446.26 137.299 446.149 137.11 446.061C122.26 439.111 107.2 439.111 92.3499 446.041C92.1517 446.132 91.9666 446.25 91.7996 446.391C91.74 446.441 91.68 446.501 91.6199 446.561C91.223 446.971 90.9763 447.503 90.9197 448.071L88.9798 468.361C88.9471 468.708 88.9871 469.058 89.0974 469.388C89.2076 469.719 89.3856 470.023 89.6199 470.281C89.9976 470.696 90.5054 470.971 91.0599 471.061C91.1947 471.089 91.3322 471.103 91.47 471.101H96.39C96.8656 471.099 97.3311 470.963 97.7327 470.708C98.1344 470.453 98.4558 470.09 98.66 469.661L100.79 465.101C100.926 464.805 101.155 464.562 101.442 464.409C101.729 464.255 102.059 464.2 102.38 464.251C102.702 464.302 102.998 464.456 103.223 464.691C103.449 464.926 103.591 465.227 103.63 465.551L104.05 468.911C104.128 469.514 104.422 470.069 104.878 470.472C105.334 470.875 105.921 471.098 106.53 471.101H138.96C139.384 471.103 139.802 470.992 140.17 470.781C140.426 470.641 140.656 470.459 140.85 470.241C141.084 469.968 141.257 469.649 141.358 469.304C141.458 468.959 141.482 468.596 141.43 468.241Z" fill="#2F2E41"/>
<path d="M176.35 539.891L183.31 563.191C178.986 566.217 174.459 568.94 169.759 571.341C168.2 572.141 166.629 572.901 165.03 573.621L157.819 542.711L155.02 530.721L173.02 528.721L176.35 539.891Z" fill="#FFB7B7"/>
<path d="M93.522 536.02L92.9219 567.5L92.6621 581.43C85.7649 579.971 79.0189 577.872 72.5117 575.16L74.9019 545.34L75.502 537.82L93.522 536.02Z" fill="#FFB7B7"/>
<path d="M176.35 539.889L158.27 542.599L158.49 545.569L160.669 575.489C142.436 582.872 122.63 585.514 103.1 583.169C99.7197 582.769 96.3829 582.219 93.0893 581.519C94.5693 575.299 95.8496 569.699 94.2695 568.599C93.7934 568.266 93.3422 567.898 92.9194 567.499C85.5493 560.469 88.2695 544.599 88.2695 544.599L74.8994 545.339L70.2695 545.599C70.2695 545.599 72.2695 513.599 81.2695 513.599H92.2695L145.27 508.599C145.27 508.599 160.27 503.599 164.27 510.599C166.37 514.269 170.109 522.049 173.2 528.629C176 534.609 178.27 539.599 178.27 539.599L176.35 539.889Z" fill="#2F2E41"/>
<path d="M116.999 608.421C131.599 608.421 143.435 596.586 143.435 581.985C143.435 567.385 131.599 555.549 116.999 555.549C102.398 555.549 90.5625 567.385 90.5625 581.985C90.5625 596.586 102.398 608.421 116.999 608.421Z" fill="#BF0707"/>
<path d="M114.479 593.144L106.566 582.97L111.168 579.391L114.914 584.208L127.571 570.848L131.803 574.857L114.479 593.144Z" fill="white"/>
<path d="M439.002 116C439.016 134.699 434.504 153.123 425.851 169.699C417.198 186.276 404.661 200.511 389.312 211.19C389.032 211.39 388.742 211.59 388.452 211.78C386.772 212.94 385.058 214.05 383.312 215.11C380.852 216.61 378.335 218.02 375.761 219.34C374.202 220.14 372.631 220.9 371.032 221.62C370.631 221.8 370.222 221.99 369.812 222.16C367.022 223.4 364.171 224.53 361.272 225.53C353.697 228.186 345.864 230.036 337.902 231.05C332.96 231.685 327.983 232.003 323.002 232C320.492 232 317.992 231.92 315.522 231.76C313.361 231.62 311.222 231.43 309.102 231.17C305.692 230.76 302.321 230.21 299.002 229.5C298.892 229.48 298.772 229.45 298.662 229.43C291.765 227.971 285.019 225.872 278.511 223.16C276.742 222.42 274.992 221.65 273.272 220.82C271.102 219.8 268.975 218.71 266.892 217.55C248.987 207.658 234.016 193.207 223.497 175.662C212.978 158.118 207.285 138.104 206.996 117.65C206.707 97.196 211.831 77.0291 221.849 59.1942C231.867 41.3592 246.423 26.4904 264.041 16.0953C281.659 5.70014 301.712 0.148414 322.168 0.00293456C342.624 -0.142544 362.754 5.1234 380.518 15.2669C398.282 25.4104 413.048 40.0706 423.319 57.7613C433.59 75.452 439 95.5439 439.002 116Z" fill="#959595"/>
<path d="M319.813 144.589C334.119 144.589 345.716 132.992 345.716 118.686C345.716 104.38 334.119 92.7832 319.813 92.7832C305.507 92.7832 293.91 104.38 293.91 118.686C293.91 132.992 305.507 144.589 319.813 144.589Z" fill="#FFB8B8"/>
<path d="M309.1 231.17C305.69 230.76 302.32 230.21 299 229.5L302.15 158.62L302.6 158.15L309.05 151.34H329.56L337.13 158.67L337.77 159.3L353.96 174.81L361.27 225.53C353.696 228.186 345.862 230.036 337.9 231.05C332.959 231.685 327.982 232.003 323 232C320.49 232 317.99 231.92 315.52 231.76C313.36 231.62 311.22 231.43 309.1 231.17Z" fill="#CBCBCB"/>
<path d="M273.269 220.821C271.099 219.801 268.972 218.711 266.889 217.551C266.679 198.351 266.539 185.601 266.539 185.601L268.979 184.111C269.008 184.095 269.038 184.082 269.069 184.071L296.759 167.251L302.569 157.811L302.599 158.151L304.309 178.051C309.459 195.63 313.207 213.589 315.519 231.761C313.359 231.621 311.219 231.431 309.099 231.171C305.689 230.761 302.319 230.211 298.999 229.501C298.889 229.481 298.769 229.451 298.659 229.431C291.762 227.972 285.016 225.873 278.509 223.161C276.739 222.421 274.989 221.651 273.269 220.821Z" fill="#2F2E41"/>
<path d="M361.269 225.531C353.694 228.187 345.861 230.037 337.899 231.051C336.795 224.596 336.389 218.042 336.689 211.501C338.849 176.971 333.869 157.811 336.029 157.811L337.128 158.671L350.719 169.411L368.608 175.971H368.619L380.929 180.481L383.099 181.281V182.311C383.108 185.871 383.128 198.331 383.309 215.111C380.849 216.611 378.332 218.021 375.758 219.341C374.199 220.141 372.629 220.901 371.029 221.621C370.629 221.801 370.219 221.991 369.809 222.161C367.019 223.401 364.169 224.531 361.269 225.531Z" fill="#2F2E41"/>
<path d="M295.306 126.79C295.306 126.79 297.507 122.925 296.995 110.013C296.483 97.1019 316.145 104.404 332.574 103.173C349.002 101.941 345.525 124.729 345.525 124.729C345.525 124.729 346.71 123.374 349.248 112.376C351.785 101.378 346.024 90.4181 346.024 90.4181C344.327 78.8612 335.181 82.5652 335.181 82.5652C339.586 84.2797 338.74 87.9457 338.74 87.9457C335.012 81.4095 325.867 85.1135 325.867 85.1135C313.67 77.4596 301.308 87.5389 301.308 87.5389C286.573 90.8829 295.215 102.601 295.215 102.601C280.396 110.089 295.306 126.79 295.306 126.79Z" fill="#2F2E41"/>
<path d="M254.32 209.49C254.701 200.7 254.871 195.03 254.67 194.24C253.641 190.12 267.701 184.6 268.98 184.11C269.01 184.095 269.04 184.082 269.07 184.07L271.931 185.6L273.271 220.82C271.101 219.8 268.974 218.71 266.891 217.55C262.531 215.138 258.332 212.446 254.32 209.49Z" fill="#2F2E41"/>
<path d="M383.309 215.111C380.849 216.611 378.332 218.021 375.758 219.341C374.199 220.141 372.628 220.901 371.029 221.621C370.628 221.801 370.219 221.991 369.809 222.161L365.309 177.731L367.938 175.811C367.938 175.811 368.179 175.871 368.608 175.971H368.619C370.729 176.491 377.208 178.211 380.929 180.481C381.759 180.951 382.495 181.572 383.099 182.311C383.466 182.752 383.649 183.318 383.608 183.891C383.489 185.051 385.489 196.051 388.449 211.781C386.769 212.941 385.055 214.051 383.309 215.111Z" fill="#2F2E41"/>
<path d="M322.999 258.422C337.599 258.422 349.435 246.586 349.435 231.985C349.435 217.385 337.599 205.549 322.999 205.549C308.398 205.549 296.562 217.385 296.562 231.985C296.562 246.586 308.398 258.422 322.999 258.422Z" fill="#BF0707"/>
<path d="M320.479 243.144L312.566 232.97L317.168 229.391L320.914 234.208L333.571 220.848L337.803 224.857L320.479 243.144Z" fill="white"/>
</svg>
