<svg width="701" height="483" viewBox="0 0 701 483" fill="none" xmlns="http://www.w3.org/2000/svg">
<g filter="url(#filter0_d_185_81)">
<path d="M50.04 401.8C50.04 402.264 50.427 402.64 50.9045 402.64H650.04V400.96H50.9045C50.4271 400.96 50.04 401.336 50.04 401.8Z" fill="black"/>
<path d="M79.6029 394.107L79.5873 400.326V401.64H91.5954V399.669L91.6033 375.347L91.6189 351.785V347.459L91.6268 329.92L91.6346 329.638L93.7233 270.583V270.536L95.8511 210.339V210.331L95.9059 208.696L106.271 214.196L119.054 220.978L125.124 224.201L133.792 228.793L148.405 236.554H148.413L224.201 276.755L224.358 400.326V401.64H235.951L235.998 400.326L239.847 281.449L351.62 236.882L363.449 232.165L368.502 162.408C369.769 144.924 360.398 128.895 345.565 121.088C341.904 119.163 337.915 117.74 333.675 116.918L316.605 113.609L274.002 105.34L260.218 102.673L242.202 99.176L235.098 97.7992L223.419 95.5305L222.363 95.3271L219.069 94.6857L217.896 94.4588L215.987 94.0911L214.642 96.4693C214.634 96.4693 214.634 96.4771 214.634 96.4849L206.717 110.535L205.293 113.069L205.285 113.077L198.425 125.242C198.425 125.242 198.417 125.25 198.417 125.257L191.736 137.117L178.625 139.722L172.163 141.005L132.11 148.961L126.83 150.017H126.822L113.46 152.669L109.924 153.373L93.4104 156.651L93.2852 156.674L85.9552 158.129L73.6107 160.586L79.7829 329.92L79.6656 371.201V371.209L79.6029 394.107Z" fill="#3F3D56"/>
<path d="M346.3 399.96V401.64H357.95L357.98 399.96L362.01 185H346.92L346.89 191.03L346.3 399.96Z" fill="#3F3D56"/>
<path d="M284.531 67.7827C286.284 64.4815 291.322 57.4174 297.126 49.485C298.206 48.0065 299.309 46.5045 300.42 44.9868C302.399 42.3036 304.409 39.5734 306.357 36.9136C307.601 35.1613 310.034 34.7467 311.786 35.9827L323.458 44.2436C325.21 45.4797 325.633 47.9126 324.389 49.6649L320.877 54.6325L319.954 55.9389L318.592 57.8633L316.957 60.1711V60.1789L316.496 60.8203L314.869 63.1281L313.969 64.3954L306.091 75.5352L302.555 80.534C301.319 82.2863 298.886 82.701 297.134 81.4649L286.98 74.2757L285.548 73.2666L285.462 73.204C283.71 71.968 283.288 69.535 284.531 67.7827Z" fill="#3F3D56"/>
<path d="M297.142 49.3129L300.185 45.0181C300.24 44.9399 300.341 44.9242 300.412 44.979L300.419 44.9868C300.49 45.0338 300.505 45.1277 300.451 45.2059L297.408 49.5085C297.361 49.5789 297.259 49.5945 297.181 49.5476C297.157 49.5319 297.142 49.5085 297.126 49.485C297.103 49.4302 297.103 49.3676 297.142 49.3129Z" fill="#3F3D56"/>
<path d="M306.662 37.1265L284.831 67.9964C283.753 69.521 284.058 71.6072 285.49 72.7649C285.511 72.782 285.533 72.7995 285.555 72.8163C285.593 72.8464 285.632 72.8751 285.673 72.9036C285.673 72.9036 285.828 72.9973 286.112 73.1682C286.4 73.341 286.818 73.5915 287.341 73.9021C287.498 73.9957 287.663 74.0936 287.838 74.1971C288.186 74.403 288.569 74.6291 288.98 74.8697C289.144 74.9662 289.314 75.0652 289.487 75.1665C290.372 75.6848 291.366 76.2618 292.419 76.8634C292.597 76.9658 292.776 77.0685 292.958 77.1714C293.005 77.1981 302.002 80.68 302.257 80.3198L324.088 49.4499C325.211 47.8622 324.834 45.6655 323.246 44.5427L321.53 43.3292C321.256 43.1353 320.884 43.1931 320.668 43.4499C320.653 43.4667 320.638 43.4834 320.622 43.4991C320.378 43.7388 319.99 43.7521 319.711 43.5544L313.679 39.2888C313.399 39.0912 313.283 38.7215 313.428 38.4115C313.437 38.391 313.448 38.3714 313.459 38.3519C313.628 38.0618 313.559 37.6922 313.285 37.4984L311.569 36.2848C309.981 35.162 307.785 35.5388 306.662 37.1265Z" fill="#494949"/>
<path d="M319.961 55.7824L320.728 54.7029C320.759 54.6559 320.814 54.6247 320.876 54.6325C320.9 54.6325 320.931 54.6481 320.955 54.6638C321.025 54.7185 321.048 54.8202 320.994 54.8906L320.235 55.9702C320.18 56.0406 320.078 56.0641 320 56.0093C319.977 55.9936 319.961 55.9702 319.953 55.9389C319.93 55.8919 319.93 55.8294 319.961 55.7824Z" fill="#3F3D56"/>
<path d="M316.972 60.0146L318.443 57.9259C318.482 57.8789 318.537 57.8555 318.592 57.8633C318.623 57.8633 318.654 57.8711 318.67 57.8867C318.748 57.9415 318.764 58.0432 318.709 58.1214L317.238 60.2023C317.184 60.2727 317.082 60.2962 317.011 60.2414C316.988 60.2258 316.972 60.2023 316.957 60.1788V60.1711C316.933 60.1241 316.933 60.0615 316.972 60.0146Z" fill="#3F3D56"/>
<path d="M314.883 62.9716L316.354 60.8829C316.393 60.836 316.448 60.8125 316.495 60.8203C316.526 60.8203 316.558 60.8282 316.581 60.8438C316.659 60.8986 316.675 61.0003 316.62 61.0785L315.149 63.1594C315.095 63.2298 314.993 63.2532 314.923 63.1985C314.899 63.1829 314.876 63.1594 314.868 63.1281C314.844 63.0812 314.844 63.0186 314.883 62.9716Z" fill="#3F3D56"/>
<path d="M321.387 43.9338L323.671 45.5494C323.764 45.615 323.786 45.7434 323.72 45.8361C323.655 45.9289 323.526 45.9509 323.434 45.8853L321.149 44.2698C321.056 44.2042 321.034 44.0758 321.1 43.983C321.165 43.8902 321.294 43.8682 321.387 43.9338Z" fill="#E6E6E6"/>
<path d="M312.48 38.065C312.298 38.065 312.151 37.9177 312.151 37.7359C312.151 37.5541 312.298 37.4067 312.48 37.4067C312.662 37.4067 312.809 37.5541 312.809 37.7359C312.809 37.9177 312.662 38.065 312.48 38.065Z" fill="#E6E6E6"/>
<path d="M311.741 37.5424C311.559 37.5424 311.412 37.395 311.412 37.2132C311.412 37.0314 311.559 36.884 311.741 36.884C311.923 36.884 312.07 37.0314 312.07 37.2132C312.07 37.395 311.923 37.5424 311.741 37.5424Z" fill="#E6E6E6"/>
<path d="M311.002 37.0197C310.82 37.0197 310.672 36.8723 310.672 36.6905C310.672 36.5087 310.82 36.3613 311.002 36.3613C311.183 36.3613 311.331 36.5087 311.331 36.6905C311.331 36.8723 311.183 37.0197 311.002 37.0197Z" fill="#E6E6E6"/>
<path d="M223.419 56.1501H268.792V99.176H223.419V56.1501Z" fill="black"/>
<path d="M300.855 70.1146C302.277 72.4236 304.102 74.2201 305.987 75.3371L318.142 98.1894L328.847 92.0876L315.364 69.5631C315.216 67.3773 314.433 64.9386 313.011 62.6296C309.763 57.3545 304.409 54.7539 301.052 56.8208C297.695 58.8878 297.607 64.8396 300.855 70.1146Z" fill="#FFB6B6"/>
<path d="M94.5737 375.941L84.8144 373.985L89.2173 329.154L103.62 332.039L94.5737 375.941Z" fill="#FFB6B6"/>
<path d="M56.7104 388.699C56.3413 390.339 57.206 391.931 58.6416 392.254L77.9107 396.59C77.9107 396.59 81.5221 389.394 89.9915 387.853L88.0717 398.876L98.012 401.113L100.753 383.311C100.753 383.311 105.522 374.53 101.079 368.493C96.6352 362.456 100.958 364.13 100.958 364.13L101.227 352.791L85.8089 351.177L81.8657 368.185L70.7718 383.451L58.8914 386.327C57.834 386.583 56.9769 387.515 56.7104 388.699Z" fill="#2F2E41"/>
<path d="M262.924 146.504L262.142 151.98C262.142 151.98 245.714 169.973 241.802 177.796L194.35 154.327L202.688 134.77L262.924 146.504Z" fill="#FFB6B6"/>
<path d="M203.47 152.763C203.47 152.763 247.808 165.279 244.023 177.796C240.238 190.313 237.9 195.453 237.9 195.453C237.9 195.453 246.496 214.564 219.898 223.169C193.3 231.774 136.193 238.032 136.193 238.032L102.164 350.291L86.1267 345.988L99.1454 216.715L162.791 194.224L158.88 170.755L172.178 176.231L194.35 151.694L203.47 152.763Z" fill="#E6E6E6"/>
<path d="M137.214 262.204L127.745 265.272L109.655 224.018L123.628 219.488L137.214 262.204Z" fill="#FFB6B6"/>
<path d="M110.431 291.854C110.911 293.464 112.444 294.429 113.854 294.009L132.781 288.365C132.781 288.365 132.411 280.322 139.044 274.836L142.762 285.389L152.526 282.477L146.208 265.61C146.208 265.61 146.073 255.618 139.244 252.526C132.415 249.434 137.004 248.78 137.004 248.78L131.692 238.758L117.455 244.893L122.336 261.656L120.128 280.397L111.173 288.717C110.375 289.458 110.084 290.69 110.431 291.854Z" fill="#2F2E41"/>
<path d="M176.02 177.796L158.88 170.755L118.983 144.94C118.983 144.94 88.4741 120.535 86.1272 153.468C83.7803 186.401 105.684 237.25 105.684 237.25L133.847 229.427L130.985 194.566L167.876 205.567L176.02 177.796Z" fill="#E6E6E6"/>
<path d="M219.24 90.8387L197.604 149.242L168.268 181.707L139.323 162.932L172.767 154.327L171.88 134.77L219.24 90.8387Z" fill="#2F2E41"/>
<path d="M103.867 166.488C106.301 165.292 108.263 163.646 109.553 161.875L133.457 151.946L128.4 140.71L104.696 151.992C102.506 151.933 100.004 152.48 97.5706 153.676C92.0109 156.408 88.9135 161.491 90.6522 165.029C92.3909 168.567 98.3074 169.22 103.867 166.488Z" fill="#FFB6B6"/>
<path d="M230.068 87.8328L224.54 85.4336C224.54 85.4336 202.688 91.658 200.732 95.2214C198.777 98.7849 187.825 113.648 187.825 113.648L110.378 146.504L117.419 160.586L172.179 146.504L201.906 115.213L230.068 87.8328Z" fill="#2F2E41"/>
<path d="M238.673 83.139L264.489 81.5745L277.788 88.6151L262.924 154.327C262.924 154.327 219.153 135.552 199.968 141.42C199.968 141.42 193.029 123.441 205.29 113.069L225.374 86.2682L238.673 83.139Z" fill="#C8291F"/>
<path d="M266.054 85.4859L266.302 82.9486L291.869 92.5265C291.869 92.5265 301.257 99.5671 304.386 102.696C307.515 105.825 316.902 112.084 316.902 112.084L309.08 83.9213L321.596 78.4453C321.596 78.4453 359.146 127.729 341.153 131.641C323.161 135.552 291.869 128.512 291.869 128.512L290.305 215.346L224.984 217.302L251.973 126.947L266.054 85.4859Z" fill="#2F2E41"/>
<path d="M246.585 78.0708C234.367 78.0708 224.462 68.1661 224.462 55.9481C224.462 43.73 234.367 33.8253 246.585 33.8253C258.803 33.8253 268.708 43.73 268.708 55.9481C268.708 68.1661 258.803 78.0708 246.585 78.0708Z" fill="#FFB6B6"/>
<path d="M257.058 20.1648C271.197 22.3533 270.523 27.6072 275.05 30.3346C283.026 35.1397 286.173 49.0153 281.961 58.1717C280.836 60.6182 278.463 63.9556 279.614 67.5592C280.498 70.3254 283.047 71.9573 283.526 72.2529C287.443 74.6718 284.884 71.7941 286.655 73.8175C288.609 76.0508 285.582 79.2054 287.437 83.2049C289.082 86.7506 292.473 86.4513 292.913 88.6809C293.671 92.5203 284.967 100.24 275.703 99.633C267.454 99.0925 261.327 92.1191 259.275 85.5518C257.9 81.1526 257.307 73.5855 260.839 69.906C261.335 69.39 262.689 68.1403 263.968 65.9946C264.981 64.2966 266.314 62.0615 265.533 60.5186C264.701 58.8748 262.342 59.74 260.839 58.1717C258.802 56.0449 261.223 52.4515 260.839 48.7842C260.19 42.5744 251.391 35.1058 242.064 36.2676C231.483 37.5856 227.602 49.0914 227.201 50.3488C226.369 52.9549 226.385 55.4761 226.419 60.5186C226.466 67.7549 226.496 72.2904 228.765 76.9466C232.029 83.6436 236.188 82.9201 237.371 87.8987C239.215 95.661 230.54 103.457 229.548 104.327C222.192 110.775 211.081 112.714 209.208 109.803C207.52 107.179 214.93 103.098 214.684 94.9393C214.471 87.869 208.749 85.7137 209.99 80.8581C211.356 75.5132 218.646 76.7324 221.725 70.6883C224.599 65.0467 219.302 61.9166 220.16 50.3488C220.342 47.9018 221.11 40.8788 225.636 33.9208C227.63 30.8554 229.658 27.7378 233.459 26.0979C237.714 24.262 249.578 19.0073 257.058 20.1648Z" fill="black"/>
<path d="M266.445 39.7221C265.871 44.5663 258.597 46.9403 255.493 47.545C254.178 47.8011 249.736 48.6664 245.323 46.7627C243.692 46.059 243.098 45.4226 241.412 45.1981C239.129 44.8942 237.979 45.7625 234.371 46.7627C230.359 47.8749 228.354 48.431 227.331 47.545C225.658 46.0965 226.943 41.358 228.895 38.1575C232.505 32.2396 239.112 30.4071 242.194 29.5523C245.715 28.5758 252.86 26.5941 259.404 30.3346C260.279 30.8347 267.028 34.8003 266.445 39.7221Z" fill="black"/>
</g>
<defs>
<filter id="filter0_d_185_81" x="0.0400391" y="0" width="700" height="482.64" filterUnits="userSpaceOnUse" color-interpolation-filters="sRGB">
<feFlood flood-opacity="0" result="BackgroundImageFix"/>
<feColorMatrix in="SourceAlpha" type="matrix" values="0 0 0 0 0 0 0 0 0 0 0 0 0 0 0 0 0 0 127 0" result="hardAlpha"/>
<feOffset dy="30"/>
<feGaussianBlur stdDeviation="25"/>
<feComposite in2="hardAlpha" operator="out"/>
<feColorMatrix type="matrix" values="0 0 0 0 0 0 0 0 0 0 0 0 0 0 0 0 0 0 0.25 0"/>
<feBlend mode="normal" in2="BackgroundImageFix" result="effect1_dropShadow_185_81"/>
<feBlend mode="normal" in="SourceGraphic" in2="effect1_dropShadow_185_81" result="shape"/>
</filter>
</defs>
</svg>
