<svg width="207" height="75" viewBox="0 0 207 75" fill="none" xmlns="http://www.w3.org/2000/svg">
<path d="M0 20C0 8.9543 8.95431 0 20 0H75V55C75 66.0457 66.0457 75 55 75H0V20Z" fill="white"/>
<path d="M16 25.0853L16.3555 49.2559L20.2654 51.2109V27.0403L36.9716 17.7986L53.8555 27.0403V46.7678L36.9716 56.3649L28.4408 51.2109V32.0166L36.9716 27.0403L45.8578 32.0166V42.3246L36.9716 47.3009L36.2607 46.7678V36.8152L41.0592 33.6161L36.9716 31.4834L32.173 34.327V49.2559L36.9716 52.2772L50.1232 44.4573V29.7062L36.9716 22.064L24.1754 29.7062V53.8768L36.9716 61.3412L58.1209 49.2559V25.0853L36.9716 13L16 25.0853Z" fill="#5569CD"/>
<path d="M105.74 14.6426L99.3433 25.3604V31H94.7778V25.3604L88.3813 14.6426H93.7036L97.0728 20.6973L100.417 14.6426H105.74ZM111.843 18.1826C112.706 18.1826 113.544 18.3454 114.358 18.6709C115.172 18.9964 115.904 19.4521 116.555 20.0381C117.206 20.624 117.719 21.3239 118.093 22.1377C118.484 22.9352 118.679 23.8141 118.679 24.7744C118.679 25.7347 118.484 26.6217 118.093 27.4355C117.719 28.2331 117.206 28.9248 116.555 29.5107C115.904 30.0967 115.172 30.5524 114.358 30.8779C113.544 31.2035 112.706 31.3662 111.843 31.3662C110.981 31.3662 110.142 31.2035 109.329 30.8779C108.515 30.5524 107.782 30.0967 107.131 29.5107C106.48 28.9248 105.959 28.2331 105.569 27.4355C105.194 26.6217 105.007 25.7347 105.007 24.7744C105.007 23.8141 105.194 22.9352 105.569 22.1377C105.959 21.3239 106.48 20.624 107.131 20.0381C107.782 19.4521 108.515 18.9964 109.329 18.6709C110.142 18.3454 110.981 18.1826 111.843 18.1826ZM111.843 22.2109C111.55 22.2109 111.217 22.276 110.842 22.4062C110.484 22.5365 110.175 22.7887 109.915 23.1631C109.654 23.5212 109.524 24.0583 109.524 24.7744C109.524 25.4743 109.654 26.0114 109.915 26.3857C110.175 26.7601 110.484 27.0124 110.842 27.1426C111.217 27.2728 111.55 27.3379 111.843 27.3379C112.153 27.3379 112.486 27.2728 112.844 27.1426C113.202 27.0124 113.512 26.7601 113.772 26.3857C114.032 26.0114 114.163 25.4743 114.163 24.7744C114.163 24.0583 114.032 23.5212 113.772 23.1631C113.512 22.7887 113.202 22.5365 112.844 22.4062C112.486 22.276 112.153 22.2109 111.843 22.2109ZM133.035 18.5488V26.0195C133.035 27.1426 132.774 28.1029 132.253 28.9004C131.749 29.6979 131.049 30.3083 130.154 30.7314C129.259 31.1546 128.233 31.3662 127.078 31.3662C125.922 31.3662 124.897 31.1546 124.001 30.7314C123.106 30.3083 122.398 29.6979 121.877 28.9004C121.373 28.1029 121.121 27.1426 121.121 26.0195V18.5488H125.32L125.344 24.8965C125.344 25.7428 125.474 26.3613 125.735 26.752C126.012 27.1426 126.459 27.3379 127.078 27.3379C127.696 27.3379 128.136 27.1426 128.396 26.752C128.673 26.3613 128.811 25.7428 128.811 24.8965L128.835 18.5488H133.035ZM144.827 23.1631C144.583 23.0329 144.322 22.9352 144.045 22.8701C143.785 22.7887 143.476 22.748 143.118 22.748C142.548 22.748 142.043 22.9189 141.604 23.2607C141.165 23.6025 140.806 24.0501 140.53 24.6035V31H136.331V18.5488H140.53V20.7705C140.92 20.1032 141.352 19.5254 141.824 19.0371C142.312 18.5488 142.947 18.3047 143.728 18.3047C144.151 18.3047 144.517 18.3779 144.827 18.5244V23.1631ZM158.547 13.4219V31H154.348V13.4219H158.547ZM167.947 18.1826C168.809 18.1826 169.648 18.3454 170.461 18.6709C171.275 18.9964 172.008 19.4521 172.659 20.0381C173.31 20.624 173.822 21.3239 174.197 22.1377C174.587 22.9352 174.783 23.8141 174.783 24.7744C174.783 25.7347 174.587 26.6217 174.197 27.4355C173.822 28.2331 173.31 28.9248 172.659 29.5107C172.008 30.0967 171.275 30.5524 170.461 30.8779C169.648 31.2035 168.809 31.3662 167.947 31.3662C167.084 31.3662 166.246 31.2035 165.432 30.8779C164.618 30.5524 163.886 30.0967 163.235 29.5107C162.584 28.9248 162.063 28.2331 161.672 27.4355C161.298 26.6217 161.111 25.7347 161.111 24.7744C161.111 23.8141 161.298 22.9352 161.672 22.1377C162.063 21.3239 162.584 20.624 163.235 20.0381C163.886 19.4521 164.618 18.9964 165.432 18.6709C166.246 18.3454 167.084 18.1826 167.947 18.1826ZM167.947 22.2109C167.654 22.2109 167.32 22.276 166.946 22.4062C166.588 22.5365 166.278 22.7887 166.018 23.1631C165.758 23.5212 165.627 24.0583 165.627 24.7744C165.627 25.4743 165.758 26.0114 166.018 26.3857C166.278 26.7601 166.588 27.0124 166.946 27.1426C167.32 27.2728 167.654 27.3379 167.947 27.3379C168.256 27.3379 168.59 27.2728 168.948 27.1426C169.306 27.0124 169.615 26.7601 169.875 26.3857C170.136 26.0114 170.266 25.4743 170.266 24.7744C170.266 24.0583 170.136 23.5212 169.875 23.1631C169.615 22.7887 169.306 22.5365 168.948 22.4062C168.59 22.276 168.256 22.2109 167.947 22.2109ZM182.107 18.1826C182.758 18.1826 183.393 18.3291 184.011 18.6221C184.646 18.8988 185.167 19.2568 185.574 19.6963V18.5488H189.773V30.6338C189.773 31.9521 189.447 33.0996 188.796 34.0762C188.145 35.069 187.283 35.8421 186.208 36.3955C185.134 36.9489 183.954 37.2256 182.668 37.2256C181.627 37.2256 180.723 37.0791 179.958 36.7861C179.194 36.5094 178.429 36.1188 177.664 35.6143V31.9033C178.184 32.1963 178.656 32.4567 179.08 32.6846C179.519 32.9124 179.991 33.0915 180.496 33.2217C181 33.3682 181.594 33.4414 182.278 33.4414C183.287 33.4414 184.084 33.1566 184.67 32.5869C185.273 32.0173 185.574 31.3743 185.574 30.6582V28.9248C185.264 29.6084 184.792 30.1862 184.158 30.6582C183.523 31.1302 182.758 31.3662 181.863 31.3662C180.935 31.3662 180.064 31.1302 179.25 30.6582C178.437 30.1862 177.769 29.4619 177.249 28.4854C176.744 27.4925 176.492 26.2474 176.492 24.75C176.492 23.3503 176.744 22.1621 177.249 21.1855C177.769 20.209 178.453 19.4684 179.299 18.9639C180.162 18.443 181.098 18.1826 182.107 18.1826ZM182.986 22.2842C182.384 22.2842 181.879 22.5283 181.472 23.0166C181.082 23.5049 180.886 24.0827 180.886 24.75C180.886 25.4173 181.09 25.9788 181.497 26.4346C181.903 26.8903 182.441 27.1182 183.108 27.1182C183.466 27.1182 183.832 27.0286 184.207 26.8496C184.581 26.6543 184.898 26.3695 185.159 25.9951C185.435 25.6045 185.574 25.1081 185.574 24.5059V23.3096C185.216 23.0166 184.809 22.7725 184.353 22.5771C183.914 22.3818 183.458 22.2842 182.986 22.2842ZM199.172 18.1826C200.035 18.1826 200.873 18.3454 201.687 18.6709C202.501 18.9964 203.233 19.4521 203.884 20.0381C204.535 20.624 205.048 21.3239 205.422 22.1377C205.813 22.9352 206.008 23.8141 206.008 24.7744C206.008 25.7347 205.813 26.6217 205.422 27.4355C205.048 28.2331 204.535 28.9248 203.884 29.5107C203.233 30.0967 202.501 30.5524 201.687 30.8779C200.873 31.2035 200.035 31.3662 199.172 31.3662C198.31 31.3662 197.472 31.2035 196.658 30.8779C195.844 30.5524 195.111 30.0967 194.46 29.5107C193.809 28.9248 193.289 28.2331 192.898 27.4355C192.524 26.6217 192.336 25.7347 192.336 24.7744C192.336 23.8141 192.524 22.9352 192.898 22.1377C193.289 21.3239 193.809 20.624 194.46 20.0381C195.111 19.4521 195.844 18.9964 196.658 18.6709C197.472 18.3454 198.31 18.1826 199.172 18.1826ZM199.172 22.2109C198.879 22.2109 198.546 22.276 198.171 22.4062C197.813 22.5365 197.504 22.7887 197.244 23.1631C196.983 23.5212 196.853 24.0583 196.853 24.7744C196.853 25.4743 196.983 26.0114 197.244 26.3857C197.504 26.7601 197.813 27.0124 198.171 27.1426C198.546 27.2728 198.879 27.3379 199.172 27.3379C199.482 27.3379 199.815 27.2728 200.173 27.1426C200.531 27.0124 200.841 26.7601 201.101 26.3857C201.361 26.0114 201.492 25.4743 201.492 24.7744C201.492 24.0583 201.361 23.5212 201.101 23.1631C200.841 22.7887 200.531 22.5365 200.173 22.4062C199.815 22.276 199.482 22.2109 199.172 22.2109ZM129.8 48.1826C131.069 48.1826 132.103 48.6139 132.9 49.4766C133.714 50.3392 134.121 51.6169 134.121 53.3096V61H129.922L129.897 53.9688C129.897 53.3503 129.727 52.9189 129.385 52.6748C129.043 52.4144 128.66 52.2842 128.237 52.2842C127.782 52.2842 127.399 52.4062 127.09 52.6504C126.781 52.8783 126.512 53.1549 126.284 53.4805V61H122.085V43.4219H126.284V50.1602C126.675 49.623 127.147 49.1592 127.7 48.7686C128.27 48.3779 128.97 48.1826 129.8 48.1826ZM143.179 48.1826C144.351 48.1826 145.392 48.443 146.304 48.9639C147.215 49.4847 147.923 50.2171 148.428 51.1611C148.949 52.0889 149.209 53.1956 149.209 54.4814V55.9219H140.737C140.916 56.5241 141.274 56.9717 141.812 57.2646C142.349 57.5576 142.967 57.7041 143.667 57.7041C144.611 57.7041 145.425 57.5739 146.108 57.3135C146.808 57.0368 147.329 56.8008 147.671 56.6055V60.1943C147.248 60.4548 146.662 60.7152 145.913 60.9756C145.181 61.236 144.351 61.3662 143.423 61.3662C142.544 61.3662 141.689 61.2197 140.859 60.9268C140.046 60.6338 139.313 60.2106 138.662 59.6572C138.011 59.1038 137.498 58.4365 137.124 57.6553C136.75 56.8577 136.562 55.9626 136.562 54.9697C136.562 53.7327 136.847 52.6016 137.417 51.5762C138.003 50.5508 138.792 49.7288 139.785 49.1104C140.794 48.4919 141.925 48.1826 143.179 48.1826ZM143.057 51.6494C142.52 51.6494 142.056 51.7959 141.665 52.0889C141.274 52.3656 140.99 52.7969 140.811 53.3828H145.229C145.229 52.7969 145.002 52.3656 144.546 52.0889C144.106 51.7959 143.61 51.6494 143.057 51.6494ZM160.024 53.1631C159.78 53.0329 159.52 52.9352 159.243 52.8701C158.983 52.7887 158.674 52.748 158.315 52.748C157.746 52.748 157.241 52.9189 156.802 53.2607C156.362 53.6025 156.004 54.0501 155.728 54.6035V61H151.528V48.5488H155.728V50.7705C156.118 50.1032 156.549 49.5254 157.021 49.0371C157.51 48.5488 158.145 48.3047 158.926 48.3047C159.349 48.3047 159.715 48.3779 160.024 48.5244V53.1631ZM167.983 48.1826C169.155 48.1826 170.197 48.443 171.108 48.9639C172.02 49.4847 172.728 50.2171 173.232 51.1611C173.753 52.0889 174.014 53.1956 174.014 54.4814V55.9219H165.542C165.721 56.5241 166.079 56.9717 166.616 57.2646C167.153 57.5576 167.772 57.7041 168.472 57.7041C169.416 57.7041 170.229 57.5739 170.913 57.3135C171.613 57.0368 172.134 56.8008 172.476 56.6055V60.1943C172.052 60.4548 171.466 60.7152 170.718 60.9756C169.985 61.236 169.155 61.3662 168.228 61.3662C167.349 61.3662 166.494 61.2197 165.664 60.9268C164.85 60.6338 164.118 60.2106 163.467 59.6572C162.816 59.1038 162.303 58.4365 161.929 57.6553C161.554 56.8577 161.367 55.9626 161.367 54.9697C161.367 53.7327 161.652 52.6016 162.222 51.5762C162.808 50.5508 163.597 49.7288 164.59 49.1104C165.599 48.4919 166.73 48.1826 167.983 48.1826ZM167.861 51.6494C167.324 51.6494 166.86 51.7959 166.47 52.0889C166.079 52.3656 165.794 52.7969 165.615 53.3828H170.034C170.034 52.7969 169.806 52.3656 169.351 52.0889C168.911 51.7959 168.415 51.6494 167.861 51.6494Z" fill="white"/>
</svg>
