<svg width="101" height="100" viewBox="0 0 101 100" fill="none" xmlns="http://www.w3.org/2000/svg">
<path d="M50.6641 100C78.2783 100 100.664 77.6142 100.664 50C100.664 22.3858 78.2783 0 50.6641 0C23.0498 0 0.664063 22.3858 0.664063 50C0.664063 77.6142 23.0498 100 50.6641 100Z" fill="#B91B05"/>
<path d="M63.5718 28.9393L50.4377 42.0733L37.3036 28.9393C35.1775 26.8132 31.7304 26.8132 29.6043 28.9393C27.4782 31.0654 27.4782 34.5125 29.6043 36.6386L42.7384 49.7727L29.6043 62.9067C27.4802 65.0348 27.4834 68.4819 29.6116 70.606C31.7368 72.7273 35.1784 72.7273 37.3036 70.606L50.4377 57.4719L63.5718 70.606C65.6999 72.7301 69.1469 72.7269 71.271 70.5988C73.3924 68.4735 73.3924 65.032 71.271 62.9067L58.137 49.7727L71.271 36.6386C73.3971 34.5125 73.3971 31.0654 71.271 28.9393C69.145 26.8132 65.6978 26.8132 63.5718 28.9393Z" fill="white"/>
</svg>
