<svg width="208" height="188" viewBox="0 0 208 188" fill="none" xmlns="http://www.w3.org/2000/svg">
<g filter="url(#filter0_d_531_58)">
<path d="M104 0C69.4997 0 61.6575 34.6484 61.338 77.8405C61.3247 79.6374 62.3806 81.2561 63.9993 82.0123C70.0958 84.8612 80.9294 87.0631 89.3454 88.3717H118.655C127.071 87.0631 137.905 84.8608 144.002 82.0123C145.619 81.2565 146.676 79.6377 146.663 77.8405C146.343 34.648 138.501 0 104 0Z" fill="#694B4B"/>
<path d="M61.338 77.8405C61.3247 79.6374 62.3806 81.2561 63.9993 82.0124C70.0958 84.8612 80.9294 87.0631 89.3454 88.3717H104V37.9312C104 37.9312 86.8622 38.7675 90.2075 37.9312C104 34.4827 131.587 17.2414 115.543 1.52734C112.073 0.529687 108.24 0 104.001 0C69.4997 0.000390624 61.6575 34.6484 61.338 77.8405Z" fill="#5A4146"/>
<path d="M155.804 168.967V115.853C155.804 110.285 152.455 105.262 147.316 103.121L122.987 92.984C120.715 92.0379 119.236 89.8183 119.236 87.3582V79.9941H88.7628V87.3582C88.7628 89.8183 87.2835 92.0375 85.0124 92.984L60.6832 103.121C55.543 105.263 52.1953 110.285 52.1953 115.853V168.967H155.804Z" fill="#D99F71"/>
<path d="M147.316 103.12L130.213 95.9941C123.916 103.593 117.674 109.326 112.239 113.528H95.7605C90.3257 109.326 84.0827 103.593 77.7863 95.9941L60.6832 103.12C55.543 105.262 52.1953 110.284 52.1953 115.852V168.966H155.804V115.852C155.804 110.284 152.455 105.262 147.316 103.12Z" fill="#787878"/>
<path d="M54.1766 108.795C52.9254 110.889 52.1973 113.304 52.1973 115.85V168.964H72.9672V127.585L54.1766 108.795Z" fill="#434343"/>
<path d="M153.828 108.795C155.079 110.889 155.807 113.304 155.807 115.85V168.964H135.037V127.585L153.828 108.795Z" fill="#434343"/>
<path d="M134.246 42.1145L132.009 66.7149C131.644 70.7317 129.315 74.3078 125.789 76.2664L109.919 85.0832C106.237 87.1285 101.761 87.1285 98.08 85.0832L82.2097 76.2664C78.6839 74.3078 76.3554 70.7317 75.9902 66.7149L73.8308 42.9594C73.6633 41.1173 74.9738 39.4774 76.8113 39.263C84.9499 38.313 106.326 35.3337 119.264 29.0505C120.9 28.2556 122.819 28.8966 123.726 30.4731C125.21 33.0509 127.947 36.6563 132.437 38.7946C133.679 39.3864 134.37 40.7442 134.246 42.1145Z" fill="#EABF9D"/>
<path d="M200.551 179.309H7.44843C5.54414 179.309 4 177.765 4 175.861V168.964C4 167.06 5.54414 165.516 7.44843 165.516H200.552C202.456 165.516 204 167.06 204 168.964V175.861C204 177.765 202.455 179.309 200.551 179.309Z" fill="#F5DCB4"/>
<path d="M73.8308 42.9598L75.9902 66.7153C76.3554 70.7321 78.6836 74.3078 82.2097 76.2668L98.08 85.0836C99.5327 85.8906 101.118 86.2859 102.72 86.4555L98.2538 75.2914C97.4909 73.3836 97.0163 71.3735 96.8456 69.3258L94.9472 46.5481C94.8019 44.8028 95.9839 43.2423 97.6984 42.8864C105.045 41.363 112.904 39.2915 119.444 36.5341C121.6 39.5157 124.83 42.8106 129.471 45.0212C130.402 45.4641 130.844 45.6661 133.899 45.9169L134.245 42.1137C134.37 40.7372 133.667 39.3817 132.419 38.786C127.939 36.647 125.207 33.0474 123.726 30.4731C122.819 28.8966 120.9 28.2556 119.264 29.0505C106.326 35.3341 84.9503 38.313 76.8109 39.263C74.9742 39.4778 73.6633 41.1173 73.8308 42.9598Z" fill="#D99F71"/>
<path d="M72.4769 100.394C78.3648 107.5 84.7797 113.754 91.5425 118.984L93.4058 120.425H95.7613H112.239H114.595L116.458 118.984C123.221 113.755 129.636 107.5 135.524 100.394L136.871 98.7684L130.213 95.9941C123.917 103.593 117.674 109.326 112.239 113.528H95.7609C90.3261 109.326 84.0832 103.593 77.7867 95.9941L71.1289 98.7684L72.4769 100.394Z" fill="#434343"/>
</g>
<defs>
<filter id="filter0_d_531_58" x="0" y="0" width="208" height="187.309" filterUnits="userSpaceOnUse" color-interpolation-filters="sRGB">
<feFlood flood-opacity="0" result="BackgroundImageFix"/>
<feColorMatrix in="SourceAlpha" type="matrix" values="0 0 0 0 0 0 0 0 0 0 0 0 0 0 0 0 0 0 127 0" result="hardAlpha"/>
<feOffset dy="4"/>
<feGaussianBlur stdDeviation="2"/>
<feComposite in2="hardAlpha" operator="out"/>
<feColorMatrix type="matrix" values="0 0 0 0 0 0 0 0 0 0 0 0 0 0 0 0 0 0 0.25 0"/>
<feBlend mode="normal" in2="BackgroundImageFix" result="effect1_dropShadow_531_58"/>
<feBlend mode="normal" in="SourceGraphic" in2="effect1_dropShadow_531_58" result="shape"/>
</filter>
</defs>
</svg>
