<svg width="265" height="162" viewBox="0 0 265 162" fill="none" xmlns="http://www.w3.org/2000/svg">
<g filter="url(#filter0_d_532_178)">
<path d="M251.723 152H12.2761C9.91473 152 8 144.499 8 135.25V101.75C8 92.5005 9.91473 85 12.2761 85H251.724C254.085 85 256 92.5005 256 101.75V135.25C256 144.501 254.085 152 251.723 152Z" fill="#F5DCB4"/>
<path d="M89.8755 37.8427C88.4975 37.8427 87.3164 36.6616 87.3164 35.2836L87.7101 28.7876C87.7101 27.4096 89.0881 26.2285 90.6629 26.2285C92.2377 26.2285 93.2219 27.4096 93.2219 28.7876L92.6314 35.2836C92.6314 36.8584 91.2534 37.8427 89.8755 37.8427Z" fill="#A47B5A"/>
<path d="M42.4343 37.8427C40.8595 37.8427 39.6784 36.6616 39.4816 35.2836L39.0879 28.7876C39.0879 27.4096 40.0721 26.2285 41.6469 26.2285H41.8438C41.8438 30.5592 42.0406 34.4962 42.4343 37.8427Z" fill="#A47B5A"/>
<path d="M82.5919 70.9137C82.9856 69.5358 83.1825 68.1578 83.1825 66.583C83.1825 57.1342 75.5053 49.457 66.2534 49.457C56.8045 49.457 49.3242 57.1342 49.3242 66.583C49.3242 68.1578 49.5211 69.5358 49.9148 70.9137H82.5919Z" fill="#926846"/>
<path d="M89.6782 15.2067C88.4971 3.3957 73.7333 0.246094 66.253 0.246094C66.253 0.246094 66.253 0.246094 66.0562 0.246094C66.0562 0.246094 66.0562 0.246094 65.8593 0.246094C58.379 0.246094 43.8121 3.3957 42.4341 15.2067C40.4656 33.5138 42.8278 45.5217 46.7648 53.3957C49.127 58.1201 54.0483 61.2697 59.5601 61.2697H72.3554C77.6703 61.2697 82.5916 58.317 85.1507 53.3957C89.2845 45.5217 91.6467 33.5138 89.6782 15.2067Z" fill="#2C2D2F"/>
<path d="M47.9453 97.2937C48.1422 97.0968 48.339 96.9 48.5359 96.7031C48.339 97.0968 48.339 97.4905 48.1422 97.6874C48.1422 97.8842 48.1422 97.6874 47.9453 97.2937Z" fill="#324A5E"/>
<path d="M86.5277 69.732C67.2364 80.9524 49.7167 72.0942 45.9766 69.732C46.5671 66.7792 47.7482 64.417 49.7167 63.0391C49.7167 63.0391 65.2679 76.6217 82.7876 63.0391C84.5592 64.417 85.7403 66.7792 86.5277 69.732Z" fill="#031024"/>
<path d="M83.7715 96.7031C83.9683 96.9 84.1652 97.0968 84.362 97.2937C84.362 97.6874 84.1652 97.8842 84.1652 97.8842C83.9683 97.4905 83.9683 97.0968 83.7715 96.7031Z" fill="#324A5E"/>
<path d="M221.567 37.8427C220.189 37.8427 219.008 36.6616 219.008 35.2836L219.402 28.7876C219.402 27.4096 220.779 26.2285 222.354 26.2285C223.929 26.2285 224.913 27.4096 224.913 28.7876L224.52 35.2836C224.323 36.8584 223.142 37.8427 221.567 37.8427Z" fill="#EABF9D"/>
<path d="M174.323 37.8427C174.126 37.8427 174.126 37.8427 174.323 37.8427C172.748 37.8427 171.567 36.6616 171.37 35.2836L170.977 28.7876C170.977 27.4096 171.961 26.2285 173.536 26.2285H173.732C173.536 30.5592 173.732 34.4962 174.323 37.8427Z" fill="#EABF9D"/>
<path d="M214.481 63.0389C196.961 76.4247 181.213 63.0389 181.213 63.0389C181.607 61.4641 182.197 59.8893 182.985 58.3145C185.347 60.0861 188.299 61.0704 191.449 61.0704H204.244C207.394 61.0704 210.347 60.0861 212.709 58.3145C213.693 59.6924 214.087 61.2672 214.481 63.0389Z" fill="#D99F71"/>
<path d="M221.37 15.2067C220.189 3.3957 205.425 0.246094 197.944 0.246094C197.944 0.246094 197.944 0.246094 197.748 0.246094C197.748 0.246094 197.748 0.246094 197.551 0.246094C190.07 0.246094 175.503 3.3957 174.126 15.2067C172.157 33.5138 174.519 45.5217 178.456 53.3957C180.818 58.1201 185.74 61.2697 191.252 61.2697H204.047C209.362 61.2697 214.283 58.317 216.842 53.3957C220.976 45.5217 223.338 33.5138 221.37 15.2067Z" fill="#614A01"/>
<path d="M186.92 97.2937C187.117 97.0968 187.314 96.9 187.51 96.7031C187.314 97.0968 187.314 97.4905 187.117 97.6874C187.117 97.8842 186.92 97.6874 186.92 97.2937Z" fill="#324A5E"/>
<path d="M218.221 69.732C198.93 80.9524 181.41 72.0942 177.67 69.732C178.26 66.7792 179.442 64.417 181.41 63.0391C181.41 63.0391 196.961 76.6217 214.481 63.0391C216.253 64.417 217.434 66.7792 218.221 69.732Z" fill="#031024"/>
<path d="M215.465 96.7031C215.662 96.9 215.859 97.0968 216.055 97.2937C216.055 97.6874 215.859 97.8842 215.859 97.8842C215.662 97.4905 215.662 97.0968 215.465 96.7031Z" fill="#324A5E"/>
<path d="M244.401 82.7261C243.023 81.7418 241.448 80.7576 239.676 79.9702L218.219 69.5371C198.928 80.7576 181.408 71.8993 177.668 69.5371L156.212 79.9702C148.731 83.5135 143.219 90.0096 140.66 97.8836C137.511 107.332 136.133 117.372 136.133 127.411V153.002C150.484 152.525 163.241 154.45 176 149.502C205.419 138.094 230.533 111.01 244.401 82.7261Z" fill="#032255"/>
<path d="M255.712 97.8455C253.153 89.9715 247.642 83.5133 240.161 79.97L218.22 69.5391C198.929 80.7595 181.41 71.9013 177.67 69.5391L156.21 79.9691C154.635 80.7565 153.35 81.7038 151.775 82.8849C167.07 114.239 194.817 142.161 229 152C242 154 249.615 152.656 260.24 152.964V127.373C260.24 117.137 258.665 107.294 255.712 97.8455Z" fill="#032255"/>
<path d="M154 106C154 97.7157 160.716 91 169 91H227C235.284 91 242 97.7157 242 106V153H154V106Z" fill="#324A5E"/>
<path d="M112.768 82.6851C111.39 81.7008 109.815 80.7166 108.043 79.9292L86.5866 69.4961C67.2953 80.7166 49.7756 71.8583 46.0354 69.4961L24.5787 79.9292C17.0984 83.4725 11.5866 89.9685 9.02757 97.8426C5.87796 107.291 4.5 117.331 4.5 127.37V152.961C18.8513 152.484 31.6081 154.409 44.3672 149.461C73.7858 138.053 98.9003 110.969 112.768 82.6851Z" fill="#032255"/>
<path d="M123.937 97.8065C121.378 89.9324 115.866 83.4742 108.386 79.9309L86.4446 69.5C67.1533 80.7205 49.6348 71.8622 45.8946 69.5L24.4346 79.93C22.8598 80.7174 21.5748 81.6647 20 82.8458C35.2945 114.2 63.0417 142.122 97.2246 151.961C110.225 153.961 117.839 152.617 128.465 152.925V127.334C128.465 117.098 126.89 107.255 123.937 97.8065Z" fill="#032255"/>
<path d="M21.8672 105.961C21.8672 97.6767 28.5829 90.9609 36.8672 90.9609H94.8672C103.151 90.9609 109.867 97.6767 109.867 105.961V152.961H21.8672V105.961Z" fill="#324A5E"/>
</g>
<defs>
<filter id="filter0_d_532_178" x="0.5" y="0.246094" width="263.74" height="160.877" filterUnits="userSpaceOnUse" color-interpolation-filters="sRGB">
<feFlood flood-opacity="0" result="BackgroundImageFix"/>
<feColorMatrix in="SourceAlpha" type="matrix" values="0 0 0 0 0 0 0 0 0 0 0 0 0 0 0 0 0 0 127 0" result="hardAlpha"/>
<feOffset dy="4"/>
<feGaussianBlur stdDeviation="2"/>
<feComposite in2="hardAlpha" operator="out"/>
<feColorMatrix type="matrix" values="0 0 0 0 0 0 0 0 0 0 0 0 0 0 0 0 0 0 0.25 0"/>
<feBlend mode="normal" in2="BackgroundImageFix" result="effect1_dropShadow_532_178"/>
<feBlend mode="normal" in="SourceGraphic" in2="effect1_dropShadow_532_178" result="shape"/>
</filter>
</defs>
</svg>
